<svg width="650" height="410" viewBox="0 0 650 410" fill="none" xmlns="http://www.w3.org/2000/svg">
<path opacity="0.3" d="M591.512 161.906V120.292H566.811V161.906H537.561V97.5337H516.11V49.4171H498.56V0H462.159V49.4171H444.609V97.5337H423.809V39.6637H412.108V10.4036H404.958V39.6637H363.357V224.328H331.507V204.821H312.006V224.328H280.156V161.906H222.955V120.292H198.254V161.906H196.954V241.884H170.953V195.067H139.753V241.884H113.752V97.5337H93.6019V49.4171H19.5004V97.5337H0V351.772H113.752H196.954H280.156H363.357H423.809H537.561H620.763V161.906H591.512Z" fill="#096BEF"/>
<path opacity="0.1" d="M562.14 351.48C557.512 353.867 552.663 355.928 547.886 357.95C530.212 365.408 512.265 372.944 493.284 375.506C457.618 380.285 414.106 358.982 379.07 367.097C349.722 373.873 325.45 394.634 296.778 403.88C283.446 408.178 269.575 409.862 255.58 409.862H253.773C252.051 409.862 250.335 409.797 248.612 409.732C234.423 409.199 220.174 407.132 206.264 404.42C162.343 395.967 117.641 380.472 84.0615 351.947C182.903 351.947 387.977 351.48 562.14 351.48Z" fill="#252223"/>
<path d="M650 351.133H0V352.623H650V351.133Z" fill="#2F2E41"/>
<path opacity="0.4" d="M39.6509 112.489H12.3503V128.094H39.6509V112.489Z" fill="white"/>
<path opacity="0.4" d="M73.4514 128.094H100.752V112.489H73.4514V128.094Z" fill="white"/>
<path opacity="0.4" d="M39.6509 143.05H12.3503V158.655H39.6509V143.05Z" fill="white"/>
<path opacity="0.4" d="M73.4514 158.655H100.752V143.049H73.4514V158.655Z" fill="white"/>
<path opacity="0.4" d="M39.6509 173.61H12.3503V189.216H39.6509V173.61Z" fill="white"/>
<path opacity="0.4" d="M73.4514 189.215H100.752V173.61H73.4514V189.215Z" fill="white"/>
<path opacity="0.4" d="M39.6509 204.171H12.3503V219.776H39.6509V204.171Z" fill="white"/>
<path opacity="0.4" d="M73.4514 219.776H100.752V204.17H73.4514V219.776Z" fill="white"/>
<path opacity="0.4" d="M39.6509 234.731H12.3503V250.337H39.6509V234.731Z" fill="white"/>
<path opacity="0.4" d="M73.4514 250.336H100.752V234.731H73.4514V250.336Z" fill="white"/>
<path opacity="0.4" d="M39.6509 265.292H12.3503V280.897H39.6509V265.292Z" fill="white"/>
<path opacity="0.4" d="M73.4514 280.897H100.752V265.292H73.4514V280.897Z" fill="white"/>
<path opacity="0.4" d="M39.6509 295.853H12.3503V311.458H39.6509V295.853Z" fill="white"/>
<path opacity="0.4" d="M73.4514 311.458H100.752V295.852H73.4514V311.458Z" fill="white"/>
<path opacity="0.4" d="M187.204 257.489H123.502V265.292H187.204V257.489Z" fill="white"/>
<path opacity="0.4" d="M187.204 269.193H123.502V276.996H187.204V269.193Z" fill="white"/>
<path opacity="0.4" d="M187.204 280.897H123.502V288.7H187.204V280.897Z" fill="white"/>
<path opacity="0.4" d="M353.607 261.391H289.906V269.193H353.607V261.391Z" fill="white"/>
<path opacity="0.4" d="M353.607 273.094H289.906V280.897H353.607V273.094Z" fill="white"/>
<path opacity="0.4" d="M353.607 284.798H289.906V292.601H353.607V284.798Z" fill="white"/>
<path opacity="0.4" d="M187.204 292.601H123.502V300.404H187.204V292.601Z" fill="white"/>
<path opacity="0.4" d="M187.204 304.305H123.502V312.108H187.204V304.305Z" fill="white"/>
<path opacity="0.4" d="M187.204 316.009H123.502V323.812H187.204V316.009Z" fill="white"/>
<path opacity="0.4" d="M228.155 176.861H210.604V199.619H228.155V176.861Z" fill="white"/>
<path opacity="0.4" d="M248.955 199.619H266.505V176.861H248.955V199.619Z" fill="white"/>
<path opacity="0.4" d="M228.155 213.274H210.604V236.032H228.155V213.274Z" fill="white"/>
<path opacity="0.4" d="M248.955 236.031H266.505V213.274H248.955V236.031Z" fill="white"/>
<path opacity="0.4" d="M228.155 249.686H210.604V272.444H228.155V249.686Z" fill="white"/>
<path opacity="0.4" d="M248.955 272.444H266.505V249.686H248.955V272.444Z" fill="white"/>
<path opacity="0.4" d="M228.155 286.099H210.604V308.857H228.155V286.099Z" fill="white"/>
<path opacity="0.4" d="M248.955 308.857H266.505V286.099H248.955V308.857Z" fill="white"/>
<path opacity="0.4" d="M386.758 54.6191H363.357V84.5295H386.758V54.6191Z" fill="white"/>
<path opacity="0.4" d="M386.758 97.5339H363.357V127.444H386.758V97.5339Z" fill="white"/>
<path opacity="0.4" d="M386.758 140.449H363.357V170.359H386.758V140.449Z" fill="white"/>
<path opacity="0.4" d="M386.758 183.364H363.357V213.274H386.758V183.364Z" fill="white"/>
<path opacity="0.4" d="M386.758 226.279H363.357V256.189H386.758V226.279Z" fill="white"/>
<path opacity="0.4" d="M386.758 269.193H363.357V299.104H386.758V269.193Z" fill="white"/>
<path opacity="0.4" d="M524.236 115.74H437.134V141.099H524.236V115.74Z" fill="white"/>
<path opacity="0.4" d="M524.561 170.359H437.459V195.718H524.561V170.359Z" fill="white"/>
<path opacity="0.4" d="M524.885 224.978H437.784V250.337H524.885V224.978Z" fill="white"/>
<path opacity="0.4" d="M525.211 279.597H438.109V304.956H525.211V279.597Z" fill="white"/>
<path opacity="0.4" d="M31.2005 63.0718H19.5002V87.7803H31.2005V63.0718Z" fill="white"/>
<path opacity="0.4" d="M620.762 176.861H591.512V214.574H620.762V176.861Z" fill="white"/>
<path opacity="0.4" d="M620.762 231.48H591.512V269.193H620.762V231.48Z" fill="white"/>
<path opacity="0.4" d="M620.762 286.099H591.512V323.812H620.762V286.099Z" fill="white"/>
<path d="M32.2862 311.815C32.2862 311.815 -18.8893 342.701 75.4471 390.252C75.4471 390.252 96.2475 351.655 73.2501 320.184C68.7896 314.048 62.2339 309.762 54.8253 308.138C47.4167 306.514 39.67 307.665 33.0533 311.373L32.2862 311.815Z" fill="#096BEF"/>
<path d="M32.8777 311.165C32.8777 311.165 76.6691 344.684 75.4471 390.252" stroke="#535461" stroke-miterlimit="10"/>
<path d="M77.8259 392.007C77.8259 392.007 61.7901 337.545 80.8355 297.458C88.8242 280.637 91.4762 261.748 87.7841 243.49C86.0208 234.82 83.4642 226.332 80.1465 218.131" stroke="#535461" stroke-width="2" stroke-miterlimit="10"/>
<path d="M91.9767 192.831C91.9767 199.502 79.8995 218.84 79.8995 218.84C79.8995 218.84 67.8158 199.483 67.8158 192.831C67.7784 191.22 68.0633 189.619 68.6536 188.12C69.2439 186.621 70.1278 185.255 71.2532 184.103C72.3787 182.951 73.7231 182.035 75.2073 181.41C76.6916 180.785 78.2858 180.463 79.8962 180.463C81.5067 180.463 83.1009 180.785 84.5852 181.41C86.0694 182.035 87.4138 182.951 88.5393 184.103C89.6647 185.255 90.5486 186.621 91.1389 188.12C91.7292 189.619 92.0141 191.22 91.9767 192.831Z" fill="#096BEF"/>
<path d="M111.971 229.802C108.344 235.407 87.6868 245.083 87.6868 245.083C87.6868 245.083 88.0573 222.266 91.6843 216.668C93.446 214.023 96.1779 212.179 99.2886 211.535C102.399 210.89 105.639 211.497 108.306 213.223C110.972 214.95 112.852 217.658 113.538 220.761C114.224 223.864 113.661 227.112 111.971 229.802Z" fill="#096BEF"/>
<path d="M111.094 292.985C105.14 295.989 82.4216 293.908 82.4216 293.908C82.4216 293.908 94.2584 274.402 100.219 271.398C103.075 270.003 106.366 269.79 109.378 270.805C112.39 271.82 114.881 273.981 116.311 276.82C117.742 279.66 117.996 282.948 117.02 285.974C116.043 289 113.914 291.519 111.094 292.985Z" fill="#096BEF"/>
<path d="M99.6728 340.64C94.3102 344.606 71.5728 346.401 71.5728 346.401C71.5728 346.401 79.9384 325.171 85.3075 321.204C87.8879 319.373 91.0833 318.627 94.2074 319.127C97.3316 319.626 100.135 321.332 102.016 323.876C103.897 326.421 104.705 329.603 104.267 332.737C103.829 335.871 102.179 338.709 99.6728 340.64Z" fill="#096BEF"/>
<path d="M62.3167 246.377C67.1008 251.026 89.4028 255.844 89.4028 255.844C89.4028 255.844 83.9426 233.691 79.152 229.042C78.0142 227.936 76.6697 227.065 75.1955 226.479C73.7212 225.893 72.1459 225.603 70.5597 225.626C68.9735 225.649 67.4073 225.984 65.9505 226.613C64.4938 227.241 63.1751 228.15 62.0697 229.289C60.9643 230.427 60.0938 231.772 59.5079 233.246C58.9221 234.721 58.6324 236.297 58.6553 237.884C58.6783 239.47 59.0134 241.037 59.6416 242.494C60.2698 243.952 61.1788 245.271 62.3167 246.377Z" fill="#096BEF"/>
<path d="M49.6674 302.276C55.6215 305.287 78.3395 303.206 78.3395 303.206C78.3395 303.206 66.5028 283.699 60.5486 280.695C59.1284 279.943 57.5724 279.482 55.9717 279.338C54.371 279.195 52.7577 279.372 51.2264 279.86C49.695 280.348 48.2764 281.136 47.0534 282.179C45.8304 283.222 44.8277 284.499 44.104 285.934C43.3802 287.369 42.95 288.935 42.8385 290.539C42.7269 292.142 42.9363 293.752 43.4544 295.274C43.9725 296.796 44.7888 298.199 45.8556 299.401C46.9225 300.604 48.2183 301.581 49.6674 302.276Z" fill="#096BEF"/>
<path d="M44.8249 358.3C50.1875 362.266 72.9314 364.061 72.9314 364.061C72.9314 364.061 64.5592 342.831 59.1901 338.865C56.6098 337.033 53.4144 336.288 50.2903 336.787C47.1661 337.287 44.3624 338.992 42.4815 341.537C40.6005 344.082 39.7923 347.263 40.2305 350.397C40.6687 353.532 42.3182 356.369 44.8249 358.3Z" fill="#096BEF"/>
<path opacity="0.25" d="M91.9767 192.831C91.9767 199.502 79.8995 218.84 79.8995 218.84C79.8995 218.84 67.8158 199.483 67.8158 192.831C67.7784 191.22 68.0633 189.619 68.6536 188.12C69.2439 186.621 70.1278 185.255 71.2532 184.103C72.3787 182.951 73.7231 182.035 75.2073 181.41C76.6916 180.785 78.2858 180.463 79.8962 180.463C81.5067 180.463 83.1009 180.785 84.5852 181.41C86.0694 182.035 87.4138 182.951 88.5393 184.103C89.6647 185.255 90.5486 186.621 91.1389 188.12C91.7292 189.619 92.0141 191.22 91.9767 192.831Z" fill="black"/>
<path opacity="0.25" d="M111.971 229.802C108.344 235.407 87.6868 245.083 87.6868 245.083C87.6868 245.083 88.0573 222.266 91.6843 216.668C93.446 214.023 96.1779 212.179 99.2886 211.535C102.399 210.89 105.639 211.497 108.306 213.223C110.972 214.95 112.852 217.658 113.538 220.761C114.224 223.864 113.661 227.112 111.971 229.802Z" fill="black"/>
<path opacity="0.25" d="M111.094 292.985C105.14 295.989 82.4216 293.908 82.4216 293.908C82.4216 293.908 94.2584 274.402 100.219 271.398C103.075 270.003 106.366 269.79 109.378 270.805C112.39 271.82 114.881 273.981 116.311 276.82C117.742 279.66 117.996 282.948 117.02 285.974C116.043 289 113.914 291.519 111.094 292.985Z" fill="black"/>
<path opacity="0.25" d="M99.6728 340.64C94.3102 344.606 71.5728 346.401 71.5728 346.401C71.5728 346.401 79.9384 325.171 85.3075 321.204C87.8879 319.373 91.0833 318.627 94.2074 319.127C97.3316 319.626 100.135 321.332 102.016 323.876C103.897 326.421 104.705 329.603 104.267 332.737C103.829 335.871 102.179 338.709 99.6728 340.64Z" fill="black"/>
<path opacity="0.25" d="M62.3167 246.377C67.1008 251.026 89.4028 255.844 89.4028 255.844C89.4028 255.844 83.9426 233.691 79.152 229.042C78.0142 227.936 76.6697 227.065 75.1955 226.479C73.7212 225.893 72.1459 225.603 70.5597 225.626C68.9735 225.649 67.4073 225.984 65.9505 226.613C64.4938 227.241 63.1751 228.15 62.0697 229.289C60.9643 230.427 60.0938 231.772 59.5079 233.246C58.9221 234.721 58.6324 236.297 58.6553 237.884C58.6783 239.47 59.0134 241.037 59.6416 242.494C60.2698 243.952 61.1788 245.271 62.3167 246.377Z" fill="black"/>
<path opacity="0.25" d="M49.6674 302.276C55.6215 305.287 78.3395 303.206 78.3395 303.206C78.3395 303.206 66.5028 283.699 60.5486 280.695C59.1284 279.943 57.5724 279.482 55.9717 279.338C54.371 279.195 52.7577 279.372 51.2264 279.86C49.695 280.348 48.2764 281.136 47.0534 282.179C45.8304 283.222 44.8277 284.499 44.104 285.934C43.3802 287.369 42.95 288.935 42.8385 290.539C42.7269 292.142 42.9363 293.752 43.4544 295.274C43.9725 296.796 44.7888 298.199 45.8556 299.401C46.9225 300.604 48.2183 301.581 49.6674 302.276Z" fill="black"/>
<path opacity="0.25" d="M44.8249 358.3C50.1875 362.266 72.9314 364.061 72.9314 364.061C72.9314 364.061 64.5592 342.831 59.1901 338.865C56.6098 337.033 53.4144 336.288 50.2903 336.787C47.1661 337.287 44.3624 338.992 42.4815 341.537C40.6005 344.082 39.7923 347.263 40.2305 350.397C40.6687 353.532 42.3182 356.369 44.8249 358.3Z" fill="black"/>
<path d="M578.369 377.943C578.369 377.943 562.333 323.481 581.378 283.394C589.367 266.573 592.026 247.684 588.334 229.425C586.564 220.758 584.008 212.27 580.696 204.067" stroke="#535461" stroke-width="2" stroke-miterlimit="10"/>
<path d="M592.545 178.766C592.545 185.437 580.462 204.775 580.462 204.775C580.462 204.775 568.378 185.418 568.378 178.766C568.378 175.56 569.651 172.486 571.917 170.219C574.183 167.952 577.257 166.678 580.462 166.678C583.667 166.678 586.74 167.952 589.006 170.219C591.272 172.486 592.545 175.56 592.545 178.766Z" fill="#096BEF"/>
<path d="M612.514 215.738C608.887 221.343 588.229 231.018 588.229 231.018C588.229 231.018 588.606 208.202 592.233 202.603C593.975 199.913 596.713 198.025 599.846 197.354C602.979 196.684 606.249 197.285 608.939 199.027C611.628 200.769 613.516 203.508 614.186 206.642C614.857 209.776 614.255 213.048 612.514 215.738Z" fill="#096BEF"/>
<path d="M611.643 278.921C605.682 281.925 582.964 279.844 582.964 279.844C582.964 279.844 594.807 260.337 600.762 257.333C603.623 255.89 606.941 255.643 609.985 256.646C613.029 257.65 615.549 259.822 616.992 262.685C618.435 265.547 618.682 268.866 617.679 271.911C616.676 274.956 614.504 277.477 611.643 278.921Z" fill="#096BEF"/>
<path d="M600.222 326.575C594.853 330.542 572.116 332.336 572.116 332.336C572.116 332.336 580.488 311.106 585.85 307.14C588.429 305.264 591.643 304.483 594.795 304.968C597.946 305.452 600.778 307.163 602.674 309.727C604.569 312.291 605.376 315.5 604.916 318.656C604.457 321.812 602.77 324.658 600.222 326.575Z" fill="#096BEF"/>
<path d="M562.86 232.293C567.65 236.942 589.946 241.76 589.946 241.76C589.946 241.76 584.486 219.607 579.701 214.958C578.569 213.825 577.223 212.93 575.741 212.322C574.26 211.715 572.673 211.409 571.072 211.42C569.471 211.432 567.888 211.762 566.415 212.391C564.943 213.019 563.61 213.935 562.494 215.083C561.378 216.232 560.502 217.591 559.915 219.081C559.329 220.571 559.045 222.163 559.079 223.764C559.113 225.365 559.464 226.944 560.113 228.408C560.763 229.872 561.696 231.192 562.86 232.293Z" fill="#096BEF"/>
<path d="M550.236 288.212C556.197 291.223 578.915 289.142 578.915 289.142C578.915 289.142 567.078 269.635 561.117 266.631C559.697 265.879 558.141 265.417 556.54 265.274C554.94 265.13 553.327 265.308 551.795 265.796C550.264 266.283 548.845 267.072 547.622 268.115C546.399 269.158 545.397 270.434 544.673 271.87C543.949 273.305 543.519 274.871 543.407 276.474C543.296 278.078 543.505 279.688 544.023 281.21C544.541 282.732 545.358 284.135 546.424 285.337C547.491 286.54 548.787 287.517 550.236 288.212Z" fill="#096BEF"/>
<path d="M545.368 344.236C550.737 348.202 573.474 349.997 573.474 349.997C573.474 349.997 565.102 328.773 559.739 324.801C557.161 322.924 553.946 322.144 550.795 322.628C547.644 323.113 544.812 324.823 542.916 327.387C541.02 329.951 540.214 333.16 540.673 336.316C541.133 339.472 542.82 342.319 545.368 344.236Z" fill="#096BEF"/>
<path d="M506.035 372.644C506.035 372.644 497.416 343.384 507.654 321.835C512 312.827 513.311 302.652 511.391 292.835C510.44 288.181 509.065 283.623 507.283 279.22" stroke="#535461" stroke-width="2" stroke-miterlimit="10"/>
<path d="M513.654 265.604C513.654 269.193 507.153 279.597 507.153 279.597C507.153 279.597 500.653 269.193 500.653 265.604C500.653 263.88 501.338 262.226 502.557 261.006C503.776 259.787 505.429 259.102 507.153 259.102C508.877 259.102 510.531 259.787 511.75 261.006C512.969 262.226 513.654 263.88 513.654 265.604Z" fill="#096BEF"/>
<path d="M524.385 285.475C522.435 288.485 511.333 293.687 511.333 293.687C511.333 293.687 511.534 281.424 513.484 278.413C514.456 277.052 515.916 276.117 517.559 275.805C519.203 275.492 520.903 275.825 522.307 276.735C523.711 277.644 524.711 279.06 525.098 280.688C525.485 282.316 525.229 284.03 524.385 285.475Z" fill="#096BEF"/>
<path d="M523.917 319.423C520.713 321.035 508.505 319.917 508.505 319.917C508.505 319.917 514.869 309.435 518.067 307.823C519.594 307.133 521.329 307.059 522.909 307.617C524.489 308.176 525.792 309.323 526.547 310.82C527.302 312.316 527.45 314.047 526.96 315.65C526.47 317.253 525.38 318.604 523.917 319.423Z" fill="#096BEF"/>
<path d="M517.774 345.035C514.895 347.168 502.675 348.13 502.675 348.13C502.675 348.13 507.173 336.725 510.059 334.593C510.74 334.03 511.528 333.611 512.376 333.363C513.224 333.115 514.113 333.043 514.99 333.15C515.867 333.257 516.712 333.542 517.475 333.987C518.238 334.433 518.903 335.029 519.428 335.739C519.953 336.45 520.327 337.26 520.529 338.12C520.731 338.981 520.755 339.873 520.6 340.743C520.445 341.613 520.115 342.442 519.629 343.18C519.143 343.918 518.512 344.549 517.774 345.035Z" fill="#096BEF"/>
<path d="M497.702 294.383C500.302 296.88 512.256 299.467 512.256 299.467C512.256 299.467 509.324 287.562 506.75 285.065C506.149 284.423 505.424 283.91 504.619 283.556C503.813 283.203 502.945 283.017 502.066 283.009C501.186 283.001 500.314 283.172 499.503 283.51C498.692 283.849 497.957 284.349 497.344 284.98C496.732 285.611 496.253 286.36 495.938 287.181C495.623 288.002 495.478 288.879 495.512 289.758C495.545 290.637 495.756 291.5 496.133 292.295C496.509 293.09 497.043 293.8 497.702 294.383Z" fill="#096BEF"/>
<path d="M490.903 324.423C494.108 326.036 506.315 324.924 506.315 324.924C506.315 324.924 499.951 314.442 496.747 312.823C495.22 312.133 493.485 312.06 491.905 312.618C490.325 313.176 489.022 314.324 488.267 315.82C487.512 317.317 487.364 319.047 487.854 320.65C488.344 322.253 489.434 323.605 490.896 324.423H490.903Z" fill="#096BEF"/>
<path d="M488.303 354.535C491.182 356.668 503.403 357.63 503.403 357.63C503.403 357.63 498.885 346.219 496.025 344.086C494.636 343.141 492.935 342.771 491.28 343.053C489.624 343.334 488.141 344.246 487.143 345.597C486.144 346.948 485.708 348.634 485.924 350.3C486.14 351.966 486.993 353.484 488.303 354.535Z" fill="#096BEF"/>
<path opacity="0.1" d="M172.046 31.0027H167.573C167.996 31.022 168.419 30.9553 168.816 30.8067C169.212 30.658 169.574 30.4305 169.88 30.1379C170.187 29.8453 170.43 29.4936 170.597 29.1041C170.763 28.7147 170.849 28.2955 170.849 27.8719C170.849 27.4483 170.763 27.0291 170.597 26.6396C170.43 26.2501 170.187 25.8985 169.88 25.6058C169.574 25.3132 169.212 25.0857 168.816 24.9371C168.419 24.7884 167.996 24.7218 167.573 24.741H131.348C130.925 24.7218 130.503 24.7884 130.106 24.9371C129.71 25.0857 129.347 25.3132 129.041 25.6058C128.735 25.8985 128.491 26.2501 128.325 26.6396C128.158 27.0291 128.072 27.4483 128.072 27.8719C128.072 28.2955 128.158 28.7147 128.325 29.1041C128.491 29.4936 128.735 29.8453 129.041 30.1379C129.347 30.4305 129.71 30.658 130.106 30.8067C130.503 30.9553 130.925 31.022 131.348 31.0027H135.82C134.989 31.0027 134.192 31.3329 133.605 31.9207C133.017 32.5084 132.687 33.3056 132.687 34.1368C132.687 34.968 133.017 35.7652 133.605 36.3529C134.192 36.9407 134.989 37.2709 135.82 37.2709H129.561C129.138 37.2516 128.715 37.3183 128.319 37.4669C127.922 37.6156 127.56 37.8431 127.254 38.1357C126.947 38.4283 126.704 38.78 126.537 39.1694C126.371 39.5589 126.285 39.9781 126.285 40.4017C126.285 40.8253 126.371 41.2445 126.537 41.634C126.704 42.0234 126.947 42.3751 127.254 42.6677C127.56 42.9604 127.922 43.1879 128.319 43.3365C128.715 43.4851 129.138 43.5518 129.561 43.5325H165.786C166.209 43.5518 166.631 43.4851 167.028 43.3365C167.424 43.1879 167.787 42.9604 168.093 42.6677C168.399 42.3751 168.643 42.0234 168.809 41.634C168.976 41.2445 169.062 40.8253 169.062 40.4017C169.062 39.9781 168.976 39.5589 168.809 39.1694C168.643 38.78 168.399 38.4283 168.093 38.1357C167.787 37.8431 167.424 37.6156 167.028 37.4669C166.631 37.3183 166.209 37.2516 165.786 37.2709H172.046C172.876 37.2709 173.673 36.9407 174.261 36.3529C174.848 35.7652 175.179 34.968 175.179 34.1368C175.179 33.3056 174.848 32.5084 174.261 31.9207C173.673 31.3329 172.876 31.0027 172.046 31.0027Z" fill="#252223"/>
<path opacity="0.1" d="M331.949 109.68H327.477C327.9 109.699 328.322 109.633 328.719 109.484C329.115 109.336 329.478 109.108 329.784 108.815C330.09 108.523 330.334 108.171 330.5 107.782C330.667 107.392 330.752 106.973 330.752 106.549C330.752 106.126 330.667 105.707 330.5 105.317C330.334 104.928 330.09 104.576 329.784 104.283C329.478 103.991 329.115 103.763 328.719 103.615C328.322 103.466 327.9 103.399 327.477 103.419H291.252C290.828 103.399 290.406 103.466 290.009 103.615C289.613 103.763 289.251 103.991 288.944 104.283C288.638 104.576 288.395 104.928 288.228 105.317C288.062 105.707 287.976 106.126 287.976 106.549C287.976 106.973 288.062 107.392 288.228 107.782C288.395 108.171 288.638 108.523 288.944 108.815C289.251 109.108 289.613 109.336 290.009 109.484C290.406 109.633 290.828 109.699 291.252 109.68H295.724C294.893 109.68 294.096 110.01 293.508 110.598C292.921 111.186 292.591 111.983 292.591 112.814C292.591 113.645 292.921 114.443 293.508 115.03C294.096 115.618 294.893 115.948 295.724 115.948H289.464C289.041 115.929 288.618 115.996 288.222 116.144C287.825 116.293 287.463 116.521 287.157 116.813C286.851 117.106 286.607 117.457 286.441 117.847C286.274 118.236 286.188 118.656 286.188 119.079C286.188 119.503 286.274 119.922 286.441 120.311C286.607 120.701 286.851 121.053 287.157 121.345C287.463 121.638 287.825 121.865 288.222 122.014C288.618 122.163 289.041 122.229 289.464 122.21H325.689C326.112 122.229 326.535 122.163 326.931 122.014C327.328 121.865 327.69 121.638 327.996 121.345C328.302 121.053 328.546 120.701 328.713 120.311C328.879 119.922 328.965 119.503 328.965 119.079C328.965 118.656 328.879 118.236 328.713 117.847C328.546 117.457 328.302 117.106 327.996 116.813C327.69 116.521 327.328 116.293 326.931 116.144C326.535 115.996 326.112 115.929 325.689 115.948H331.949C332.36 115.948 332.768 115.867 333.148 115.71C333.528 115.552 333.873 115.321 334.164 115.03C334.455 114.739 334.686 114.394 334.843 114.014C335.001 113.633 335.082 113.226 335.082 112.814C335.082 112.403 335.001 111.995 334.843 111.615C334.686 111.235 334.455 110.889 334.164 110.598C333.873 110.307 333.528 110.076 333.148 109.919C332.768 109.761 332.36 109.68 331.949 109.68Z" fill="#252223"/>
<path opacity="0.1" d="M604.304 6.94436H599.832C600.255 6.96365 600.678 6.89696 601.074 6.74832C601.471 6.59968 601.833 6.37218 602.139 6.07955C602.445 5.78693 602.689 5.43526 602.856 5.04578C603.022 4.65631 603.108 4.23711 603.108 3.81352C603.108 3.38993 603.022 2.97074 602.856 2.58127C602.689 2.19179 602.445 1.84012 602.139 1.54749C601.833 1.25487 601.471 1.02737 601.074 0.878732C600.678 0.730093 600.255 0.663406 599.832 0.682695H563.607C563.184 0.663406 562.761 0.730093 562.365 0.878732C561.968 1.02737 561.606 1.25487 561.3 1.54749C560.994 1.84012 560.75 2.19179 560.584 2.58127C560.417 2.97074 560.331 3.38993 560.331 3.81352C560.331 4.23711 560.417 4.65631 560.584 5.04578C560.75 5.43526 560.994 5.78693 561.3 6.07955C561.606 6.37218 561.968 6.59968 562.365 6.74832C562.761 6.89696 563.184 6.96365 563.607 6.94436H568.079C567.248 6.94436 566.451 7.27455 565.864 7.86231C565.276 8.45006 564.946 9.24723 564.946 10.0784C564.946 10.9097 565.276 11.7068 565.864 12.2946C566.451 12.8823 567.248 13.2125 568.079 13.2125H561.819C561.396 13.1932 560.974 13.2599 560.577 13.4086C560.181 13.5572 559.819 13.7847 559.512 14.0773C559.206 14.37 558.963 14.7216 558.796 15.1111C558.63 15.5006 558.544 15.9198 558.544 16.3434C558.544 16.7669 558.63 17.1861 558.796 17.5756C558.963 17.9651 559.206 18.3168 559.512 18.6094C559.819 18.902 560.181 19.1295 560.577 19.2781C560.974 19.4268 561.396 19.4935 561.819 19.4742H598.045C598.468 19.4935 598.89 19.4268 599.287 19.2781C599.683 19.1295 600.046 18.902 600.352 18.6094C600.658 18.3168 600.902 17.9651 601.068 17.5756C601.235 17.1861 601.32 16.7669 601.32 16.3434C601.32 15.9198 601.235 15.5006 601.068 15.1111C600.902 14.7216 600.658 14.37 600.352 14.0773C600.046 13.7847 599.683 13.5572 599.287 13.4086C598.89 13.2599 598.468 13.1932 598.045 13.2125H604.304C605.135 13.2125 605.932 12.8823 606.52 12.2946C607.107 11.7068 607.437 10.9097 607.437 10.0784C607.437 9.24723 607.107 8.45006 606.52 7.86231C605.932 7.27455 605.135 6.94436 604.304 6.94436Z" fill="#252223"/>
<path d="M354.234 347.566L347.634 344.788L343.107 311.716H282.817L277.91 344.653L272.006 347.604C271.723 347.746 271.497 347.978 271.363 348.264C271.229 348.55 271.196 348.873 271.268 349.18C271.341 349.487 271.515 349.761 271.763 349.957C272.01 350.153 272.317 350.26 272.633 350.26H353.69C354.014 350.26 354.328 350.148 354.578 349.943C354.829 349.738 355 349.453 355.064 349.135C355.129 348.818 355.081 348.489 354.929 348.203C354.778 347.917 354.532 347.692 354.234 347.566Z" fill="#E6E6E6"/>
<path d="M461.373 316.116H165.214C163.66 316.113 162.171 315.493 161.073 314.394C159.976 313.294 159.359 311.804 159.359 310.251V268.504H467.227V310.251C467.227 311.804 466.611 313.294 465.513 314.394C464.416 315.493 462.927 316.113 461.373 316.116Z" fill="#CCCCCC"/>
<path d="M467.537 288.234H159.089V109.607C159.091 107.732 159.837 105.935 161.163 104.61C162.489 103.284 164.287 102.538 166.162 102.536H460.463C462.339 102.538 464.136 103.284 465.462 104.61C466.788 105.935 467.534 107.732 467.537 109.607V288.234Z" fill="#3F3D56"/>
<path d="M449.114 275.27H177.511C176.066 275.268 174.68 274.693 173.657 273.671C172.635 272.649 172.06 271.264 172.058 269.819V120.952C172.06 119.507 172.635 118.121 173.657 117.099C174.68 116.077 176.066 115.502 177.511 115.501H449.114C450.56 115.502 451.946 116.077 452.969 117.099C453.991 118.121 454.566 119.507 454.567 120.952V269.819C454.566 271.264 453.991 272.649 452.969 273.671C451.946 274.693 450.56 275.268 449.114 275.27Z" fill="white"/>
<path d="M446.558 350.604H183.559C183.376 350.604 183.2 350.532 183.071 350.402C182.941 350.273 182.868 350.097 182.868 349.914C182.868 349.731 182.941 349.556 183.071 349.426C183.2 349.297 183.376 349.224 183.559 349.224H446.558C446.741 349.224 446.917 349.297 447.046 349.426C447.176 349.556 447.248 349.731 447.248 349.914C447.248 350.097 447.176 350.273 447.046 350.402C446.917 350.532 446.741 350.604 446.558 350.604Z" fill="#CCCCCC"/>
<path d="M423.598 256.773H203.027C202.844 256.773 202.669 256.7 202.539 256.571C202.41 256.441 202.337 256.266 202.337 256.083V150.401C202.337 150.218 202.41 150.043 202.539 149.914C202.669 149.784 202.844 149.711 203.027 149.711C203.21 149.711 203.386 149.784 203.515 149.914C203.645 150.043 203.717 150.218 203.717 150.401V255.393H423.598C423.781 255.393 423.957 255.466 424.086 255.595C424.216 255.724 424.288 255.9 424.288 256.083C424.288 256.266 424.216 256.441 424.086 256.571C423.957 256.7 423.781 256.773 423.598 256.773Z" fill="#3F3D56"/>
<path d="M250.154 249.182H230.092C229.549 249.182 229.028 248.966 228.644 248.582C228.259 248.198 228.043 247.677 228.043 247.134V219.489C228.043 218.946 228.259 218.425 228.644 218.041C229.028 217.657 229.549 217.441 230.092 217.441H250.154C250.697 217.441 251.218 217.657 251.602 218.041C251.986 218.425 252.202 218.946 252.203 219.489V247.134C252.202 247.677 251.986 248.198 251.602 248.582C251.218 248.966 250.697 249.182 250.154 249.182Z" fill="#096BEF"/>
<path d="M286.739 249.182H266.677C266.134 249.182 265.613 248.966 265.229 248.582C264.845 248.198 264.629 247.677 264.628 247.134V193.267C264.629 192.724 264.845 192.204 265.229 191.82C265.613 191.436 266.134 191.22 266.677 191.219H286.739C287.282 191.22 287.803 191.436 288.187 191.82C288.571 192.204 288.788 192.724 288.788 193.267V247.134C288.788 247.677 288.571 248.198 288.187 248.582C287.803 248.966 287.282 249.182 286.739 249.182Z" fill="#096BEF"/>
<path d="M323.324 249.182H303.262C302.719 249.182 302.198 248.966 301.814 248.582C301.43 248.198 301.214 247.677 301.213 247.134V219.489C301.214 218.946 301.43 218.425 301.814 218.041C302.198 217.657 302.719 217.441 303.262 217.441H323.324C323.867 217.441 324.388 217.657 324.772 218.041C325.156 218.425 325.373 218.946 325.373 219.489V247.134C325.373 247.677 325.156 248.198 324.772 248.582C324.388 248.966 323.867 249.182 323.324 249.182Z" fill="#096BEF"/>
<path d="M359.91 249.183H339.848C339.317 249.194 338.803 248.995 338.419 248.628C338.035 248.262 337.812 247.758 337.799 247.227V182.824C337.812 182.294 338.035 181.79 338.419 181.423C338.803 181.057 339.317 180.857 339.848 180.869H359.91C360.44 180.857 360.954 181.057 361.338 181.423C361.722 181.79 361.945 182.294 361.959 182.824V247.227C361.945 247.758 361.722 248.262 361.338 248.628C360.954 248.995 360.44 249.194 359.91 249.183Z" fill="#096BEF"/>
<path d="M396.494 249.183H376.433C375.889 249.182 375.369 248.966 374.984 248.582C374.6 248.198 374.384 247.677 374.384 247.134V164.286C374.384 163.743 374.6 163.223 374.984 162.839C375.369 162.455 375.889 162.239 376.433 162.238H396.494C397.038 162.239 397.559 162.455 397.943 162.839C398.327 163.223 398.543 163.743 398.544 164.286V247.134C398.543 247.677 398.327 248.198 397.943 248.582C397.559 248.966 397.038 249.182 396.494 249.183Z" fill="#096BEF"/>
<path d="M240.123 209.161C242.41 209.161 244.265 207.307 244.265 205.02C244.265 202.734 242.41 200.88 240.123 200.88C237.836 200.88 235.981 202.734 235.981 205.02C235.981 207.307 237.836 209.161 240.123 209.161Z" fill="#3F3D56"/>
<path d="M276.708 182.249C278.996 182.249 280.85 180.396 280.85 178.109C280.85 175.822 278.996 173.969 276.708 173.969C274.421 173.969 272.566 175.822 272.566 178.109C272.566 180.396 274.421 182.249 276.708 182.249Z" fill="#3F3D56"/>
<path d="M313.293 209.161C315.581 209.161 317.435 207.307 317.435 205.02C317.435 202.734 315.581 200.88 313.293 200.88C311.006 200.88 309.152 202.734 309.152 205.02C309.152 207.307 311.006 209.161 313.293 209.161Z" fill="#3F3D56"/>
<path d="M349.879 169.138C352.166 169.138 354.02 167.284 354.02 164.998C354.02 162.711 352.166 160.858 349.879 160.858C347.591 160.858 345.737 162.711 345.737 164.998C345.737 167.284 347.591 169.138 349.879 169.138Z" fill="#3F3D56"/>
<path d="M386.464 153.957C388.751 153.957 390.605 152.104 390.605 149.817C390.605 147.53 388.751 145.677 386.464 145.677C384.176 145.677 382.322 147.53 382.322 149.817C382.322 152.104 384.176 153.957 386.464 153.957Z" fill="#3F3D56"/>
<path d="M313.38 205.948L276.708 178.49L240.537 205.572L239.709 204.468L276.708 176.765L313.206 204.093L349.475 164.417L349.62 164.358L386.206 149.623L386.722 150.903L350.282 165.579L313.38 205.948Z" fill="#3F3D56"/>
</svg>
