<svg width="802" height="568" viewBox="0 0 802 568" fill="none" xmlns="http://www.w3.org/2000/svg">
<path d="M744 471.5H94V472.989H744V471.5Z" fill="#2F2E41"/>
<path opacity="0.3" d="M713.372 277.709V234.928H687.508V277.709H656.88V211.533H634.419V162.068H616.042V111.266H577.927V162.068H559.55V211.533H537.77V152.041H525.518V121.961H518.031V152.041H474.471V341.88H441.12V321.826H420.702V341.88H387.351V277.709H327.456V234.928H301.592V277.709H300.23V359.928H273.005V311.8H240.335V359.928H213.11V211.533H192.01V162.068H114.419V211.533H94V472.895H213.11H300.23H387.351H474.471H537.77H656.88H744V277.709H713.372Z" fill="#096BEF"/>
<path opacity="0.4" d="M135.519 226.907H106.932V242.949H135.519V226.907Z" fill="white"/>
<path opacity="0.4" d="M170.911 242.95H199.497V226.907H170.911V242.95Z" fill="white"/>
<path opacity="0.4" d="M135.519 258.324H106.932V274.366H135.519V258.324Z" fill="white"/>
<path opacity="0.4" d="M170.911 274.366H199.497V258.323H170.911V274.366Z" fill="white"/>
<path opacity="0.4" d="M135.519 289.741H106.932V305.783H135.519V289.741Z" fill="white"/>
<path opacity="0.4" d="M170.911 305.784H199.497V289.741H170.911V305.784Z" fill="white"/>
<path opacity="0.4" d="M135.519 321.158H106.932V337.201H135.519V321.158Z" fill="white"/>
<path opacity="0.4" d="M170.911 337.201H199.497V321.158H170.911V337.201Z" fill="white"/>
<path opacity="0.4" d="M135.519 352.575H106.932V368.617H135.519V352.575Z" fill="white"/>
<path opacity="0.4" d="M170.911 368.618H199.497V352.575H170.911V368.618Z" fill="white"/>
<path opacity="0.4" d="M135.519 383.991H106.932V400.034H135.519V383.991Z" fill="white"/>
<path opacity="0.4" d="M170.911 400.034H199.497V383.991H170.911V400.034Z" fill="white"/>
<path opacity="0.4" d="M135.519 415.409H106.932V431.452H135.519V415.409Z" fill="white"/>
<path opacity="0.4" d="M170.911 431.452H199.497V415.409H170.911V431.452Z" fill="white"/>
<path opacity="0.4" d="M290.021 375.97H223.319V383.992H290.021V375.97Z" fill="white"/>
<path opacity="0.4" d="M290.021 388.002H223.319V396.024H290.021V388.002Z" fill="white"/>
<path opacity="0.4" d="M290.021 400.034H223.319V408.056H290.021V400.034Z" fill="white"/>
<path opacity="0.4" d="M464.262 379.981H397.56V388.003H464.262V379.981Z" fill="white"/>
<path opacity="0.4" d="M464.262 392.013H397.56V400.034H464.262V392.013Z" fill="white"/>
<path opacity="0.4" d="M464.262 404.045H397.56V412.066H464.262V404.045Z" fill="white"/>
<path opacity="0.4" d="M290.021 412.067H223.319V420.088H290.021V412.067Z" fill="white"/>
<path opacity="0.4" d="M290.021 424.099H223.319V432.12H290.021V424.099Z" fill="white"/>
<path opacity="0.4" d="M290.021 436.131H223.319V444.152H290.021V436.131Z" fill="white"/>
<path opacity="0.4" d="M332.901 293.083H314.524V316.479H332.901V293.083Z" fill="white"/>
<path opacity="0.4" d="M354.681 316.479H373.058V293.083H354.681V316.479Z" fill="white"/>
<path opacity="0.4" d="M332.901 330.516H314.524V353.912H332.901V330.516Z" fill="white"/>
<path opacity="0.4" d="M354.681 353.912H373.058V330.517H354.681V353.912Z" fill="white"/>
<path opacity="0.4" d="M332.901 367.949H314.524V391.345H332.901V367.949Z" fill="white"/>
<path opacity="0.4" d="M354.681 391.344H373.058V367.949H354.681V391.344Z" fill="white"/>
<path opacity="0.4" d="M332.901 405.382H314.524V428.778H332.901V405.382Z" fill="white"/>
<path opacity="0.4" d="M354.681 428.778H373.058V405.382H354.681V428.778Z" fill="white"/>
<path opacity="0.4" d="M498.974 167.415H474.471V198.163H498.974V167.415Z" fill="white"/>
<path opacity="0.4" d="M498.974 211.533H474.471V242.281H498.974V211.533Z" fill="white"/>
<path opacity="0.4" d="M498.974 255.65H474.471V286.398H498.974V255.65Z" fill="white"/>
<path opacity="0.4" d="M498.974 299.768H474.471V330.516H498.974V299.768Z" fill="white"/>
<path opacity="0.4" d="M498.974 343.885H474.471V374.634H498.974V343.885Z" fill="white"/>
<path opacity="0.4" d="M498.974 388.002H474.471V418.751H498.974V388.002Z" fill="white"/>
<path opacity="0.4" d="M642.927 230.249H551.722V256.318H642.927V230.249Z" fill="white"/>
<path opacity="0.4" d="M643.267 286.399H552.063V312.468H643.267V286.399Z" fill="white"/>
<path opacity="0.4" d="M643.607 342.548H552.403V368.617H643.607V342.548Z" fill="white"/>
<path opacity="0.4" d="M643.948 398.698H552.743V424.767H643.948V398.698Z" fill="white"/>
<path opacity="0.4" d="M126.67 176.105H114.419V201.506H126.67V176.105Z" fill="white"/>
<path opacity="0.4" d="M744 293.083H713.372V331.853H744V293.083Z" fill="white"/>
<path opacity="0.4" d="M744 349.233H713.372V388.002H744V349.233Z" fill="white"/>
<path opacity="0.4" d="M744 405.382H713.372V444.152H744V405.382Z" fill="white"/>
<path d="M127.807 431.819C127.807 431.819 74.221 463.571 173.001 512.454C173.001 512.454 194.781 472.775 170.7 440.422C166.029 434.114 159.165 429.708 151.407 428.039C143.65 426.369 135.538 427.553 128.61 431.365L127.807 431.819Z" fill="#096BEF"/>
<path d="M190.309 309.5C190.309 316.359 177.663 336.238 177.663 336.238C177.663 336.238 165.01 316.339 165.01 309.5C164.971 307.845 165.269 306.198 165.887 304.657C166.505 303.116 167.431 301.712 168.609 300.528C169.788 299.343 171.195 298.402 172.749 297.759C174.304 297.117 175.973 296.786 177.659 296.786C179.346 296.786 181.015 297.117 182.569 297.759C184.123 298.402 185.531 299.343 186.709 300.528C187.888 301.712 188.813 303.116 189.431 304.657C190.05 306.198 190.348 307.845 190.309 309.5Z" fill="#096BEF"/>
<path d="M211.245 347.508C207.447 353.27 185.817 363.217 185.817 363.217C185.817 363.217 186.205 339.761 190.003 334.006C191.847 331.287 194.708 329.391 197.965 328.729C201.222 328.066 204.614 328.69 207.407 330.465C210.199 332.24 212.168 335.023 212.886 338.213C213.604 341.403 213.015 344.742 211.245 347.508Z" fill="#096BEF"/>
<path d="M210.326 412.461C204.092 415.549 180.304 413.41 180.304 413.41C180.304 413.41 192.698 393.357 198.94 390.269C201.93 388.835 205.376 388.616 208.53 389.659C211.684 390.702 214.292 392.924 215.79 395.843C217.288 398.762 217.554 402.143 216.531 405.253C215.509 408.364 213.279 410.953 210.326 412.461Z" fill="#096BEF"/>
<path d="M198.368 461.451C192.752 465.529 168.944 467.374 168.944 467.374C168.944 467.374 177.704 445.549 183.326 441.471C186.028 439.589 189.374 438.822 192.645 439.335C195.916 439.849 198.852 441.602 200.821 444.218C202.791 446.834 203.637 450.105 203.178 453.327C202.72 456.549 200.992 459.466 198.368 461.451Z" fill="#096BEF"/>
<path d="M159.252 364.547C164.261 369.326 187.613 374.279 187.613 374.279C187.613 374.279 181.896 351.505 176.88 346.726C175.688 345.589 174.281 344.694 172.737 344.092C171.193 343.489 169.544 343.191 167.883 343.215C166.222 343.238 164.582 343.583 163.057 344.229C161.531 344.875 160.151 345.81 158.993 346.98C157.836 348.15 156.924 349.533 156.311 351.049C155.697 352.565 155.394 354.185 155.418 355.816C155.442 357.447 155.793 359.058 156.451 360.556C157.108 362.054 158.06 363.41 159.252 364.547Z" fill="#096BEF"/>
<path d="M146.007 422.013C152.241 425.108 176.029 422.969 176.029 422.969C176.029 422.969 163.635 402.916 157.401 399.827C155.913 399.054 154.284 398.579 152.608 398.432C150.932 398.284 149.243 398.467 147.639 398.968C146.036 399.47 144.55 400.28 143.27 401.352C141.989 402.425 140.939 403.737 140.181 405.213C139.423 406.688 138.973 408.298 138.856 409.946C138.739 411.595 138.959 413.25 139.501 414.814C140.044 416.379 140.898 417.821 142.015 419.058C143.133 420.294 144.489 421.298 146.007 422.013Z" fill="#096BEF"/>
<path d="M140.936 479.607C146.552 483.684 170.367 485.529 170.367 485.529C170.367 485.529 161.6 463.704 155.978 459.627C153.276 457.744 149.93 456.977 146.659 457.491C143.388 458.004 140.452 459.757 138.483 462.374C136.513 464.99 135.667 468.26 136.126 471.482C136.584 474.704 138.312 477.621 140.936 479.607Z" fill="#096BEF"/>
<path opacity="0.25" d="M190.309 309.5C190.309 316.359 177.663 336.238 177.663 336.238C177.663 336.238 165.01 316.339 165.01 309.5C164.971 307.845 165.269 306.198 165.887 304.657C166.505 303.116 167.431 301.712 168.609 300.528C169.788 299.343 171.195 298.402 172.749 297.759C174.304 297.117 175.973 296.786 177.659 296.786C179.346 296.786 181.015 297.117 182.569 297.759C184.123 298.402 185.531 299.343 186.709 300.528C187.888 301.712 188.813 303.116 189.431 304.657C190.05 306.198 190.348 307.845 190.309 309.5Z" fill="black"/>
<path opacity="0.25" d="M211.245 347.508C207.447 353.27 185.817 363.217 185.817 363.217C185.817 363.217 186.205 339.761 190.003 334.006C191.847 331.287 194.708 329.391 197.965 328.729C201.222 328.066 204.614 328.69 207.407 330.465C210.199 332.24 212.168 335.023 212.886 338.213C213.604 341.403 213.015 344.742 211.245 347.508Z" fill="black"/>
<path opacity="0.25" d="M210.326 412.461C204.092 415.549 180.304 413.41 180.304 413.41C180.304 413.41 192.698 393.357 198.94 390.269C201.93 388.835 205.376 388.616 208.53 389.659C211.684 390.702 214.292 392.924 215.79 395.843C217.288 398.762 217.554 402.143 216.531 405.253C215.509 408.364 213.279 410.953 210.326 412.461Z" fill="black"/>
<path opacity="0.25" d="M198.368 461.451C192.752 465.529 168.944 467.374 168.944 467.374C168.944 467.374 177.704 445.549 183.326 441.471C186.028 439.589 189.374 438.822 192.645 439.335C195.916 439.849 198.852 441.602 200.821 444.218C202.791 446.834 203.637 450.105 203.178 453.327C202.72 456.549 200.992 459.466 198.368 461.451Z" fill="black"/>
<path opacity="0.25" d="M159.252 364.547C164.261 369.326 187.613 374.279 187.613 374.279C187.613 374.279 181.896 351.505 176.88 346.726C175.688 345.589 174.281 344.694 172.737 344.092C171.193 343.489 169.544 343.191 167.883 343.215C166.222 343.238 164.582 343.583 163.057 344.229C161.531 344.875 160.151 345.81 158.993 346.98C157.836 348.15 156.924 349.533 156.311 351.049C155.697 352.565 155.394 354.185 155.418 355.816C155.442 357.447 155.793 359.058 156.451 360.556C157.108 362.054 158.06 363.41 159.252 364.547Z" fill="black"/>
<path opacity="0.25" d="M146.007 422.013C152.241 425.108 176.029 422.969 176.029 422.969C176.029 422.969 163.635 402.916 157.401 399.827C155.913 399.054 154.284 398.579 152.608 398.432C150.932 398.284 149.243 398.467 147.639 398.968C146.036 399.47 144.55 400.28 143.27 401.352C141.989 402.425 140.939 403.737 140.181 405.213C139.423 406.688 138.973 408.298 138.856 409.946C138.739 411.595 138.959 413.25 139.501 414.814C140.044 416.379 140.898 417.821 142.015 419.058C143.133 420.294 144.489 421.298 146.007 422.013Z" fill="black"/>
<path d="M699.609 499.8C699.609 499.8 682.818 443.811 702.761 402.602C711.125 385.309 713.909 365.89 710.043 347.12C708.19 338.21 705.514 329.484 702.046 321.051" stroke="#535461" stroke-width="2" stroke-miterlimit="10"/>
<path d="M714.454 295.042C714.454 301.9 701.801 321.779 701.801 321.779C701.801 321.779 689.148 301.88 689.148 295.042C689.148 291.746 690.481 288.585 692.854 286.255C695.227 283.924 698.445 282.615 701.801 282.615C705.157 282.615 708.375 283.924 710.748 286.255C713.121 288.585 714.454 291.746 714.454 295.042Z" fill="#096BEF"/>
<path d="M735.363 333.05C731.565 338.812 709.935 348.758 709.935 348.758C709.935 348.758 710.33 325.302 714.128 319.547C715.951 316.782 718.818 314.841 722.098 314.151C725.379 313.462 728.804 314.08 731.62 315.871C734.436 317.661 736.412 320.477 737.114 323.699C737.816 326.921 737.186 330.284 735.363 333.05Z" fill="#096BEF"/>
<path d="M734.451 398.003C728.209 401.091 704.421 398.952 704.421 398.952C704.421 398.952 716.822 378.899 723.057 375.81C726.054 374.326 729.527 374.072 732.715 375.104C735.902 376.136 738.541 378.369 740.052 381.312C741.563 384.254 741.822 387.666 740.771 390.797C739.721 393.927 737.447 396.519 734.451 398.003Z" fill="#096BEF"/>
<path d="M722.492 446.993C716.87 451.071 693.062 452.916 693.062 452.916C693.062 452.916 701.828 431.091 707.443 427.013C710.143 425.085 713.509 424.282 716.808 424.78C720.108 425.278 723.073 427.037 725.059 429.672C727.044 432.308 727.888 435.608 727.407 438.852C726.926 442.096 725.16 445.022 722.492 446.993Z" fill="#096BEF"/>
<path d="M683.37 350.068C688.386 354.848 711.731 359.801 711.731 359.801C711.731 359.801 706.014 337.027 701.005 332.248C699.819 331.084 698.409 330.163 696.858 329.539C695.307 328.915 693.645 328.599 691.968 328.611C690.292 328.623 688.635 328.962 687.093 329.609C685.551 330.255 684.155 331.196 682.987 332.377C681.819 333.557 680.901 334.954 680.287 336.487C679.673 338.019 679.375 339.655 679.411 341.301C679.446 342.947 679.814 344.57 680.494 346.075C681.174 347.58 682.151 348.938 683.37 350.068Z" fill="#096BEF"/>
<path d="M670.152 407.555C676.393 410.65 700.181 408.511 700.181 408.511C700.181 408.511 687.787 388.457 681.545 385.369C680.058 384.595 678.429 384.121 676.753 383.973C675.077 383.826 673.388 384.008 671.784 384.51C670.181 385.011 668.695 385.822 667.415 386.894C666.134 387.966 665.084 389.279 664.326 390.754C663.569 392.23 663.118 393.839 663.001 395.488C662.884 397.137 663.104 398.792 663.646 400.356C664.189 401.921 665.043 403.363 666.16 404.599C667.278 405.835 668.634 406.84 670.152 407.555Z" fill="#096BEF"/>
<path d="M665.054 465.148C670.676 469.225 694.484 471.07 694.484 471.07C694.484 471.07 685.718 449.252 680.103 445.168C677.403 443.24 674.037 442.437 670.737 442.935C667.438 443.433 664.472 445.191 662.487 447.827C660.502 450.463 659.658 453.762 660.139 457.007C660.619 460.251 662.386 463.177 665.054 465.148Z" fill="#096BEF"/>
<path d="M623.869 494.352C623.869 494.352 614.844 464.272 625.564 442.12C630.115 432.859 631.488 422.399 629.477 412.307C628.481 407.522 627.041 402.837 625.176 398.31" stroke="#535461" stroke-width="2" stroke-miterlimit="10"/>
<path d="M631.846 384.313C631.846 388.002 625.04 398.698 625.04 398.698C625.04 398.698 618.234 388.002 618.234 384.313C618.234 382.54 618.951 380.84 620.227 379.586C621.504 378.332 623.235 377.628 625.04 377.628C626.845 377.628 628.576 378.332 629.853 379.586C631.129 380.84 631.846 382.54 631.846 384.313Z" fill="#096BEF"/>
<path d="M643.083 404.74C641.041 407.835 629.416 413.183 629.416 413.183C629.416 413.183 629.627 400.576 631.669 397.481C632.687 396.081 634.215 395.121 635.936 394.799C637.656 394.478 639.437 394.82 640.907 395.755C642.377 396.69 643.424 398.146 643.829 399.819C644.235 401.493 643.967 403.255 643.083 404.74Z" fill="#096BEF"/>
<path d="M642.594 439.64C639.238 441.298 626.456 440.148 626.456 440.148C626.456 440.148 633.119 429.373 636.468 427.715C638.067 427.005 639.883 426.93 641.538 427.504C643.192 428.078 644.557 429.257 645.347 430.796C646.138 432.334 646.292 434.113 645.779 435.761C645.266 437.409 644.125 438.799 642.594 439.64Z" fill="#096BEF"/>
<path d="M636.161 465.97C633.146 468.163 620.35 469.152 620.35 469.152C620.35 469.152 625.06 457.428 628.082 455.235C628.795 454.656 629.62 454.226 630.508 453.971C631.396 453.716 632.327 453.642 633.245 453.752C634.163 453.862 635.049 454.155 635.848 454.613C636.647 455.071 637.342 455.683 637.892 456.414C638.442 457.144 638.834 457.977 639.045 458.862C639.256 459.746 639.282 460.663 639.12 461.558C638.958 462.452 638.612 463.305 638.103 464.063C637.594 464.822 636.934 465.471 636.161 465.97Z" fill="#096BEF"/>
<path d="M615.143 413.898C617.865 416.465 630.382 419.126 630.382 419.126C630.382 419.126 627.313 406.886 624.617 404.319C623.988 403.66 623.228 403.132 622.385 402.769C621.542 402.405 620.633 402.214 619.712 402.206C618.791 402.198 617.878 402.373 617.029 402.721C616.179 403.07 615.41 403.584 614.768 404.232C614.127 404.881 613.626 405.651 613.296 406.495C612.966 407.339 612.814 408.24 612.849 409.144C612.884 410.048 613.106 410.935 613.5 411.752C613.894 412.569 614.453 413.299 615.143 413.898Z" fill="#096BEF"/>
<path d="M608.024 444.78C611.379 446.438 624.162 445.295 624.162 445.295C624.162 445.295 617.498 434.519 614.143 432.855C612.544 432.146 610.727 432.07 609.073 432.644C607.419 433.218 606.054 434.397 605.263 435.936C604.473 437.474 604.318 439.253 604.831 440.901C605.344 442.549 606.486 443.939 608.017 444.78H608.024Z" fill="#096BEF"/>
<path opacity="0.1" d="M441.583 224.019H436.9C437.343 224.039 437.786 223.97 438.201 223.817C438.616 223.665 438.995 223.431 439.316 223.13C439.636 222.829 439.892 222.467 440.066 222.067C440.24 221.667 440.33 221.236 440.33 220.8C440.33 220.365 440.24 219.934 440.066 219.534C439.892 219.133 439.636 218.772 439.316 218.471C438.995 218.17 438.616 217.936 438.201 217.783C437.786 217.63 437.343 217.562 436.9 217.582H398.969C398.526 217.562 398.083 217.63 397.668 217.783C397.253 217.936 396.874 218.17 396.553 218.471C396.232 218.772 395.977 219.133 395.803 219.534C395.629 219.934 395.539 220.365 395.539 220.8C395.539 221.236 395.629 221.667 395.803 222.067C395.977 222.467 396.232 222.829 396.553 223.13C396.874 223.431 397.253 223.665 397.668 223.817C398.083 223.97 398.526 224.039 398.969 224.019H403.651C402.781 224.019 401.947 224.358 401.332 224.963C400.716 225.567 400.371 226.386 400.371 227.241C400.371 228.095 400.716 228.915 401.332 229.519C401.947 230.123 402.781 230.463 403.651 230.463H397.097C396.654 230.443 396.212 230.511 395.796 230.664C395.381 230.817 395.002 231.051 394.681 231.352C394.361 231.653 394.106 232.014 393.931 232.414C393.757 232.815 393.667 233.246 393.667 233.681C393.667 234.117 393.757 234.548 393.931 234.948C394.106 235.348 394.361 235.71 394.681 236.011C395.002 236.312 395.381 236.545 395.796 236.698C396.212 236.851 396.654 236.92 397.097 236.9H435.028C435.471 236.92 435.914 236.851 436.329 236.698C436.744 236.545 437.124 236.312 437.444 236.011C437.765 235.71 438.02 235.348 438.194 234.948C438.369 234.548 438.458 234.117 438.458 233.681C438.458 233.246 438.369 232.815 438.194 232.414C438.02 232.014 437.765 231.653 437.444 231.352C437.124 231.051 436.744 230.817 436.329 230.664C435.914 230.511 435.471 230.443 435.028 230.463H441.583C442.014 230.463 442.44 230.379 442.838 230.217C443.236 230.056 443.598 229.818 443.903 229.519C444.207 229.22 444.449 228.865 444.614 228.474C444.779 228.083 444.864 227.664 444.864 227.241C444.864 226.818 444.779 226.399 444.614 226.008C444.449 225.617 444.207 225.262 443.903 224.963C443.598 224.663 443.236 224.426 442.838 224.264C442.44 224.102 442.014 224.019 441.583 224.019Z" fill="#252223"/>
<path opacity="0.1" d="M280.234 121.505H275.552C275.994 121.525 276.437 121.456 276.852 121.303C277.267 121.15 277.647 120.916 277.967 120.616C278.288 120.315 278.543 119.953 278.717 119.553C278.892 119.153 278.982 118.722 278.982 118.286C278.982 117.851 278.892 117.42 278.717 117.019C278.543 116.619 278.288 116.257 277.967 115.957C277.647 115.656 277.267 115.422 276.852 115.269C276.437 115.116 275.994 115.048 275.552 115.068H237.62C237.177 115.048 236.735 115.116 236.32 115.269C235.904 115.422 235.525 115.656 235.204 115.957C234.884 116.257 234.629 116.619 234.454 117.019C234.28 117.42 234.19 117.851 234.19 118.286C234.19 118.722 234.28 119.153 234.454 119.553C234.629 119.953 234.884 120.315 235.204 120.616C235.525 120.916 235.904 121.15 236.32 121.303C236.735 121.456 237.177 121.525 237.62 121.505H242.303C241.433 121.505 240.598 121.844 239.983 122.448C239.368 123.053 239.022 123.872 239.022 124.727C239.022 125.581 239.368 126.401 239.983 127.005C240.598 127.609 241.433 127.949 242.303 127.949H235.748C235.305 127.929 234.863 127.997 234.448 128.15C234.033 128.303 233.653 128.537 233.333 128.838C233.012 129.138 232.757 129.5 232.583 129.9C232.408 130.301 232.318 130.732 232.318 131.167C232.318 131.603 232.408 132.033 232.583 132.434C232.757 132.834 233.012 133.196 233.333 133.497C233.653 133.797 234.033 134.031 234.448 134.184C234.863 134.337 235.305 134.405 235.748 134.386H273.68C274.123 134.405 274.565 134.337 274.98 134.184C275.396 134.031 275.775 133.797 276.096 133.497C276.416 133.196 276.671 132.834 276.846 132.434C277.02 132.033 277.11 131.603 277.11 131.167C277.11 130.732 277.02 130.301 276.846 129.9C276.671 129.5 276.416 129.138 276.096 128.838C275.775 128.537 275.396 128.303 274.98 128.15C274.565 127.997 274.123 127.929 273.68 127.949H280.234C281.104 127.949 281.939 127.609 282.554 127.005C283.169 126.401 283.515 125.581 283.515 124.727C283.515 123.872 283.169 123.053 282.554 122.448C281.939 121.844 281.104 121.505 280.234 121.505Z" fill="#252223"/>
<path opacity="0.1" d="M725.175 148.095H720.492C720.935 148.115 721.378 148.046 721.793 147.893C722.208 147.741 722.588 147.507 722.908 147.206C723.229 146.905 723.484 146.544 723.658 146.143C723.833 145.743 723.922 145.312 723.922 144.876C723.922 144.441 723.833 144.01 723.658 143.61C723.484 143.209 723.229 142.848 722.908 142.547C722.588 142.246 722.208 142.012 721.793 141.859C721.378 141.707 720.935 141.638 720.492 141.658H682.561C682.118 141.638 681.676 141.707 681.26 141.859C680.845 142.012 680.466 142.246 680.145 142.547C679.825 142.848 679.57 143.209 679.395 143.61C679.221 144.01 679.131 144.441 679.131 144.876C679.131 145.312 679.221 145.743 679.395 146.143C679.57 146.544 679.825 146.905 680.145 147.206C680.466 147.507 680.845 147.741 681.26 147.893C681.676 148.046 682.118 148.115 682.561 148.095H687.244C686.374 148.095 685.539 148.434 684.924 149.039C684.309 149.643 683.963 150.462 683.963 151.317C683.963 152.171 684.309 152.991 684.924 153.595C685.539 154.199 686.374 154.539 687.244 154.539H680.689C680.246 154.519 679.804 154.588 679.389 154.74C678.974 154.893 678.594 155.127 678.274 155.428C677.953 155.729 677.698 156.09 677.523 156.491C677.349 156.891 677.259 157.322 677.259 157.757C677.259 158.193 677.349 158.624 677.523 159.024C677.698 159.425 677.953 159.786 678.274 160.087C678.594 160.388 678.974 160.622 679.389 160.774C679.804 160.927 680.246 160.996 680.689 160.976H718.621C719.064 160.996 719.506 160.927 719.921 160.774C720.336 160.622 720.716 160.388 721.036 160.087C721.357 159.786 721.612 159.425 721.786 159.024C721.961 158.624 722.051 158.193 722.051 157.757C722.051 157.322 721.961 156.891 721.786 156.491C721.612 156.09 721.357 155.729 721.036 155.428C720.716 155.127 720.336 154.893 719.921 154.74C719.506 154.588 719.064 154.519 718.621 154.539H725.175C726.045 154.539 726.88 154.199 727.495 153.595C728.11 152.991 728.456 152.171 728.456 151.317C728.456 150.462 728.11 149.643 727.495 149.039C726.88 148.434 726.045 148.095 725.175 148.095Z" fill="#252223"/>
<path d="M605.302 475.736C608.317 477.928 621.113 478.918 621.113 478.918C621.113 478.918 616.382 467.186 613.388 464.994C611.933 464.023 610.153 463.642 608.419 463.932C606.685 464.221 605.133 465.159 604.087 466.548C603.042 467.937 602.584 469.669 602.811 471.382C603.037 473.095 603.93 474.655 605.302 475.736Z" fill="#096BEF"/>
<path d="M127.854 431.023C127.854 431.023 173.708 465.481 172.429 512.326" stroke="#535461" stroke-miterlimit="10"/>
<path d="M174.919 514.131C174.919 514.131 158.128 458.142 178.07 416.932C186.435 399.639 189.212 380.221 185.346 361.451C183.5 352.539 180.823 343.812 177.349 335.382" stroke="#535461" stroke-width="2" stroke-miterlimit="10"/>
<path opacity="0.25" d="M140.364 479.479C145.98 483.556 169.795 485.401 169.795 485.401C169.795 485.401 161.028 463.576 155.406 459.499C152.704 457.616 149.358 456.849 146.087 457.363C142.816 457.876 139.88 459.63 137.911 462.246C135.941 464.862 135.095 468.132 135.554 471.354C136.012 474.577 137.74 477.494 140.364 479.479Z" fill="black"/>
<path d="M257.467 312.595V135.951" stroke="#3A89F2" stroke-width="2" stroke-dasharray="3 3"/>
<path d="M315.254 235.028L315.254 183.155" stroke="#3A89F2" stroke-width="2" stroke-dasharray="3 3"/>
<path d="M700.474 234.719L700.474 160.647" stroke="#3A89F2" stroke-width="2" stroke-dasharray="3 3"/>
<path d="M434.399 62.2233L434.08 60.6833C433.817 59.8951 433.406 59.1643 432.87 58.5299L431.909 56.9516C431.689 55.3263 431.136 53.7643 430.285 52.3637C429.356 50.8749 429.203 49.0921 428.948 47.3924C429.337 46.4147 428.993 45.5074 428.56 44.6256C428.127 43.7438 428.197 42.6128 428.012 41.6032V41.5456L427.751 40.6638C426.879 39.1175 426.261 37.4689 425.122 36.044L425.192 35.8075L424.988 35.667C424.886 35.6222 424.79 35.5519 424.663 35.5903C424.599 35.5264 424.523 35.5456 424.447 35.5903H424.389L423.568 36.6574C423.097 37.2849 422.771 38.0095 422.613 38.7788C422.527 38.9365 422.475 39.1107 422.46 39.29C422.161 40.2741 421.874 41.2645 421.511 42.2294C421.193 43.0664 420.728 43.8588 420.333 44.6703C419.396 46.1093 419.066 47.8629 419.416 49.5458C419.875 51.6289 419.092 53.3797 418.098 55.1497C418.038 55.2978 417.993 55.452 417.965 55.6098C417.799 56.6513 416.831 57.4692 416.946 58.5874C416.991 58.9708 417.029 59.3478 417.073 59.7312L417.143 60.0827L415.488 61.5651C415.487 61.6233 415.471 61.6803 415.443 61.7312L415.488 61.5651L415.297 61.9485L415.214 62.0955L414.889 62.7345C414.889 63.2137 414.845 63.6865 414.819 64.1658V64.7281H415.507H415.972H416.717H416.946H417.869H419.83H421.327H421.9H422.651H423.288H423.924H424.389L426.401 64.76H426.631H427.497H428.261H429.006H430.101H430.171H430.75H431.61L431.533 64.7153C431.561 64.7263 431.587 64.7414 431.61 64.76H432.189H432.826H434.157L434.437 61.9038L434.399 62.2233Z" fill="#EAC98F"/>
<path d="M434.437 62.224L434.125 60.6841C433.857 59.8981 433.447 59.1683 432.916 58.5307L431.948 56.9524C431.727 55.3282 431.177 53.7667 430.331 52.3645C429.401 50.8756 429.248 49.0929 428.987 47.3932C429.375 46.4155 429.032 45.5081 428.599 44.6263C428.166 43.7445 428.242 42.6135 428.051 41.6039V41.5464L427.79 40.6646C426.918 39.1247 426.3 37.4697 425.16 36.0447C425.16 35.9617 424.619 64.9397 424.619 64.9397L426.447 64.9717H426.682H427.542H428.261H429.013H430.101H430.171H430.751H431.617L431.534 64.927L431.617 64.9717H432.19H432.826H434.151L434.431 62.1154L434.437 62.224Z" fill="#7A7565"/>
<path d="M424.441 35.5456C424.441 35.5456 423.256 41.4754 422.849 42.5744C422.328 43.8383 421.959 45.1595 421.747 46.5106C421.696 47.5074 421.747 49.1624 421.2 50.3445C420.652 51.5266 419.818 53.8398 419.818 53.8398L421.092 52.2615L423.263 48.8876L424.441 40.1782L424.504 36.3443L424.441 35.5456Z" fill="#F3D199"/>
<path d="M431.152 58.8757C430.767 57.9097 430.488 56.905 430.318 55.8788C430.216 54.735 430.375 53.6935 429.745 52.7414C429.114 51.7893 427.694 50.588 427.376 49.1567C427.058 47.7254 428.013 46.6007 427.777 44.9138C427.542 43.2269 426.727 42.9393 426.364 40.9074C426.058 39.4534 425.568 38.0447 424.906 36.7156L425.67 45.5017L426.338 60.6457L431.152 58.8757Z" fill="#96896A"/>
<path d="M427.625 54.3836C427.625 54.3836 428.115 53.3293 428.618 53.6999C429.019 53.9938 429.14 54.9779 429.083 55.4316C429.05 55.7319 428.993 56.029 428.911 56.3197V57.5977L429.955 59.5147L429.248 59.7639L427.466 56.9268L427.625 54.3836Z" fill="#4A4036"/>
<path d="M420.143 52.8437C419.799 53.2993 419.543 53.8149 419.386 54.3644C419.29 55.0034 418.927 56.4603 418.927 56.4603L420.716 61.5722L422.047 64.0898L421.894 64.8438L423.913 64.8758L424.881 61.8214L422.117 56.9204L420.143 52.8437Z" fill="#F4D698"/>
<path d="M424.441 35.5456C424.934 36.4757 425.313 37.4628 425.568 38.4849C425.778 39.6734 425.479 41.6799 425.784 42.5808C426.13 43.4255 426.404 44.2975 426.606 45.1879C426.725 45.9538 426.707 46.7348 426.555 47.4946L425.377 49.9356L423.581 51.1241L424.403 41.3604L424.441 35.5456Z" fill="#E9CB96"/>
<path d="M430.719 64.9972C430.719 64.9972 430.795 60.9908 429.955 59.6425C429.114 58.2942 428.35 58.2623 428.045 57.3933C427.739 56.5242 427.911 54.5689 427.822 53.144C427.733 51.7191 426.612 50.5881 426.376 49.5465C426.302 48.579 426.397 47.6058 426.657 46.6711L424.524 50.9075L423.607 54.0514L427.172 59.1633L428.656 62.9972L428.019 64.9141L430.719 64.9972Z" fill="#837358"/>
<path d="M425.205 44.2621C425.408 45.1004 425.529 45.9563 425.568 46.818C425.387 48.1023 424.936 49.3331 424.244 50.4283C423.913 50.9139 423.881 52.6775 423.881 52.6775L424.568 56.5881L428.796 61.3741L428.421 64.0004L427.784 64.9652L423.913 64.8949L425.059 62.1026L423.257 58.1664L421.308 54.6328L421.894 52.0002L423.454 49.4954L425.205 44.2621Z" fill="#836E53"/>
<path d="M419.271 54.8501C418.839 55.3026 418.498 55.834 418.265 56.4156C418.107 57.2945 418.267 58.201 418.717 58.9716C419.258 59.8789 419.914 61.1697 419.87 62.1346C419.895 62.8399 419.88 63.546 419.825 64.2496C419.723 64.5947 419.672 64.8119 419.672 64.8119L422.856 64.8694C422.856 64.8694 423.053 62.633 422.34 61.4125C421.627 60.192 420.15 59.0483 419.793 58.0514C419.527 57.0016 419.352 55.9304 419.271 54.8501Z" fill="#C39563"/>
<path d="M428.262 64.9525C428.647 64.3356 428.963 63.6777 429.204 62.9908C429.31 61.9997 429.122 60.9992 428.663 60.1153C427.722 58.4665 426.658 56.8922 425.479 55.406C424.581 54.4731 424.04 53.5465 424.314 52.3325C424.61 51.2401 424.989 50.172 425.447 49.1375C424.627 49.926 423.931 50.8353 423.384 51.8341C422.913 52.9778 422.467 53.9427 423.512 55.8022C424.556 57.6616 426.752 59.8086 427.154 60.5307C427.555 61.2527 428.185 62.0195 428.166 62.9908C428.138 63.6424 428.022 64.2872 427.822 64.9077L428.262 64.9525Z" fill="#F6DEA7"/>
<path d="M425.829 49.6232C425.848 50.1193 425.816 50.6161 425.733 51.1056C425.612 51.5976 425.205 52.9012 425.39 53.5146C425.538 54.1855 425.782 54.8313 426.115 55.4316C426.528 55.9889 426.981 56.5144 427.472 57.0035C426.884 56.0917 426.465 55.0807 426.236 54.0194C426.103 52.7414 426.434 52.6456 426.466 51.7574C426.399 51.0102 426.182 50.2842 425.829 49.6232Z" fill="#E6BC82"/>
<path d="M424.874 38.4728C424.673 39.2747 424.581 40.1 424.6 40.9265C424.708 41.8147 425.339 44.3195 425.237 45.3994C425.054 47.2683 424.374 49.0536 423.269 50.5688C422.359 51.8085 421.359 53.1951 421.474 54.0322C421.627 55.0155 422.035 55.941 422.658 56.7159C423.467 57.4244 424.18 58.2365 424.778 59.1313C425.434 60.3334 425.659 61.7252 425.415 63.0738C425.177 63.7928 424.734 64.426 424.142 64.8949H423.575C423.575 64.8949 424.638 63.3997 424.415 62.0962C424.093 60.7044 423.437 59.4125 422.505 58.3325C421.83 57.636 421.295 56.9907 421.295 56.9907L420.117 54.4347L422.231 50.4474L423.18 48.3516L423.849 43.0735C423.849 43.0735 424.173 39.2396 424.282 38.5367L424.46 37.4377L424.638 37.2332L424.874 38.4728Z" fill="#EBBE83"/>
<path d="M421.295 56.9716C421.295 56.9716 420.48 54.8501 420.849 53.6552C421.25 52.5279 421.84 51.4776 422.594 50.5498C423.366 49.5961 423.891 48.4656 424.122 47.259C424.339 46.114 424.313 44.9362 424.046 43.802C423.925 43.2909 423.848 43.0353 423.848 43.0353C423.848 43.0353 423.562 46.0002 423.352 46.9842C423.041 48.5392 422.367 49.9978 421.384 51.2399C420.245 52.5178 419.882 53.1568 419.786 53.7958C419.712 54.247 419.749 54.7096 419.894 55.143C420.04 55.5764 420.289 55.9674 420.62 56.2815L421.295 56.9716Z" fill="#AB8A64"/>
<path d="M426.39 47.9937C426.263 48.4084 426.193 48.8382 426.18 49.2717C426.198 49.8558 426.314 50.4327 426.524 50.9778C426.838 51.5851 426.998 52.2613 426.988 52.9459C426.875 53.6276 426.84 54.3202 426.886 55.0098C426.981 55.4213 427.147 55.8129 427.377 56.1664C427.377 56.1664 427.53 55.5721 427.619 55.0354C427.783 54.1811 427.837 53.3091 427.778 52.4411C427.638 51.8724 426.988 50.6583 426.836 50.2557C426.653 49.7626 426.527 49.2503 426.46 48.7286C426.422 48.2877 426.39 47.9937 426.39 47.9937Z" fill="#DBBE8B"/>
<path d="M424.95 58.0387C425.42 58.7009 425.759 59.447 425.95 60.2368C426.109 61.272 426.517 63.0036 426.09 63.8151C425.663 64.6266 425.453 64.9078 425.453 64.9078H427.039C427.344 64.0506 427.436 63.1314 427.306 62.2304C427.001 61.1679 426.542 60.156 425.943 59.2272C425.593 58.7671 424.95 58.0387 424.95 58.0387Z" fill="#3A4349"/>
<path d="M429.038 55.6169C429.166 56.12 429.361 56.6035 429.617 57.0546C430.161 57.6338 430.673 58.2417 431.152 58.8757C431.728 59.6781 432.159 60.5757 432.425 61.5275C432.608 62.3678 432.628 63.2358 432.483 64.0835C432.317 64.6586 432.171 65.0547 432.171 65.0547H430.566C430.566 65.0547 430.375 60.5499 429.968 59.7064C429.56 58.8629 428.853 58.2431 428.694 57.5339C428.557 57.119 428.557 56.6707 428.694 56.2559C428.793 56.035 428.908 55.8214 429.038 55.6169Z" fill="#D2AC75"/>
<path d="M430.171 60.6841C430.274 61.6206 430.274 62.5656 430.171 63.5021C429.967 64.1411 429.636 64.9845 429.636 64.9845H430.559C430.693 64.2229 430.759 63.451 430.757 62.6778C430.732 62.2775 430.675 61.88 430.585 61.4893C430.479 61.2056 430.34 60.9353 430.171 60.6841Z" fill="#33393F"/>
<path d="M425.268 74.8951L397.093 90.3778L421.321 106.64L449.426 93.0679L425.268 74.8951Z" fill="#606060"/>
<path d="M410.821 96.7805L395.215 419.085L421.741 415.692L424.6 87.3874L410.821 96.7805Z" fill="#EEEEEE"/>
<path d="M438.71 96.2884C438.71 96.2884 435.864 96.8763 435.781 98.9786C435.699 101.081 446.014 419.111 446.014 419.111L421.742 415.718L424.601 87.4129L438.71 96.2884Z" fill="#868686"/>
<path d="M288.01 419.086L429.828 405.347L550.455 425.213L552.55 428.952L429.598 410.255L285.45 422.645L288.01 419.086Z" fill="#EBEBEB"/>
<path d="M292.098 431.277L285.45 422.645L429.598 410.255V421.993L292.098 431.277Z" fill="#AFAFAF"/>
<path d="M547.253 436.932L552.55 428.951L429.599 410.255V421.993L547.253 436.932Z" fill="#656565"/>
<path d="M424.6 472.07C423.749 465.544 423.749 458.935 424.6 452.409C426.046 442.089 429.599 421.993 429.599 421.993L292.066 431.277C298.699 431.112 305.315 432.024 311.658 433.98C321.451 437.175 367 472.07 367 472.07H424.6Z" fill="#A3A3A3"/>
<path d="M481.186 471.54C481.186 471.54 490.183 459.738 506.438 450.019C522.694 440.3 526.813 438.517 530.997 438.044C534.626 437.635 547.252 436.932 547.252 436.932L429.598 421.974C429.598 421.974 425.708 444.415 424.6 452.39C423.751 458.916 423.751 465.525 424.6 472.051L481.186 471.54Z" fill="#414141"/>
<path d="M394.808 85.7004L397.093 90.3778L425.269 74.8951V68.1794L394.808 85.7004Z" fill="#D6D6D6"/>
<path d="M452.323 87.3873L449.426 93.0679L425.269 74.8951V68.1794L452.323 87.3873Z" fill="#818181"/>
<path d="M397.552 81.4511L394.808 85.7004L425.269 68.1794V66.0388L397.552 81.4511Z" fill="#F7F7F7"/>
<path d="M449.114 83.8154L425.269 66.0388V68.1794L452.323 87.3873L449.114 83.8154Z" fill="#AFAFAF"/>
<path d="M400.749 78.0773L401.462 79.2786L425.269 66.0388V64.1857L400.749 78.0773Z" fill="#7C7C7C"/>
<path d="M446.007 80.0454L445.236 80.9272L425.269 66.0388V64.1857L446.007 80.0454Z" fill="#525252"/>
<path d="M449.84 76.7163L425.269 57.2655V64.1857L446.007 80.0454L449.84 76.7163Z" fill="#787878"/>
<path d="M397.093 74.1412L400.748 78.0773L425.268 64.1857V57.2655L397.093 74.1412Z" fill="#AFAFAF"/>
<path d="M421.894 44.9275C421.894 44.9275 420.359 46.9243 420.105 48.1474C419.85 49.3704 419.423 51.2674 419.423 51.2674C419.504 50.7679 419.519 50.2604 419.468 49.7573C419.366 49.1333 419.035 47.567 419.379 46.5125C419.723 45.4579 420.958 43.4549 421.461 42.0072C421.964 40.5595 422.448 38.4566 423.065 37.2648C423.45 36.5503 423.968 35.9132 424.593 35.3866L421.894 44.9275Z" fill="#F7E3A9"/>
<path d="M300.693 430.702L308.97 431.929L426.147 424.421L427.261 422.153L300.693 430.702Z" fill="#757575"/>
<path d="M431.088 422.184V424.197L529.36 436.932L537.982 435.757L431.088 422.184Z" fill="#2F2F2F"/>
<path opacity="0.1" d="M682.616 472.595C677.77 475.048 672.693 477.167 667.69 479.246C649.184 486.913 630.392 494.66 610.517 497.294C573.171 502.207 527.609 480.307 490.924 488.65C460.193 495.615 434.779 516.958 404.756 526.464C390.796 530.882 376.272 532.613 361.618 532.613H359.726C357.922 532.613 356.125 532.546 354.321 532.48C339.463 531.931 324.544 529.806 309.979 527.018C263.989 518.329 217.182 502.399 182.021 473.075C285.518 473.074 500.25 472.595 682.616 472.595Z" fill="#252223"/>
</svg>
