<svg width="650" height="474" viewBox="0 0 650 474" fill="none" xmlns="http://www.w3.org/2000/svg">
<g clip-path="url(#clip0)">
<path opacity="0.1" d="M583.686 404.137C578.84 406.636 573.763 408.794 568.76 410.912C550.254 418.721 531.462 426.612 511.587 429.294C474.241 434.299 435.711 420.682 399.025 429.179C368.295 436.273 342.88 458.013 312.858 467.694C298.898 472.195 284.373 473.958 269.719 473.958H267.827C266.024 473.958 264.227 473.89 262.423 473.822C247.565 473.264 232.646 471.099 218.08 468.259C172.09 459.408 125.283 443.184 90.1221 413.315C192.502 394.598 403.395 365.88 583.686 404.137Z" fill="#252223"/>
<path opacity="0.3" d="M619.372 180.171V136.597H593.508V180.171H562.88V112.767H540.419V62.3843H522.042V10.6396H483.927V62.3843H465.55V112.767H443.77V52.1715H431.518V21.5332H424.031V52.1715H380.471V245.533H347.12V225.107H326.702V245.533H293.351V180.171H233.456V136.597H207.592V180.171H206.23V263.916H179.005V214.895H146.335V263.916H119.11V112.767H98.0105V62.3843H20.4188V112.767H0V378.98H119.11H206.23H293.351H380.471H443.77H562.88H650V180.171H619.372Z" fill="#096BEF"/>
<path opacity="0.4" d="M41.5183 128.427H12.9319V144.767H41.5183V128.427Z" fill="white"/>
<path opacity="0.4" d="M76.9109 144.767H105.497V128.427H76.9109V144.767Z" fill="white"/>
<path opacity="0.4" d="M41.5183 160.427H12.9319V176.767H41.5183V160.427Z" fill="white"/>
<path opacity="0.4" d="M76.9109 176.767H105.497V160.427H76.9109V176.767Z" fill="white"/>
<path opacity="0.4" d="M41.5183 192.427H12.9319V208.767H41.5183V192.427Z" fill="white"/>
<path opacity="0.4" d="M76.9109 208.767H105.497V192.427H76.9109V208.767Z" fill="white"/>
<path opacity="0.4" d="M41.5183 224.427H12.9319V240.767H41.5183V224.427Z" fill="white"/>
<path opacity="0.4" d="M76.9109 240.767H105.497V224.427H76.9109V240.767Z" fill="white"/>
<path opacity="0.4" d="M41.5183 256.427H12.9319V272.767H41.5183V256.427Z" fill="white"/>
<path opacity="0.4" d="M76.9109 272.767H105.497V256.427H76.9109V272.767Z" fill="white"/>
<path opacity="0.4" d="M41.5183 288.427H12.9319V304.767H41.5183V288.427Z" fill="white"/>
<path opacity="0.4" d="M76.9109 304.767H105.497V288.426H76.9109V304.767Z" fill="white"/>
<path opacity="0.4" d="M41.5183 320.427H12.9319V336.767H41.5183V320.427Z" fill="white"/>
<path opacity="0.4" d="M76.9109 336.767H105.497V320.426H76.9109V336.767Z" fill="white"/>
<path opacity="0.4" d="M196.021 280.256H129.319V288.427H196.021V280.256Z" fill="white"/>
<path opacity="0.4" d="M196.021 292.511H129.319V300.682H196.021V292.511Z" fill="white"/>
<path opacity="0.4" d="M196.021 304.767H129.319V312.937H196.021V304.767Z" fill="white"/>
<path opacity="0.4" d="M370.262 284.341H303.56V292.512H370.262V284.341Z" fill="white"/>
<path opacity="0.4" d="M370.262 296.597H303.56V304.767H370.262V296.597Z" fill="white"/>
<path opacity="0.4" d="M370.262 308.852H303.56V317.022H370.262V308.852Z" fill="white"/>
<path opacity="0.4" d="M196.021 317.022H129.319V325.192H196.021V317.022Z" fill="white"/>
<path opacity="0.4" d="M196.021 329.277H129.319V337.448H196.021V329.277Z" fill="white"/>
<path opacity="0.4" d="M196.021 341.533H129.319V349.703H196.021V341.533Z" fill="white"/>
<path opacity="0.4" d="M238.9 195.831H220.523V219.661H238.9V195.831Z" fill="white"/>
<path opacity="0.4" d="M260.681 219.661H279.058V195.831H260.681V219.661Z" fill="white"/>
<path opacity="0.4" d="M238.9 233.958H220.523V257.788H238.9V233.958Z" fill="white"/>
<path opacity="0.4" d="M260.681 257.788H279.058V233.959H260.681V257.788Z" fill="white"/>
<path opacity="0.4" d="M238.9 272.086H220.523V295.916H238.9V272.086Z" fill="white"/>
<path opacity="0.4" d="M260.681 295.916H279.058V272.086H260.681V295.916Z" fill="white"/>
<path opacity="0.4" d="M238.9 310.214H220.523V334.043H238.9V310.214Z" fill="white"/>
<path opacity="0.4" d="M260.681 334.043H279.058V310.214H260.681V334.043Z" fill="white"/>
<path opacity="0.4" d="M404.974 67.8311H380.471V99.1502H404.974V67.8311Z" fill="white"/>
<path opacity="0.4" d="M404.974 112.767H380.471V144.086H404.974V112.767Z" fill="white"/>
<path opacity="0.4" d="M404.974 157.703H380.471V189.022H404.974V157.703Z" fill="white"/>
<path opacity="0.4" d="M404.974 202.639H380.471V233.958H404.974V202.639Z" fill="white"/>
<path opacity="0.4" d="M404.974 247.575H380.471V278.895H404.974V247.575Z" fill="white"/>
<path opacity="0.4" d="M404.974 292.511H380.471V323.831H404.974V292.511Z" fill="white"/>
<path opacity="0.4" d="M548.927 131.831H457.722V158.384H548.927V131.831Z" fill="white"/>
<path opacity="0.4" d="M549.267 189.022H458.063V215.576H549.267V189.022Z" fill="white"/>
<path opacity="0.4" d="M549.607 246.214H458.403V272.767H549.607V246.214Z" fill="white"/>
<path opacity="0.4" d="M549.948 303.405H458.743V329.958H549.948V303.405Z" fill="white"/>
<path opacity="0.4" d="M32.6703 76.6821H20.4189V102.554H32.6703V76.6821Z" fill="white"/>
<path opacity="0.4" d="M650 195.831H619.372V235.32H650V195.831Z" fill="white"/>
<path opacity="0.4" d="M650 253.022H619.372V292.511H650V253.022Z" fill="white"/>
<path opacity="0.4" d="M650 310.214H619.372V349.703H650V310.214Z" fill="white"/>
<path d="M33.8069 337.141C33.8069 337.141 -19.779 369.482 79.0006 419.272C79.0006 419.272 100.781 378.857 76.7001 345.904C72.0295 339.479 65.165 334.991 57.4075 333.291C49.65 331.59 41.5384 332.796 34.61 336.678L33.8069 337.141Z" fill="#096BEF"/>
<path d="M34.4263 336.46C34.4263 336.46 80.2802 371.558 79.0006 419.272" stroke="#535461" stroke-miterlimit="10"/>
<path d="M81.4917 421.111C81.4917 421.111 64.7006 364.082 84.643 322.108C93.0079 304.495 95.7849 284.716 91.9189 265.598C90.0725 256.52 87.3954 247.632 83.9215 239.044" stroke="#535461" stroke-width="2" stroke-miterlimit="10"/>
<path d="M96.309 212.553C96.309 219.538 83.6629 239.787 83.6629 239.787C83.6629 239.787 71.01 219.518 71.01 212.553C70.9709 210.866 71.2692 209.189 71.8873 207.62C72.5054 206.05 73.4309 204.62 74.6094 203.414C75.7879 202.207 77.1956 201.248 78.7497 200.594C80.3039 199.939 81.9732 199.602 83.6595 199.602C85.3458 199.602 87.0151 199.939 88.5692 200.594C90.1234 201.248 91.5311 202.207 92.7096 203.414C93.888 204.62 94.8135 206.05 95.4317 207.62C96.0498 209.189 96.3481 210.866 96.309 212.553Z" fill="#096BEF"/>
<path d="M117.245 251.266C113.447 257.135 91.8167 267.266 91.8167 267.266C91.8167 267.266 92.2046 243.375 96.0025 237.513C97.8472 234.744 100.708 232.813 103.965 232.138C107.222 231.463 110.614 232.098 113.407 233.906C116.199 235.714 118.168 238.549 118.886 241.798C119.604 245.047 119.015 248.448 117.245 251.266Z" fill="#096BEF"/>
<path d="M116.326 317.424C110.092 320.569 86.3037 318.391 86.3037 318.391C86.3037 318.391 98.6979 297.965 104.939 294.82C107.93 293.359 111.376 293.136 114.53 294.199C117.684 295.262 120.292 297.525 121.79 300.498C123.287 303.471 123.554 306.915 122.531 310.083C121.509 313.251 119.279 315.888 116.326 317.424Z" fill="#096BEF"/>
<path d="M104.368 367.323C98.7525 371.476 74.9441 373.355 74.9441 373.355C74.9441 373.355 83.7038 351.126 89.3258 346.973C92.0276 345.055 95.3735 344.274 98.6448 344.797C101.916 345.32 104.852 347.106 106.821 349.77C108.791 352.435 109.637 355.766 109.178 359.048C108.72 362.33 106.992 365.301 104.368 367.323Z" fill="#096BEF"/>
<path d="M65.2519 268.621C70.2613 273.489 93.6137 278.534 93.6137 278.534C93.6137 278.534 87.8964 255.337 82.8802 250.469C81.6887 249.311 80.281 248.399 78.7372 247.786C77.1935 247.172 75.5441 246.869 73.8832 246.893C72.2222 246.917 70.5822 247.268 69.0569 247.926C67.5316 248.584 66.1507 249.536 64.9933 250.728C63.8358 251.92 62.9243 253.328 62.3109 254.872C61.6974 256.416 61.3941 258.066 61.4181 259.728C61.4421 261.389 61.793 263.03 62.4508 264.556C63.1086 266.081 64.0604 267.463 65.2519 268.621Z" fill="#096BEF"/>
<path d="M52.0068 327.153C58.2413 330.306 82.0293 328.127 82.0293 328.127C82.0293 328.127 69.6351 307.701 63.4005 304.556C61.9134 303.768 60.2841 303.285 58.608 303.135C56.9319 302.984 55.2427 303.17 53.6392 303.681C52.0357 304.192 50.5502 305.017 49.2696 306.109C47.9891 307.201 46.9391 308.538 46.1813 310.041C45.4235 311.544 44.973 313.183 44.8562 314.863C44.7394 316.542 44.9587 318.228 45.5011 319.821C46.0436 321.415 46.8984 322.884 48.0155 324.143C49.1326 325.402 50.4895 326.425 52.0068 327.153Z" fill="#096BEF"/>
<path d="M46.9361 385.815C52.5513 389.968 76.3665 391.848 76.3665 391.848C76.3665 391.848 67.6 369.618 61.978 365.465C59.2762 363.547 55.9303 362.766 52.659 363.289C49.3877 363.812 46.4519 365.598 44.4824 368.263C42.5129 370.927 41.6666 374.258 42.1254 377.54C42.5842 380.822 44.3114 383.793 46.9361 385.815Z" fill="#096BEF"/>
<path opacity="0.25" d="M96.309 212.553C96.309 219.538 83.6629 239.787 83.6629 239.787C83.6629 239.787 71.01 219.518 71.01 212.553C70.9709 210.866 71.2692 209.189 71.8873 207.62C72.5054 206.05 73.4309 204.62 74.6094 203.414C75.7879 202.207 77.1956 201.248 78.7497 200.594C80.3039 199.939 81.9732 199.602 83.6595 199.602C85.3458 199.602 87.0151 199.939 88.5692 200.594C90.1234 201.248 91.5311 202.207 92.7096 203.414C93.888 204.62 94.8135 206.05 95.4317 207.62C96.0498 209.189 96.3481 210.866 96.309 212.553Z" fill="black"/>
<path opacity="0.25" d="M117.245 251.266C113.447 257.135 91.8167 267.266 91.8167 267.266C91.8167 267.266 92.2046 243.375 96.0025 237.513C97.8472 234.744 100.708 232.813 103.965 232.138C107.222 231.463 110.614 232.098 113.407 233.906C116.199 235.714 118.168 238.549 118.886 241.798C119.604 245.047 119.015 248.448 117.245 251.266Z" fill="black"/>
<path opacity="0.25" d="M116.326 317.424C110.092 320.569 86.3037 318.391 86.3037 318.391C86.3037 318.391 98.6979 297.965 104.939 294.82C107.93 293.359 111.376 293.136 114.53 294.199C117.684 295.262 120.292 297.525 121.79 300.498C123.287 303.471 123.554 306.915 122.531 310.083C121.509 313.251 119.279 315.888 116.326 317.424Z" fill="black"/>
<path opacity="0.25" d="M104.368 367.323C98.7525 371.476 74.9441 373.355 74.9441 373.355C74.9441 373.355 83.7038 351.126 89.3258 346.973C92.0276 345.055 95.3735 344.274 98.6448 344.797C101.916 345.32 104.852 347.106 106.821 349.77C108.791 352.435 109.637 355.766 109.178 359.048C108.72 362.33 106.992 365.301 104.368 367.323Z" fill="black"/>
<path opacity="0.25" d="M65.2519 268.621C70.2613 273.489 93.6137 278.534 93.6137 278.534C93.6137 278.534 87.8964 255.337 82.8802 250.469C81.6887 249.311 80.281 248.399 78.7372 247.786C77.1935 247.172 75.5441 246.869 73.8832 246.893C72.2222 246.917 70.5822 247.268 69.0569 247.926C67.5316 248.584 66.1507 249.536 64.9933 250.728C63.8358 251.92 62.9243 253.328 62.3109 254.872C61.6974 256.416 61.3941 258.066 61.4181 259.728C61.4421 261.389 61.793 263.03 62.4508 264.556C63.1086 266.081 64.0604 267.463 65.2519 268.621Z" fill="black"/>
<path opacity="0.25" d="M52.0068 327.153C58.2413 330.306 82.0293 328.127 82.0293 328.127C82.0293 328.127 69.6351 307.701 63.4005 304.556C61.9134 303.768 60.2841 303.285 58.608 303.135C56.9319 302.984 55.2427 303.17 53.6392 303.681C52.0357 304.192 50.5502 305.017 49.2696 306.109C47.9891 307.201 46.9391 308.538 46.1813 310.041C45.4235 311.544 44.973 313.183 44.8562 314.863C44.7394 316.542 44.9587 318.228 45.5011 319.821C46.0436 321.415 46.8984 322.884 48.0155 324.143C49.1326 325.402 50.4895 326.425 52.0068 327.153Z" fill="black"/>
<path opacity="0.25" d="M46.9361 385.815C52.5513 389.968 76.3665 391.848 76.3665 391.848C76.3665 391.848 67.6 369.618 61.978 365.465C59.2762 363.547 55.9303 362.766 52.659 363.289C49.3877 363.812 46.4519 365.598 44.4824 368.263C42.5129 370.927 41.6666 374.258 42.1254 377.54C42.5842 380.822 44.3114 383.793 46.9361 385.815Z" fill="black"/>
<path d="M605.609 406.384C605.609 406.384 588.818 349.356 608.761 307.381C617.125 289.768 619.909 269.989 616.043 250.871C614.191 241.795 611.514 232.907 608.046 224.318" stroke="#535461" stroke-width="2" stroke-miterlimit="10"/>
<path d="M620.454 197.826C620.454 204.811 607.801 225.06 607.801 225.06C607.801 225.06 595.148 204.791 595.148 197.826C595.148 194.469 596.481 191.25 598.854 188.876C601.227 186.502 604.445 185.169 607.801 185.169C611.157 185.169 614.375 186.502 616.748 188.876C619.121 191.25 620.454 194.469 620.454 197.826Z" fill="#096BEF"/>
<path d="M641.363 236.539C637.565 242.408 615.935 252.539 615.935 252.539C615.935 252.539 616.329 228.648 620.127 222.786C621.95 219.969 624.818 217.992 628.098 217.289C631.379 216.587 634.803 217.217 637.62 219.041C640.436 220.865 642.412 223.733 643.114 227.014C643.816 230.296 643.186 233.722 641.363 236.539Z" fill="#096BEF"/>
<path d="M640.451 302.697C634.209 305.843 610.421 303.664 610.421 303.664C610.421 303.664 622.822 283.239 629.057 280.093C632.054 278.582 635.528 278.323 638.715 279.374C641.902 280.425 644.541 282.699 646.052 285.696C647.563 288.694 647.822 292.169 646.771 295.357C645.721 298.546 643.447 301.186 640.451 302.697Z" fill="#096BEF"/>
<path d="M628.492 352.597C622.87 356.75 599.062 358.629 599.062 358.629C599.062 358.629 607.828 336.399 613.443 332.246C616.143 330.282 619.509 329.464 622.809 329.971C626.108 330.479 629.074 332.27 631.059 334.954C633.044 337.639 633.888 341 633.408 344.304C632.927 347.609 631.16 350.589 628.492 352.597Z" fill="#096BEF"/>
<path d="M589.37 253.873C594.386 258.741 617.731 263.786 617.731 263.786C617.731 263.786 612.014 240.59 607.005 235.722C605.819 234.536 604.409 233.599 602.858 232.963C601.307 232.327 599.645 232.006 597.968 232.018C596.292 232.03 594.635 232.375 593.093 233.034C591.551 233.692 590.155 234.651 588.987 235.853C587.819 237.056 586.901 238.479 586.287 240.039C585.673 241.6 585.375 243.267 585.411 244.943C585.446 246.62 585.814 248.273 586.494 249.806C587.174 251.339 588.151 252.721 589.37 253.873Z" fill="#096BEF"/>
<path d="M576.152 312.426C582.393 315.579 606.181 313.4 606.181 313.4C606.181 313.4 593.787 292.975 587.545 289.829C586.058 289.041 584.429 288.558 582.753 288.408C581.077 288.257 579.388 288.443 577.784 288.954C576.181 289.465 574.695 290.29 573.415 291.383C572.134 292.475 571.084 293.811 570.326 295.314C569.569 296.817 569.118 298.456 569.001 300.136C568.884 301.815 569.104 303.501 569.646 305.094C570.189 306.688 571.043 308.157 572.16 309.416C573.278 310.675 574.634 311.698 576.152 312.426Z" fill="#096BEF"/>
<path d="M571.054 371.089C576.676 375.242 600.484 377.121 600.484 377.121C600.484 377.121 591.718 354.898 586.103 350.738C583.403 348.774 580.037 347.956 576.737 348.463C573.438 348.971 570.472 350.762 568.487 353.446C566.502 356.131 565.658 359.492 566.139 362.796C566.619 366.101 568.386 369.081 571.054 371.089Z" fill="#096BEF"/>
<path d="M529.869 400.835C529.869 400.835 520.844 370.197 531.564 347.633C536.115 338.2 537.488 327.546 535.477 317.267C534.481 312.394 533.042 307.621 531.176 303.01" stroke="#535461" stroke-width="2" stroke-miterlimit="10"/>
<path d="M537.846 288.753C537.846 292.512 531.04 303.405 531.04 303.405C531.04 303.405 524.233 292.512 524.233 288.753C524.233 286.948 524.95 285.216 526.227 283.939C527.503 282.662 529.235 281.945 531.04 281.945C532.845 281.945 534.576 282.662 535.852 283.939C537.129 285.216 537.846 286.948 537.846 288.753Z" fill="#096BEF"/>
<path d="M549.083 309.56C547.041 312.712 535.416 318.159 535.416 318.159C535.416 318.159 535.627 305.318 537.669 302.166C538.687 300.74 540.215 299.762 541.936 299.434C543.657 299.107 545.437 299.456 546.908 300.408C548.378 301.361 549.424 302.843 549.83 304.548C550.235 306.252 549.967 308.048 549.083 309.56Z" fill="#096BEF"/>
<path d="M548.593 345.107C545.238 346.796 532.456 345.625 532.456 345.625C532.456 345.625 539.119 334.649 542.468 332.961C544.067 332.238 545.883 332.161 547.537 332.746C549.192 333.33 550.557 334.532 551.347 336.099C552.137 337.666 552.292 339.478 551.779 341.156C551.266 342.835 550.125 344.25 548.593 345.107Z" fill="#096BEF"/>
<path d="M542.161 371.926C539.146 374.159 526.35 375.167 526.35 375.167C526.35 375.167 531.06 363.225 534.082 360.992C534.795 360.402 535.62 359.964 536.508 359.704C537.396 359.445 538.327 359.369 539.245 359.481C540.163 359.593 541.049 359.892 541.848 360.358C542.647 360.824 543.343 361.448 543.892 362.192C544.442 362.936 544.834 363.785 545.046 364.686C545.257 365.586 545.282 366.521 545.12 367.432C544.958 368.343 544.612 369.211 544.103 369.984C543.595 370.756 542.934 371.417 542.161 371.926Z" fill="#096BEF"/>
<path d="M521.143 318.888C523.866 321.502 536.383 324.212 536.383 324.212C536.383 324.212 533.313 311.746 530.618 309.131C529.988 308.459 529.229 307.922 528.386 307.552C527.543 307.181 526.633 306.986 525.712 306.978C524.792 306.97 523.879 307.148 523.029 307.503C522.179 307.858 521.41 308.382 520.769 309.042C520.127 309.703 519.626 310.487 519.297 311.347C518.967 312.207 518.815 313.125 518.85 314.045C518.885 314.966 519.106 315.869 519.5 316.702C519.895 317.534 520.454 318.278 521.143 318.888Z" fill="#096BEF"/>
<path d="M514.024 350.343C517.38 352.032 530.162 350.867 530.162 350.867C530.162 350.867 523.498 339.892 520.143 338.197C518.544 337.474 516.728 337.397 515.073 337.982C513.419 338.566 512.054 339.768 511.264 341.335C510.473 342.902 510.319 344.714 510.832 346.392C511.345 348.071 512.486 349.486 514.017 350.343H514.024Z" fill="#096BEF"/>
<path d="M511.302 381.873C514.317 384.106 527.113 385.114 527.113 385.114C527.113 385.114 522.382 373.165 519.388 370.932C517.933 369.943 516.153 369.555 514.419 369.85C512.685 370.145 511.133 371.1 510.087 372.515C509.042 373.929 508.584 375.694 508.811 377.438C509.037 379.183 509.93 380.772 511.302 381.873Z" fill="#096BEF"/>
<path opacity="0.1" d="M180.149 43.1027H175.466C175.909 43.1229 176.351 43.0531 176.767 42.8974C177.182 42.7418 177.561 42.5036 177.882 42.1972C178.202 41.8908 178.458 41.5225 178.632 41.1147C178.806 40.7069 178.896 40.268 178.896 39.8244C178.896 39.3809 178.806 38.9419 178.632 38.5341C178.458 38.1263 178.202 37.7581 177.882 37.4517C177.561 37.1453 177.182 36.907 176.767 36.7514C176.351 36.5958 175.909 36.5259 175.466 36.5461H137.535C137.092 36.5259 136.649 36.5958 136.234 36.7514C135.819 36.907 135.44 37.1453 135.119 37.4517C134.798 37.7581 134.543 38.1263 134.369 38.5341C134.195 38.9419 134.105 39.3809 134.105 39.8244C134.105 40.268 134.195 40.7069 134.369 41.1147C134.543 41.5225 134.798 41.8908 135.119 42.1972C135.44 42.5036 135.819 42.7418 136.234 42.8974C136.649 43.0531 137.092 43.1229 137.535 43.1027H142.217C141.347 43.1027 140.513 43.4485 139.898 44.0639C139.282 44.6793 138.937 45.514 138.937 46.3844C138.937 47.2548 139.282 48.0895 139.898 48.7049C140.513 49.3204 141.347 49.6661 142.217 49.6661H135.663C135.22 49.6459 134.778 49.7157 134.362 49.8714C133.947 50.027 133.568 50.2652 133.247 50.5716C132.927 50.878 132.671 51.2463 132.497 51.6541C132.323 52.0619 132.233 52.5009 132.233 52.9444C132.233 53.3879 132.323 53.8269 132.497 54.2347C132.671 54.6425 132.927 55.0107 133.247 55.3172C133.568 55.6236 133.947 55.8618 134.362 56.0174C134.778 56.1731 135.22 56.2429 135.663 56.2227H173.594C174.037 56.2429 174.48 56.1731 174.895 56.0174C175.31 55.8618 175.689 55.6236 176.01 55.3172C176.331 55.0107 176.586 54.6425 176.76 54.2347C176.934 53.8269 177.024 53.3879 177.024 52.9444C177.024 52.5009 176.934 52.0619 176.76 51.6541C176.586 51.2463 176.331 50.878 176.01 50.5716C175.689 50.2652 175.31 50.027 174.895 49.8714C174.48 49.7157 174.037 49.6459 173.594 49.6661H180.149C181.019 49.6661 181.853 49.3204 182.469 48.7049C183.084 48.0895 183.429 47.2548 183.429 46.3844C183.429 45.514 183.084 44.6793 182.469 44.0639C181.853 43.4485 181.019 43.1027 180.149 43.1027Z" fill="#252223"/>
<path opacity="0.1" d="M347.583 125.486H342.901C343.344 125.506 343.786 125.436 344.201 125.28C344.616 125.125 344.996 124.886 345.316 124.58C345.637 124.274 345.892 123.905 346.066 123.498C346.241 123.09 346.331 122.651 346.331 122.207C346.331 121.764 346.241 121.325 346.066 120.917C345.892 120.509 345.637 120.141 345.316 119.834C344.996 119.528 344.616 119.29 344.201 119.134C343.786 118.979 343.344 118.909 342.901 118.929H304.969C304.526 118.909 304.084 118.979 303.669 119.134C303.253 119.29 302.874 119.528 302.554 119.834C302.233 120.141 301.978 120.509 301.803 120.917C301.629 121.325 301.539 121.764 301.539 122.207C301.539 122.651 301.629 123.09 301.803 123.498C301.978 123.905 302.233 124.274 302.554 124.58C302.874 124.886 303.253 125.125 303.669 125.28C304.084 125.436 304.526 125.506 304.969 125.486H309.652C308.782 125.486 307.947 125.831 307.332 126.447C306.717 127.062 306.371 127.897 306.371 128.767C306.371 129.638 306.717 130.472 307.332 131.088C307.947 131.703 308.782 132.049 309.652 132.049H303.097C302.655 132.029 302.212 132.099 301.797 132.254C301.382 132.41 301.002 132.648 300.682 132.954C300.361 133.261 300.106 133.629 299.932 134.037C299.757 134.445 299.667 134.884 299.667 135.327C299.667 135.771 299.757 136.21 299.932 136.618C300.106 137.025 300.361 137.394 300.682 137.7C301.002 138.006 301.382 138.245 301.797 138.4C302.212 138.556 302.655 138.626 303.097 138.606H341.029C341.472 138.626 341.914 138.556 342.329 138.4C342.745 138.245 343.124 138.006 343.445 137.7C343.765 137.394 344.02 137.025 344.195 136.618C344.369 136.21 344.459 135.771 344.459 135.327C344.459 134.884 344.369 134.445 344.195 134.037C344.02 133.629 343.765 133.261 343.445 132.954C343.124 132.648 342.745 132.41 342.329 132.254C341.914 132.099 341.472 132.029 341.029 132.049H347.583C348.014 132.049 348.441 131.964 348.839 131.799C349.237 131.634 349.598 131.392 349.903 131.088C350.208 130.783 350.449 130.421 350.614 130.023C350.779 129.625 350.864 129.198 350.864 128.767C350.864 128.336 350.779 127.91 350.614 127.511C350.449 127.113 350.208 126.751 349.903 126.447C349.598 126.142 349.237 125.9 348.839 125.735C348.441 125.57 348.014 125.486 347.583 125.486Z" fill="#252223"/>
<path opacity="0.1" d="M632.766 17.9111H628.084C628.527 17.9313 628.969 17.8614 629.384 17.7058C629.799 17.5502 630.179 17.3119 630.499 17.0055C630.82 16.6991 631.075 16.3309 631.25 15.9231C631.424 15.5152 631.514 15.0763 631.514 14.6328C631.514 14.1892 631.424 13.7503 631.25 13.3425C631.075 12.9347 630.82 12.5664 630.499 12.26C630.179 11.9536 629.799 11.7154 629.384 11.5597C628.969 11.4041 628.527 11.3343 628.084 11.3545H590.152C589.709 11.3343 589.267 11.4041 588.852 11.5597C588.437 11.7154 588.057 11.9536 587.737 12.26C587.416 12.5664 587.161 12.9347 586.987 13.3425C586.812 13.7503 586.722 14.1892 586.722 14.6328C586.722 15.0763 586.812 15.5152 586.987 15.9231C587.161 16.3309 587.416 16.6991 587.737 17.0055C588.057 17.3119 588.437 17.5502 588.852 17.7058C589.267 17.8614 589.709 17.9313 590.152 17.9111H594.835C593.965 17.9111 593.131 18.2568 592.515 18.8722C591.9 19.4877 591.554 20.3224 591.554 21.1928C591.554 22.0631 591.9 22.8978 592.515 23.5133C593.131 24.1287 593.965 24.4745 594.835 24.4745H588.281C587.838 24.4543 587.395 24.5241 586.98 24.6797C586.565 24.8354 586.185 25.0736 585.865 25.38C585.544 25.6864 585.289 26.0546 585.115 26.4624C584.94 26.8703 584.851 27.3092 584.851 27.7527C584.851 28.1963 584.94 28.6352 585.115 29.043C585.289 29.4509 585.544 29.8191 585.865 30.1255C586.185 30.4319 586.565 30.6701 586.98 30.8258C587.395 30.9814 587.838 31.0512 588.281 31.031H626.212C626.655 31.0512 627.097 30.9814 627.513 30.8258C627.928 30.6701 628.307 30.4319 628.628 30.1255C628.948 29.8191 629.203 29.4509 629.378 29.043C629.552 28.6352 629.642 28.1963 629.642 27.7527C629.642 27.3092 629.552 26.8703 629.378 26.4624C629.203 26.0546 628.948 25.6864 628.628 25.38C628.307 25.0736 627.928 24.8354 627.513 24.6797C627.097 24.5241 626.655 24.4543 626.212 24.4745H632.766C633.637 24.4745 634.471 24.1287 635.086 23.5133C635.701 22.8978 636.047 22.0631 636.047 21.1928C636.047 20.3224 635.701 19.4877 635.086 18.8722C634.471 18.2568 633.637 17.9111 632.766 17.9111Z" fill="#252223"/>
</g>
<g clip-path="url(#clip1)">
<path d="M224.747 332.884C225.357 336.264 225.881 340.337 226.492 343.456C227.015 346.056 228.499 348.396 230.244 350.389L318.198 385.918L316.017 360.441L310.956 364.514L224.747 332.884Z" fill="#5C6C7A"/>
<path d="M426.92 291.632C426.92 291.632 425.174 284.18 422.469 280.367C419.765 276.554 415.663 275.514 411.039 274.648C407.025 273.954 342.892 262.429 325.179 259.396C322.387 258.963 319.594 259.483 317.151 260.869L230.68 313.036C230.244 313.296 229.895 313.643 229.721 314.076L223.7 326.902C223.438 327.508 223.351 328.115 223.525 328.721L224.834 333.054L426.92 291.632Z" fill="#8F9296"/>
<path d="M318.198 380.978V432.366C319.157 432.366 320.117 432.192 320.99 431.759L351.617 417.721L411.823 390.077C413.568 389.297 414.79 387.651 415.052 385.831L427.18 306.28L318.198 380.978Z" fill="#A6AFB8"/>
<path d="M422.993 282.277L425.087 286.437L409.991 288.343L384.163 306.194L385.036 321.099L360.953 332.451L357.114 324.999L323.608 351.082L317.238 363.214L311.828 366.247L305.546 364.168L313.835 356.975L318.198 345.19L363.309 314.08L364.618 319.279L376.31 310.7L375.002 302.988L410.777 280.371L422.993 282.277Z" fill="#5C6C7A"/>
<path d="M317.151 261.826L230.767 313.82C230.592 313.907 230.418 314.167 230.243 314.34L224.048 327.598C223.786 328.205 223.699 328.898 223.874 329.505L224.485 332.278C224.659 333.145 225.357 333.838 226.142 334.184L307.727 363.474C308.861 363.908 310.17 363.734 311.217 363.041L314.707 360.701C314.882 360.528 315.056 360.355 315.144 360.181L319.681 349.869C319.943 349.263 320.379 348.656 320.99 348.223L360.691 319.193C361.128 318.933 361.302 318.413 361.215 317.893L359.819 311.48L351.006 309.227C350.308 309.054 349.959 308.361 350.133 307.667C350.221 307.408 350.395 307.148 350.657 306.974L394.634 276.211C395.07 275.951 395.594 275.951 396.03 276.211L408.333 284.184C408.508 284.27 408.682 284.357 408.944 284.357C410.515 284.444 411.998 284.617 413.569 284.963C415.314 285.657 417.233 285.743 419.066 285.223C420.2 284.877 421.335 284.444 422.382 283.924C422.992 283.664 423.254 282.884 422.992 282.277C422.992 282.19 422.905 282.19 422.905 282.104C422.12 280.804 421.073 279.591 419.851 278.724C417.932 277.338 415.663 276.471 413.307 276.124C410.951 275.951 343.677 263.646 325.527 260.266C322.648 259.746 319.681 260.353 317.151 261.826Z" fill="#5E6267"/>
<path d="M226.491 332.972L308.25 362.695C309.036 362.868 309.908 362.868 310.606 362.521L313.573 360.442C314.358 359.835 314.969 359.055 315.318 358.102L319.07 349.35C319.506 348.31 320.205 347.443 321.164 346.75L359.557 319.02C359.819 318.846 359.906 318.587 359.819 318.327L359.034 313.387C358.946 312.954 358.597 312.694 358.161 312.781C358.074 312.781 357.899 312.867 357.812 312.954L316.714 341.117L233.123 314.774C232.338 314.514 231.465 314.86 231.029 315.64L225.095 328.119C224.921 328.465 224.921 328.812 225.008 329.159L225.793 332.018C225.881 332.452 226.142 332.798 226.491 332.972Z" fill="#2D3033"/>
<path d="M350.395 309.054L359.819 311.481L362.524 323.612C362.611 324.132 363.135 324.479 363.658 324.306C363.745 324.306 363.92 324.219 364.007 324.132L379.277 313.474C379.539 313.3 379.713 312.867 379.626 312.52L378.579 306.714C378.492 306.368 378.666 306.108 378.928 305.935L408.595 284.27L407.984 278.551C407.897 278.031 407.461 277.511 406.937 277.424L396.467 275.778C395.768 275.691 394.983 275.865 394.46 276.298L350.046 307.321C349.61 307.581 349.435 308.101 349.697 308.534C349.872 308.794 350.133 308.967 350.395 309.054Z" fill="#A6AFB8"/>
<path d="M361.215 317.373L362.873 324.998L379.103 313.646C379.539 313.386 379.713 312.867 379.626 312.347L378.492 305.587L361.215 317.373Z" fill="#5C6C7A"/>
<path d="M334.864 303.768L335.824 302.902C335.911 302.815 335.998 302.642 335.824 302.468L335.737 302.382L333.032 301.515C332.857 301.429 332.77 301.342 332.857 301.169C332.857 301.082 332.944 300.995 333.032 300.995L389.05 277.425C389.312 277.338 389.574 277.511 389.661 277.771C389.748 277.945 389.661 278.118 389.486 278.291L347.778 307.754C347.254 308.101 347.167 308.794 347.516 309.228C347.691 309.401 347.865 309.574 348.127 309.661L356.678 311.914C357.114 312.087 357.376 312.607 357.202 313.041C357.114 313.214 357.027 313.3 356.94 313.387L316.715 340.944L233.21 314.86C233.123 314.86 233.123 314.774 233.036 314.687L232.338 313.82L257.991 319.8C260.347 320.32 262.878 319.973 264.972 318.76C266.979 317.633 268.898 316.333 270.731 314.86C272.738 312.867 272.301 311.307 270.731 309.574C269.16 307.841 266.542 306.021 266.368 304.808C266.193 303.595 266.193 302.815 267.24 301.342C268.287 299.869 268.724 299.955 268.811 299.262C268.898 298.569 268.636 298.309 268.375 298.136C268.113 297.962 264.361 296.662 263.663 296.489C262.965 296.316 262.354 294.669 263.925 295.103C265.495 295.536 269.335 296.576 270.033 296.836C270.731 297.096 271.341 297.269 272.039 296.662C272.738 296.056 281.289 291.55 282.248 291.03C282.336 291.03 282.336 291.03 282.423 291.03L334.602 303.942C334.777 303.855 334.864 303.855 334.864 303.768Z" fill="#53575B"/>
<path d="M282.335 290.943C282.335 290.943 272.127 296.229 270.294 299.088C268.462 301.948 267.764 302.295 267.851 302.988C267.938 303.681 268.113 303.681 268.724 303.941C269.334 304.201 315.755 318.066 317.413 318.499C319.07 318.933 319.856 318.673 321.95 317.46C324.044 316.246 330.414 311.74 332.159 310.44C334.515 308.534 334.951 308.101 335.038 307.581C335.126 307.061 335.824 304.114 334.776 303.854C334.253 303.768 282.335 290.943 282.335 290.943Z" fill="#252E37"/>
<path d="M230.243 350.389L238.184 392.678C238.533 394.584 239.842 396.144 241.587 397.01L285.651 417.721L315.493 431.76C316.365 432.193 317.325 432.366 318.285 432.366L318.372 385.832L230.243 350.389Z" fill="#8B959E"/>
<path d="M282.248 291.895L333.904 304.633L326.4 310.179C326.4 310.179 283.906 299.174 282.859 298.827C281.812 298.48 279.63 299.607 281.288 300.387C282.946 301.167 324.044 312.779 324.044 312.779L322.299 314.079L276.053 301.947L274.657 302.727L270.207 301.08C270.643 299.867 271.428 298.827 272.475 298.047C274.046 296.921 282.248 291.895 282.248 291.895Z" fill="#151E28"/>
<path d="M424.65 314.6C423.778 318.587 421.683 322.139 418.629 324.826C408.246 333.491 333.38 384.272 328.058 387.132C323.084 389.732 314.62 383.926 314.62 383.926L424.65 314.6Z" fill="#5C6C7A"/>
<path d="M361.826 320.318L363.135 326.038C363.222 326.298 363.484 326.471 363.746 326.471C363.833 326.471 363.92 326.471 363.92 326.384L380.761 314.946C381.284 314.599 381.459 313.992 381.371 313.386L380.237 307.06C380.15 306.8 380.324 306.453 380.586 306.28L408.595 286.002C408.595 286.002 411.475 285.222 413.22 285.829C414.965 286.436 416.797 286.869 418.804 286.262C420.549 285.742 422.644 285.396 424.476 285.136C425.785 287.129 426.396 289.382 426.919 291.722C427.443 295.015 427.879 302.554 427.006 307.233C426.047 312.779 424.389 317.199 420.637 321.445C418.019 324.478 414.965 327.078 411.649 329.244C408.246 331.584 349.348 371.532 328.669 385.397C326.313 386.697 323.521 386.957 320.99 386.004C318.372 384.877 317.151 382.624 315.755 379.245C313.835 374.479 312.265 369.626 310.868 364.686L315.842 361.394C315.842 361.394 320.816 350.821 320.99 349.522L360.953 320.058C361.215 319.885 361.564 319.885 361.739 320.145C361.826 320.145 361.826 320.232 361.826 320.318Z" fill="#A6AFB8"/>
<path d="M397.454 280.258C398.339 280.022 398.965 279.494 398.852 279.078C398.74 278.662 397.932 278.516 397.048 278.751C396.163 278.987 395.537 279.515 395.65 279.931C395.762 280.347 396.57 280.493 397.454 280.258Z" fill="#7DC242"/>
<path d="M391.603 284.07C392.487 283.836 393.114 283.309 393.003 282.893C392.891 282.476 392.083 282.329 391.198 282.563C390.314 282.797 389.687 283.324 389.798 283.74C389.91 284.156 390.718 284.304 391.603 284.07Z" fill="#5C6C7A"/>
<path d="M386.716 287.535C387.601 287.301 388.227 286.773 388.116 286.357C388.004 285.941 387.196 285.793 386.312 286.027C385.427 286.261 384.8 286.788 384.912 287.205C385.023 287.621 385.831 287.769 386.716 287.535Z" fill="#5C6C7A"/>
<path d="M380.536 293.048C382.584 292.503 384.032 291.274 383.77 290.303C383.508 289.333 381.636 288.988 379.588 289.533C377.539 290.078 376.092 291.307 376.354 292.278C376.616 293.249 378.488 293.594 380.536 293.048Z" fill="#5C6C7A"/>
<path d="M380.22 292.283C381.664 291.901 382.691 291.06 382.515 290.404C382.339 289.747 381.027 289.525 379.583 289.906C378.139 290.288 377.112 291.13 377.288 291.786C377.464 292.442 378.777 292.665 380.22 292.283Z" fill="#D1D0CC"/>
<path d="M277.187 303.334L319.943 314.686C320.292 314.773 320.466 315.119 320.379 315.466C320.292 315.813 319.943 315.986 319.594 315.899L276.838 304.547C276.489 304.461 276.315 304.114 276.402 303.767C276.489 303.421 276.838 303.247 277.187 303.334Z" fill="#53575B"/>
<path d="M294.813 302.555L337.132 315.293C337.481 315.38 337.656 315.726 337.569 316.073C337.481 316.42 337.132 316.593 336.783 316.506L294.464 303.768C294.115 303.681 293.941 303.334 294.028 302.988C294.115 302.641 294.464 302.468 294.813 302.555Z" fill="#252E37"/>
<path d="M313.224 401.949V418.414C313.224 418.674 312.962 418.934 312.701 418.934C312.613 418.934 312.526 418.934 312.439 418.847L301.619 413.214C301.445 413.128 301.357 412.954 301.357 412.694V396.749C301.357 396.489 301.619 396.229 301.881 396.229C301.968 396.229 302.055 396.229 302.143 396.316L312.962 401.429C313.137 401.516 313.224 401.776 313.224 401.949Z" fill="#A6AFB8"/>
<path d="M304.935 398.136L313.05 401.862C313.137 401.949 313.224 402.035 313.224 402.209V416.42C313.224 416.594 313.137 416.767 312.963 416.767C312.875 416.767 312.788 416.767 312.788 416.767L304.673 412.088C304.586 412.001 304.499 411.914 304.499 411.741V398.482C304.499 398.309 304.586 398.136 304.935 398.136C304.848 398.049 304.848 398.049 304.935 398.136Z" fill="#151E28"/>
<path d="M303.801 397.183L301.27 413.127V396.663C301.27 396.403 301.445 396.229 301.707 396.229C301.794 396.229 301.794 396.229 301.881 396.229L303.801 397.183Z" fill="#5C6C7A"/>
<path d="M306.418 399.61L304.499 408.276C304.411 408.622 304.586 408.882 304.848 409.056L309.996 411.915C310.345 412.089 310.694 412.002 310.868 411.655C310.868 411.569 310.955 411.569 310.955 411.482L313.224 402.47C313.311 402.123 313.137 401.777 312.875 401.603L307.465 399.177C307.116 399.004 306.767 399.177 306.593 399.524C306.418 399.524 306.418 399.524 306.418 399.61Z" fill="#3F4449"/>
<path d="M307.902 409.401C307.727 409.401 307.553 409.314 307.465 409.227C306.855 408.707 306.68 407.928 306.942 407.234C307.029 406.801 307.378 406.454 307.727 406.281C307.989 406.194 308.251 406.281 308.512 406.368C309.123 406.888 309.298 407.668 309.036 408.361C308.949 408.794 308.6 409.141 308.251 409.314C308.076 409.401 307.989 409.401 307.902 409.401ZM307.989 406.801H307.814C307.553 406.888 307.378 407.148 307.291 407.408C307.116 407.928 307.204 408.534 307.553 408.881C307.64 408.967 307.814 408.967 307.902 408.881C308.163 408.794 308.338 408.534 308.425 408.274C308.6 407.754 308.512 407.148 308.163 406.801C308.163 406.714 308.076 406.714 307.989 406.801Z" fill="#ABA9A3"/>
<path d="M309.036 404.116C308.861 404.116 308.774 403.942 308.774 403.856L309.297 401.949C309.297 401.863 309.472 401.776 309.559 401.776C309.646 401.776 309.734 401.949 309.734 402.036L309.297 403.942C309.21 404.029 309.123 404.116 309.036 404.116Z" fill="#ABA9A3"/>
<path d="M359.906 311.915L361.215 317.721C361.302 318.067 361.651 318.327 362 318.241C362.088 318.241 362.175 318.154 362.262 318.154L408.333 284.531C408.508 284.445 408.595 284.185 408.595 284.011L408.159 278.639C408.159 278.292 407.81 278.032 407.548 278.119C407.461 278.119 407.374 278.205 407.199 278.205L360.168 311.221C359.994 311.395 359.819 311.655 359.906 311.915Z" fill="#8B959E"/>
<path d="M224.223 328.031L307.989 358.534C308.425 358.708 308.949 358.448 309.21 358.014L316.278 341.896C316.453 341.463 316.278 340.856 315.755 340.683H315.667L230.505 313.993C230.069 313.819 229.545 314.079 229.371 314.513L223.699 326.818C223.525 327.251 223.699 327.858 224.223 328.031Z" fill="#3C4042"/>
</g>
<path d="M164.435 214.732L164.435 21.28" stroke="#3A89F2" stroke-width="2" stroke-dasharray="3 3"/>
<path d="M109.284 112.058L109.284 64.5432" stroke="#3A89F2" stroke-width="2" stroke-dasharray="3 3"/>
<path d="M359.821 246.652L359.821 112.202" stroke="#3A89F2" stroke-width="2" stroke-dasharray="3 3"/>
<path d="M575.521 179.91L575.521 51.2646" stroke="#3A89F2" stroke-width="2" stroke-dasharray="3 3"/>
<path d="M600.67 128.646L600.67 0" stroke="#3A89F2" stroke-width="2" stroke-dasharray="3 3"/>
<path d="M404.824 51.2397L404.824 20.8303" stroke="#3A89F2" stroke-width="2" stroke-dasharray="3 3"/>
<defs>
<clipPath id="clip0">
<rect width="650" height="463.318" fill="white" transform="translate(0 10.6396)"/>
</clipPath>
<clipPath id="clip1">
<rect width="204.092" height="173.14" fill="white" transform="translate(223.438 259.226)"/>
</clipPath>
</defs>
</svg>
