<svg width="80" height="80" viewBox="0 0 80 80" fill="none" xmlns="http://www.w3.org/2000/svg">
<path d="M80 57H9.3359e-06V36.5036C-0.00114457 36.0142 0.104686 35.5326 0.307547 35.1039C0.510409 34.6753 0.803628 34.3138 1.15961 34.0534L38.6688 6.44641C39.0676 6.15473 39.529 6 40 6C40.471 6 40.9324 6.15473 41.3312 6.44641L78.8404 34.0534C79.1964 34.3138 79.4896 34.6753 79.6925 35.1039C79.8953 35.5326 80.0012 36.0142 80 36.5036V57Z" fill="#9ECFFF"/>
<path d="M58.6028 44.2674L58.1493 43.0364L56.5875 38.7859L53.2224 29.6337L49.461 19.4036L42.6774 0.951353C42.5442 0.591518 42.2719 0.298407 41.92 0.136206C41.5682 -0.0259952 41.1655 -0.0440655 40.8001 0.0859515L1.58001 14.1109C1.21506 14.2421 0.917747 14.5107 0.753269 14.8578C0.588791 15.2049 0.570559 15.6021 0.70257 15.9624L10.3201 42.1217L10.4839 42.5689L20.579 47.0812L23.4165 48.3496L23.8767 48.5553L35.8906 53.9262L36.356 53.7596L44.2359 50.9424L56.1221 46.6919L57.7236 46.1189C58.0887 45.9878 58.3862 45.7193 58.551 45.3723C58.7158 45.0252 58.7344 44.6279 58.6028 44.2674Z" fill="#E4E9EC"/>
<path d="M41.9711 22.1373C41.7781 21.6092 41.3828 21.179 40.8719 20.941C40.3611 20.703 39.7764 20.6766 39.246 20.8675L23.9328 26.4025L16.5382 29.0743C16.2754 29.1689 16.034 29.3142 15.8276 29.5019C15.6213 29.6896 15.4541 29.916 15.3355 30.1681C15.217 30.4203 15.1495 30.6932 15.1369 30.9713C15.1243 31.2495 15.1668 31.5274 15.2621 31.7891C15.3573 32.0508 15.5034 32.2913 15.6919 32.4968C15.8804 32.7023 16.1078 32.8687 16.3609 32.9865C16.614 33.1044 16.8879 33.1714 17.167 33.1837C17.4461 33.1959 17.7249 33.1533 17.9875 33.0581L23.9328 30.9102L40.6971 24.8531C41.2269 24.6607 41.6586 24.2667 41.8974 23.7576C42.1362 23.2485 42.1627 22.6658 41.9711 22.1373Z" fill="white"/>
<path d="M44.0451 29.3962C43.852 28.8681 43.4567 28.4379 42.9458 28.1998C42.4349 27.9618 41.8501 27.9353 41.3197 28.1263L38.7252 29.0639L23.3083 34.6352L18.6095 36.3323C18.0796 36.5243 17.6479 36.918 17.4091 37.427C17.1704 37.936 17.1442 38.5187 17.3363 39.0469C17.5284 39.5752 17.923 40.0058 18.4336 40.2442C18.9441 40.4826 19.5287 40.5093 20.059 40.3183L23.3083 39.1434L42.7709 32.1106C42.8151 32.0954 42.8576 32.0767 42.9001 32.0581C43.3943 31.842 43.7875 31.4468 44.0001 30.9525C44.2127 30.4582 44.2288 29.9019 44.0451 29.3962Z" fill="white"/>
<path d="M47.1552 37.7103C46.9625 37.1758 46.5676 36.7402 46.0569 36.4992C45.5463 36.2582 44.9618 36.2314 44.4317 36.4247L37.1557 39.0868L31.5231 41.1482L23.6943 44.0111L21.721 44.7337C21.2649 44.9013 20.8793 45.221 20.6277 45.6398C20.3762 46.0587 20.274 46.5516 20.3379 47.037C20.3574 47.1815 20.3916 47.3236 20.44 47.461L23.2401 48.7414L23.6943 48.5749H23.6977L37.9042 43.3777L45.881 40.4599C46.4112 40.2655 46.8432 39.8667 47.0821 39.3512C47.321 38.8356 47.3473 38.2454 47.1552 37.7103H47.1552Z" fill="white"/>
<path d="M31.5967 15.0434C31.3972 14.4526 30.9888 13.9713 30.4609 13.705C29.933 13.4387 29.3288 13.4091 28.7808 13.6228L19.6931 17.1773C19.1456 17.392 18.6995 17.8325 18.4529 18.402C18.2062 18.9714 18.1791 19.6233 18.3776 20.2143C18.5761 20.8052 18.9839 21.287 19.5114 21.5537C20.0388 21.8204 20.6429 21.8503 21.1907 21.6366L24.0665 20.5118L25.9701 19.7664L30.2802 18.0802C30.8276 17.8653 31.2736 17.4249 31.5205 16.8556C31.7673 16.2863 31.7947 15.6346 31.5967 15.0434Z" fill="white"/>
<path d="M66.56 19.7041H24.8941C24.6484 19.7043 24.4066 19.7652 24.1912 19.8811C23.9758 19.9969 23.7936 20.1641 23.6614 20.3671C23.5103 20.597 23.4302 20.8647 23.4307 21.1381V48.6296L35.4295 53.9589L37.1202 54.7096L39.7906 55.8956C39.9469 55.9648 40.1166 56.0006 40.2882 56.0006C40.4598 56.0006 40.6294 55.9648 40.7858 55.8956L43.4561 54.7096L51.8134 50.9982L59.6026 47.5381L68.0235 43.7997V21.1381C68.0233 20.7578 67.869 20.3932 67.5946 20.1244C67.3202 19.8555 66.9481 19.7043 66.56 19.7041Z" fill="#A6AFB8"/>
<path d="M57.6319 38.3701H33.8235C33.2821 38.3705 32.7619 38.6301 32.3718 39.0944C31.9818 39.5588 31.7521 40.1919 31.731 40.8611C31.7282 40.8949 31.7271 40.9288 31.7277 40.9627C31.7285 41.65 31.9495 42.3089 32.3424 42.7949C32.7353 43.2809 33.2679 43.5544 33.8235 43.5553H57.6319C58.1877 43.5553 58.7208 43.2822 59.1138 42.796C59.5069 42.3098 59.7277 41.6503 59.7277 40.9627C59.7277 40.2751 59.5069 39.6157 59.1138 39.1295C58.7208 38.6433 58.1877 38.3701 57.6319 38.3701Z" fill="white"/>
<path d="M59.4717 47.1615C59.0871 46.8415 58.5974 46.6661 58.0912 46.667H33.8605C33.2948 46.667 32.7523 46.8855 32.3523 47.2745C31.9523 47.6634 31.7275 48.191 31.7275 48.7411C31.7275 49.2912 31.9523 49.8187 32.3523 50.2077C32.7523 50.5966 33.2948 50.8152 33.8605 50.8152H52.008L59.7277 47.412C59.6498 47.3216 59.5642 47.2378 59.4717 47.1615Z" fill="white"/>
<path d="M52.3398 29.3623C52.1915 28.963 51.9222 28.6182 51.5684 28.3746C51.2145 28.1309 50.7932 28.0002 50.3614 28H41.0928C40.6882 28.0004 40.2922 28.1154 39.9521 28.3314C39.6121 28.5473 39.3423 28.8551 39.1751 29.2179C39.0503 29.4866 38.9859 29.7786 38.9863 30.0741C38.9871 30.6239 39.2093 31.151 39.6042 31.5398C39.9991 31.9286 40.5344 32.1474 41.0928 32.1482H50.3614C50.7003 32.1482 51.0341 32.0677 51.3347 31.9136C51.6352 31.7594 51.8936 31.5362 52.0877 31.2627C52.2819 30.9893 52.4063 30.6737 52.4501 30.3429C52.494 30.012 52.4562 29.6756 52.3398 29.3623Z" fill="white"/>
<path d="M77.5092 80H2.49084C1.83046 79.9991 1.19734 79.6956 0.730376 79.1561C0.263413 78.6166 0.000744038 77.8851 0 77.122V39.878C0.000744038 39.1149 0.263413 38.3834 0.730376 37.8439C1.19734 37.3044 1.83046 37.0009 2.49084 37L2.54779 37.0134L35.5541 53.102C36.9621 53.7836 38.4734 54.1346 40 54.1346C41.5266 54.1346 43.0379 53.7836 44.4459 53.102L77.4795 37H77.5092C78.1696 37.0009 78.8027 37.3044 79.2696 37.8439C79.7366 38.3834 79.9993 39.115 80 39.878V77.1221C79.9993 77.8851 79.7366 78.6166 79.2696 79.1561C78.8027 79.6957 78.1696 79.9991 77.5092 80Z" fill="#CDE6FF"/>
</svg>
