<svg width="650" height="430" viewBox="0 0 650 430" fill="none" xmlns="http://www.w3.org/2000/svg">
<path opacity="0.1" d="M588.617 368.034C583.771 370.533 578.693 372.691 573.691 374.809C555.184 382.618 536.392 390.509 516.518 393.192C479.172 398.196 433.61 375.89 396.924 384.387C366.193 391.481 340.779 413.221 310.756 422.902C296.797 427.403 282.272 429.166 267.618 429.166H265.726C263.922 429.166 262.125 429.098 260.322 429.03C245.464 428.472 230.544 426.307 215.979 423.467C169.989 414.616 123.182 398.392 88.0208 368.523C191.518 368.523 406.25 368.034 588.617 368.034Z" fill="#252223"/>
<path opacity="0.3" d="M619.372 169.532V125.957H593.508V169.532H562.88V102.128H540.419V51.7446H522.042V0H483.927V51.7446H465.55V102.128H443.77V41.5319H431.518V10.8936H424.031V41.5319H380.471V234.893H347.12V214.468H326.702V234.893H293.351V169.532H233.456V125.957H207.592V169.532H206.23V253.276H179.005V204.255H146.335V253.276H119.11V102.128H98.0105V51.7446H20.4188V102.128H0V368.34H119.11H206.23H293.351H380.471H443.77H562.88H650V169.532H619.372Z" fill="#096BEF"/>
<path opacity="0.4" d="M41.5183 117.787H12.9319V134.128H41.5183V117.787Z" fill="white"/>
<path opacity="0.4" d="M76.9109 134.128H105.497V117.788H76.9109V134.128Z" fill="white"/>
<path opacity="0.4" d="M41.5183 149.787H12.9319V166.128H41.5183V149.787Z" fill="white"/>
<path opacity="0.4" d="M76.9109 166.127H105.497V149.787H76.9109V166.127Z" fill="white"/>
<path opacity="0.4" d="M41.5183 181.787H12.9319V198.128H41.5183V181.787Z" fill="white"/>
<path opacity="0.4" d="M76.9109 198.127H105.497V181.787H76.9109V198.127Z" fill="white"/>
<path opacity="0.4" d="M41.5183 213.787H12.9319V230.128H41.5183V213.787Z" fill="white"/>
<path opacity="0.4" d="M76.9109 230.127H105.497V213.787H76.9109V230.127Z" fill="white"/>
<path opacity="0.4" d="M41.5183 245.787H12.9319V262.127H41.5183V245.787Z" fill="white"/>
<path opacity="0.4" d="M76.9109 262.127H105.497V245.787H76.9109V262.127Z" fill="white"/>
<path opacity="0.4" d="M41.5183 277.787H12.9319V294.128H41.5183V277.787Z" fill="white"/>
<path opacity="0.4" d="M76.9109 294.127H105.497V277.787H76.9109V294.127Z" fill="white"/>
<path opacity="0.4" d="M41.5183 309.787H12.9319V326.128H41.5183V309.787Z" fill="white"/>
<path opacity="0.4" d="M76.9109 326.127H105.497V309.787H76.9109V326.127Z" fill="white"/>
<path opacity="0.4" d="M196.021 269.617H129.32V277.787H196.021V269.617Z" fill="white"/>
<path opacity="0.4" d="M196.021 281.872H129.32V290.042H196.021V281.872Z" fill="white"/>
<path opacity="0.4" d="M196.021 294.127H129.32V302.297H196.021V294.127Z" fill="white"/>
<path opacity="0.4" d="M370.262 273.702H303.56V281.872H370.262V273.702Z" fill="white"/>
<path opacity="0.4" d="M370.262 285.957H303.56V294.127H370.262V285.957Z" fill="white"/>
<path opacity="0.4" d="M370.262 298.212H303.56V306.382H370.262V298.212Z" fill="white"/>
<path opacity="0.4" d="M196.021 306.383H129.32V314.553H196.021V306.383Z" fill="white"/>
<path opacity="0.4" d="M196.021 318.638H129.32V326.808H196.021V318.638Z" fill="white"/>
<path opacity="0.4" d="M196.021 330.893H129.32V339.063H196.021V330.893Z" fill="white"/>
<path opacity="0.4" d="M238.9 185.191H220.523V209.021H238.9V185.191Z" fill="white"/>
<path opacity="0.4" d="M260.68 209.021H279.057V185.192H260.68V209.021Z" fill="white"/>
<path opacity="0.4" d="M238.9 223.318H220.523V247.148H238.9V223.318Z" fill="white"/>
<path opacity="0.4" d="M260.68 247.148H279.057V223.319H260.68V247.148Z" fill="white"/>
<path opacity="0.4" d="M238.9 261.446H220.523V285.276H238.9V261.446Z" fill="white"/>
<path opacity="0.4" d="M260.68 285.276H279.057V261.447H260.68V285.276Z" fill="white"/>
<path opacity="0.4" d="M238.9 299.574H220.523V323.404H238.9V299.574Z" fill="white"/>
<path opacity="0.4" d="M260.68 323.404H279.057V299.575H260.68V323.404Z" fill="white"/>
<path opacity="0.4" d="M404.974 57.1914H380.471V88.5105H404.974V57.1914Z" fill="white"/>
<path opacity="0.4" d="M404.974 102.128H380.471V133.447H404.974V102.128Z" fill="white"/>
<path opacity="0.4" d="M404.974 147.063H380.471V178.383H404.974V147.063Z" fill="white"/>
<path opacity="0.4" d="M404.974 192H380.471V223.319H404.974V192Z" fill="white"/>
<path opacity="0.4" d="M404.974 236.936H380.471V268.255H404.974V236.936Z" fill="white"/>
<path opacity="0.4" d="M404.974 281.872H380.471V313.191H404.974V281.872Z" fill="white"/>
<path opacity="0.4" d="M548.927 121.191H457.723V147.745H548.927V121.191Z" fill="white"/>
<path opacity="0.4" d="M549.267 178.383H458.063V204.936H549.267V178.383Z" fill="white"/>
<path opacity="0.4" d="M549.607 235.574H458.403V262.127H549.607V235.574Z" fill="white"/>
<path opacity="0.4" d="M549.948 292.766H458.743V319.319H549.948V292.766Z" fill="white"/>
<path d="M458.34 131.672C458.34 131.672 459.696 149.984 459.696 150.663C459.696 151.341 450.206 198.14 450.206 198.14C450.206 198.14 436.65 223.913 450.206 223.235C463.763 222.557 459.696 198.818 459.696 198.818L473.93 159.48L467.83 131.672L458.34 131.672Z" fill="#A0616A"/>
<path d="M464.562 178.551H195.206V367.881H464.562V178.551Z" fill="#F2F2F2"/>
<path d="M285.513 250.789H217.88V368.925H285.513V250.789Z" fill="#5C6C7A"/>
<path d="M248.609 257.876H230.391V274.87H248.609V257.876Z" fill="#F2F2F2"/>
<path d="M273.003 257.876H254.785V274.87H273.003V257.876Z" fill="#F2F2F2"/>
<path d="M248.609 281.049H230.391V298.66H248.609V281.049Z" fill="#F2F2F2"/>
<path d="M273.003 281.049H254.785V298.66H273.003V281.049Z" fill="#F2F2F2"/>
<path d="M276.912 322.114C279.287 322.114 281.212 320.187 281.212 317.811C281.212 315.434 279.287 313.508 276.912 313.508C274.537 313.508 272.612 315.434 272.612 317.811C272.612 320.187 274.537 322.114 276.912 322.114Z" fill="#3A89F2"/>
<path d="M441.888 239.575H308.187V351.843H441.888V239.575Z" fill="#5C6C7A"/>
<path d="M492.71 214.196H167.059L188.771 168.772L193.631 158.601L199.988 145.301L204.847 135.131L210.48 123.349H467.053L470.38 135.131L473.253 145.301L477.01 158.601L479.883 168.772L492.71 214.196Z" fill="#5C6C7A"/>
<path d="M317.57 286.125H312.878V315.072H317.57V286.125Z" fill="#3A89F2"/>
<path d="M317.57 290.428H312.878V293.948H317.57V290.428Z" fill="#F2F2F2"/>
<path d="M317.57 307.249H312.878V310.77H317.57V307.249Z" fill="#F2F2F2"/>
<path d="M331.252 286.125H319.915V315.072H331.252V286.125Z" fill="#3A89F2"/>
<path d="M331.252 290.428H319.915V293.948H331.252V290.428Z" fill="#F2F2F2"/>
<path d="M331.252 307.249H319.915V310.77H331.252V307.249Z" fill="#F2F2F2"/>
<path d="M338.68 286.125H333.989V315.072H338.68V286.125Z" fill="#3A89F2"/>
<path d="M338.68 290.428H333.989V293.948H338.68V290.428Z" fill="#F2F2F2"/>
<path d="M338.68 307.249H333.989V310.77H338.68V307.249Z" fill="#F2F2F2"/>
<path d="M345.717 286.125H341.026V315.072H345.717V286.125Z" fill="#3A89F2"/>
<path d="M345.717 290.428H341.026V293.948H345.717V290.428Z" fill="#F2F2F2"/>
<path d="M345.717 307.249H341.026V310.77H345.717V307.249Z" fill="#F2F2F2"/>
<path d="M350.238 286.227L345.848 287.883L356.052 314.969L360.442 313.314L350.238 286.227Z" fill="#3A89F2"/>
<path d="M351.755 290.253L347.365 291.909L348.606 295.204L352.996 293.548L351.755 290.253Z" fill="#F2F2F2"/>
<path d="M357.684 305.993L353.294 307.648L354.535 310.943L358.925 309.287L357.684 305.993Z" fill="#F2F2F2"/>
<path d="M437.588 286.125H426.25V315.072H437.588V286.125Z" fill="#3A89F2"/>
<path d="M437.588 290.428H426.25V293.948H437.588V290.428Z" fill="#F2F2F2"/>
<path d="M437.588 307.249H426.25V310.77H437.588V307.249Z" fill="#F2F2F2"/>
<path d="M423.514 286.125H418.823V315.072H423.514V286.125Z" fill="#3A89F2"/>
<path d="M423.514 290.428H418.823V293.948H423.514V290.428Z" fill="#F2F2F2"/>
<path d="M423.514 307.249H418.823V310.77H423.514V307.249Z" fill="#F2F2F2"/>
<path d="M416.477 286.125H411.786V315.072H416.477V286.125Z" fill="#3A89F2"/>
<path d="M416.477 290.428H411.786V293.948H416.477V290.428Z" fill="#F2F2F2"/>
<path d="M416.477 307.249H411.786V310.77H416.477V307.249Z" fill="#F2F2F2"/>
<path d="M407.265 286.228L397.061 313.314L401.451 314.97L411.655 287.884L407.265 286.228Z" fill="#3A89F2"/>
<path d="M405.748 290.254L404.507 293.548L408.897 295.204L410.138 291.909L405.748 290.254Z" fill="#F2F2F2"/>
<path d="M399.819 305.993L398.578 309.287L402.968 310.943L404.209 307.649L399.819 305.993Z" fill="#F2F2F2"/>
<path d="M441.888 315.072H308.187V317.811H441.888V315.072Z" fill="#F2F2F2"/>
<path d="M391.066 286.125H366.437V315.072H391.066V286.125Z" fill="#3A89F2"/>
<path d="M385.007 292.384H372.497V297.86H385.007V292.384Z" fill="#F2F2F2"/>
<path d="M376.21 239.575H373.865V264.611H376.21V239.575Z" fill="#F2F2F2"/>
<path d="M375.038 268.522C377.197 268.522 378.947 266.77 378.947 264.61C378.947 262.45 377.197 260.698 375.038 260.698C372.879 260.698 371.128 262.45 371.128 264.61C371.128 266.77 372.879 268.522 375.038 268.522Z" fill="#F2F2F2"/>
<path d="M473.253 145.3H199.988L204.847 135.13H470.38L473.253 145.3Z" fill="#4E9AFF"/>
<path d="M479.883 168.771H188.771L193.631 158.601H477.01L479.883 168.771Z" fill="#4E9AFF"/>
<path d="M180.394 265.997C204.166 265.997 223.437 246.942 223.437 223.437C223.437 199.932 204.166 180.878 180.394 180.878C156.622 180.878 137.351 199.932 137.351 223.437C137.351 246.942 156.622 265.997 180.394 265.997Z" fill="#096BEF"/>
<path opacity="0.1" d="M180.394 260.194C200.961 260.194 217.634 243.737 217.634 223.438C217.634 203.138 200.961 186.682 180.394 186.682C159.828 186.682 143.155 203.138 143.155 223.438C143.155 243.737 159.828 260.194 180.394 260.194Z" fill="black"/>
<path d="M178.328 245.684V240.211C175.628 240.157 172.835 239.181 171.205 237.826L172.322 234.195C174.259 235.682 176.607 236.498 179.026 236.525C182.331 236.525 184.566 234.303 184.566 231.214C184.566 228.234 182.75 226.391 179.305 224.765C174.557 222.597 171.624 220.104 171.624 215.39C171.624 210.891 174.371 207.477 178.654 206.664V201.19H181.54V206.447C183.692 206.477 185.791 207.135 187.592 208.344L186.428 211.921C184.701 210.71 182.655 210.067 180.562 210.078C176.978 210.078 175.628 212.571 175.628 214.739C175.628 217.557 177.35 218.966 181.4 220.917C186.195 223.194 188.616 226.012 188.616 230.835C188.616 235.116 186.056 239.127 181.261 240.048V245.684H178.328Z" fill="#F2F2F2"/>
<path d="M650 368.026H0V368.977H650V368.026Z" fill="#2F2E41"/>
<path opacity="0.4" d="M32.67 66.043H20.4187V91.9153H32.67V66.043Z" fill="white"/>
<path opacity="0.4" d="M650 185.191H619.372V224.681H650V185.191Z" fill="white"/>
<path opacity="0.4" d="M650 242.383H619.372V281.872H650V242.383Z" fill="white"/>
<path opacity="0.4" d="M650 299.574H619.372V339.064H650V299.574Z" fill="white"/>
<path d="M33.8069 326.502C33.8069 326.502 -19.779 358.843 79.0006 408.633C79.0006 408.633 100.781 368.218 76.7001 335.265C72.0295 328.84 65.165 324.352 57.4075 322.651C49.65 320.951 41.5384 322.157 34.61 326.039L33.8069 326.502Z" fill="#096BEF"/>
<path d="M96.3089 201.913C96.3089 208.899 83.6629 229.147 83.6629 229.147C83.6629 229.147 71.01 208.879 71.01 201.913C70.9709 200.227 71.2692 198.55 71.8873 196.98C72.5054 195.411 73.4309 193.981 74.6094 192.774C75.7879 191.568 77.1956 190.609 78.7497 189.955C80.3039 189.3 81.9732 188.963 83.6595 188.963C85.3458 188.963 87.0151 189.3 88.5692 189.955C90.1234 190.609 91.5311 191.568 92.7096 192.774C93.888 193.981 94.8135 195.411 95.4317 196.98C96.0498 198.55 96.3481 200.227 96.3089 201.913Z" fill="#096BEF"/>
<path d="M117.245 240.626C113.447 246.495 91.8169 256.626 91.8169 256.626C91.8169 256.626 92.2048 232.735 96.0028 226.872C97.8474 224.103 100.708 222.173 103.965 221.498C107.222 220.823 110.614 221.458 113.407 223.266C116.199 225.074 118.168 227.909 118.886 231.158C119.604 234.407 119.015 237.808 117.245 240.626Z" fill="#096BEF"/>
<path d="M116.326 306.785C110.091 309.93 86.3035 307.752 86.3035 307.752C86.3035 307.752 98.6977 287.326 104.939 284.181C107.93 282.72 111.375 282.497 114.529 283.56C117.683 284.623 120.292 286.886 121.789 289.859C123.287 292.832 123.554 296.275 122.531 299.444C121.508 302.612 119.279 305.249 116.326 306.785Z" fill="#096BEF"/>
<path d="M104.368 356.683C98.7525 360.836 74.9441 362.715 74.9441 362.715C74.9441 362.715 83.7038 340.486 89.3258 336.332C92.0276 334.415 95.3735 333.634 98.6448 334.157C101.916 334.68 104.852 336.466 106.821 339.13C108.791 341.795 109.637 345.126 109.178 348.408C108.72 351.69 106.992 354.661 104.368 356.683Z" fill="#096BEF"/>
<path d="M65.2519 257.981C70.2613 262.849 93.6137 267.894 93.6137 267.894C93.6137 267.894 87.8964 244.698 82.8802 239.83C81.6887 238.672 80.281 237.76 78.7372 237.146C77.1935 236.533 75.5441 236.229 73.8832 236.253C72.2222 236.277 70.5822 236.628 69.0569 237.286C67.5316 237.944 66.1507 238.897 64.9933 240.088C63.8358 241.28 62.9243 242.688 62.3109 244.233C61.6974 245.777 61.3941 247.427 61.4181 249.088C61.4421 250.75 61.793 252.39 62.4508 253.916C63.1086 255.442 64.0604 256.823 65.2519 257.981Z" fill="#096BEF"/>
<path d="M52.0068 316.514C58.2413 319.666 82.0293 317.487 82.0293 317.487C82.0293 317.487 69.6351 297.062 63.4005 293.916C61.9134 293.128 60.2841 292.645 58.608 292.495C56.9319 292.345 55.2427 292.53 53.6392 293.041C52.0357 293.552 50.5502 294.378 49.2696 295.47C47.9891 296.562 46.9391 297.898 46.1813 299.401C45.4235 300.904 44.973 302.544 44.8562 304.223C44.7394 305.902 44.9587 307.588 45.5011 309.181C46.0436 310.775 46.8984 312.244 48.0155 313.503C49.1326 314.762 50.4895 315.786 52.0068 316.514Z" fill="#096BEF"/>
<path d="M46.9364 375.175C52.5516 379.328 76.3667 381.208 76.3667 381.208C76.3667 381.208 67.6003 358.978 61.9783 354.825C59.2764 352.907 55.9305 352.126 52.6592 352.649C49.3879 353.172 46.4522 354.958 44.4826 357.622C42.5131 360.287 41.6668 363.618 42.1256 366.9C42.5844 370.182 44.3117 373.153 46.9364 375.175Z" fill="#096BEF"/>
<path opacity="0.25" d="M96.3089 201.913C96.3089 208.899 83.6629 229.147 83.6629 229.147C83.6629 229.147 71.01 208.879 71.01 201.913C70.9709 200.227 71.2692 198.55 71.8873 196.98C72.5054 195.411 73.4309 193.981 74.6094 192.774C75.7879 191.568 77.1956 190.609 78.7497 189.955C80.3039 189.3 81.9732 188.963 83.6595 188.963C85.3458 188.963 87.0151 189.3 88.5692 189.955C90.1234 190.609 91.5311 191.568 92.7096 192.774C93.888 193.981 94.8135 195.411 95.4317 196.98C96.0498 198.55 96.3481 200.227 96.3089 201.913Z" fill="black"/>
<path opacity="0.25" d="M117.245 240.626C113.447 246.495 91.8169 256.626 91.8169 256.626C91.8169 256.626 92.2048 232.735 96.0028 226.872C97.8474 224.103 100.708 222.173 103.965 221.498C107.222 220.823 110.614 221.458 113.407 223.266C116.199 225.074 118.168 227.909 118.886 231.158C119.604 234.407 119.015 237.808 117.245 240.626Z" fill="black"/>
<path opacity="0.25" d="M116.326 306.785C110.091 309.93 86.3035 307.752 86.3035 307.752C86.3035 307.752 98.6977 287.326 104.939 284.181C107.93 282.72 111.375 282.497 114.529 283.56C117.683 284.623 120.292 286.886 121.789 289.859C123.287 292.832 123.554 296.275 122.531 299.444C121.508 302.612 119.279 305.249 116.326 306.785Z" fill="black"/>
<path opacity="0.25" d="M104.368 356.683C98.7525 360.836 74.9441 362.715 74.9441 362.715C74.9441 362.715 83.7038 340.486 89.3258 336.332C92.0276 334.415 95.3735 333.634 98.6448 334.157C101.916 334.68 104.852 336.466 106.821 339.13C108.791 341.795 109.637 345.126 109.178 348.408C108.72 351.69 106.992 354.661 104.368 356.683Z" fill="black"/>
<path opacity="0.25" d="M65.2519 257.981C70.2613 262.849 93.6137 267.894 93.6137 267.894C93.6137 267.894 87.8964 244.698 82.8802 239.83C81.6887 238.672 80.281 237.76 78.7372 237.146C77.1935 236.533 75.5441 236.229 73.8832 236.253C72.2222 236.277 70.5822 236.628 69.0569 237.286C67.5316 237.944 66.1507 238.897 64.9933 240.088C63.8358 241.28 62.9243 242.688 62.3109 244.233C61.6974 245.777 61.3941 247.427 61.4181 249.088C61.4421 250.75 61.793 252.39 62.4508 253.916C63.1086 255.442 64.0604 256.823 65.2519 257.981Z" fill="black"/>
<path opacity="0.25" d="M52.0068 316.514C58.2413 319.666 82.0293 317.487 82.0293 317.487C82.0293 317.487 69.6351 297.062 63.4005 293.916C61.9134 293.128 60.2841 292.645 58.608 292.495C56.9319 292.345 55.2427 292.53 53.6392 293.041C52.0357 293.552 50.5502 294.378 49.2696 295.47C47.9891 296.562 46.9391 297.898 46.1813 299.401C45.4235 300.904 44.973 302.544 44.8562 304.223C44.7394 305.902 44.9587 307.588 45.5011 309.181C46.0436 310.775 46.8984 312.244 48.0155 313.503C49.1326 314.762 50.4895 315.786 52.0068 316.514Z" fill="black"/>
<path d="M605.61 395.744C605.61 395.744 588.819 338.716 608.761 296.741C617.126 279.128 619.91 259.349 616.044 240.231C614.191 231.155 611.514 222.267 608.046 213.678" stroke="#535461" stroke-width="2" stroke-miterlimit="10"/>
<path d="M620.454 187.186C620.454 194.172 607.801 214.42 607.801 214.42C607.801 214.42 595.148 194.151 595.148 187.186C595.148 183.829 596.481 180.61 598.854 178.236C601.227 175.863 604.445 174.529 607.801 174.529C611.157 174.529 614.375 175.863 616.748 178.236C619.121 180.61 620.454 183.829 620.454 187.186Z" fill="#096BEF"/>
<path d="M641.363 225.899C637.565 231.768 615.935 241.899 615.935 241.899C615.935 241.899 616.329 218.008 620.127 212.146C621.95 209.329 624.818 207.352 628.098 206.649C631.379 205.947 634.803 206.577 637.62 208.401C640.436 210.225 642.412 213.093 643.114 216.374C643.816 219.656 643.186 223.082 641.363 225.899Z" fill="#096BEF"/>
<path d="M640.451 292.057C634.209 295.203 610.421 293.024 610.421 293.024C610.421 293.024 622.822 272.599 629.057 269.453C632.054 267.942 635.528 267.683 638.715 268.734C641.902 269.785 644.541 272.059 646.052 275.056C647.563 278.054 647.822 281.529 646.771 284.717C645.721 287.906 643.447 290.546 640.451 292.057Z" fill="#096BEF"/>
<path d="M628.492 341.957C622.87 346.11 599.062 347.989 599.062 347.989C599.062 347.989 607.828 325.759 613.444 321.606C616.143 319.642 619.509 318.824 622.809 319.332C626.108 319.839 629.074 321.63 631.059 324.315C633.044 326.999 633.888 330.36 633.408 333.664C632.927 336.969 631.16 339.95 628.492 341.957Z" fill="#096BEF"/>
<path d="M589.37 243.234C594.386 248.102 617.732 253.147 617.732 253.147C617.732 253.147 612.014 229.95 607.005 225.082C605.819 223.897 604.41 222.959 602.858 222.323C601.307 221.687 599.645 221.366 597.969 221.378C596.292 221.39 594.635 221.736 593.093 222.394C591.551 223.053 590.156 224.011 588.987 225.214C587.819 226.416 586.901 227.839 586.287 229.4C585.673 230.96 585.375 232.627 585.411 234.304C585.446 235.98 585.815 237.633 586.494 239.166C587.174 240.699 588.151 242.082 589.37 243.234Z" fill="#096BEF"/>
<path d="M576.152 301.787C582.393 304.939 606.181 302.761 606.181 302.761C606.181 302.761 593.787 282.335 587.546 279.19C586.059 278.402 584.429 277.919 582.753 277.768C581.077 277.618 579.388 277.804 577.784 278.315C576.181 278.825 574.695 279.651 573.415 280.743C572.134 281.835 571.084 283.172 570.327 284.675C569.569 286.178 569.118 287.817 569.001 289.496C568.885 291.176 569.104 292.861 569.646 294.455C570.189 296.048 571.044 297.518 572.161 298.777C573.278 300.036 574.635 301.059 576.152 301.787Z" fill="#096BEF"/>
<path d="M571.054 360.449C576.676 364.602 600.484 366.481 600.484 366.481C600.484 366.481 591.718 344.258 586.103 340.098C583.403 338.134 580.037 337.316 576.738 337.824C573.438 338.331 570.473 340.122 568.487 342.807C566.502 345.491 565.658 348.852 566.139 352.157C566.62 355.461 568.386 358.442 571.054 360.449Z" fill="#096BEF"/>
<path d="M529.869 390.196C529.869 390.196 520.844 359.557 531.564 336.994C536.115 327.561 537.488 316.907 535.477 306.628C534.481 301.754 533.041 296.982 531.176 292.371" stroke="#535461" stroke-width="2" stroke-miterlimit="10"/>
<path d="M537.846 278.114C537.846 281.872 531.04 292.766 531.04 292.766C531.04 292.766 524.234 281.872 524.234 278.114C524.234 276.308 524.951 274.577 526.227 273.3C527.504 272.023 529.235 271.306 531.04 271.306C532.845 271.306 534.576 272.023 535.853 273.3C537.129 274.577 537.846 276.308 537.846 278.114Z" fill="#096BEF"/>
<path d="M549.083 298.92C547.041 302.073 535.416 307.52 535.416 307.52C535.416 307.52 535.627 294.679 537.669 291.526C538.687 290.101 540.215 289.122 541.936 288.795C543.657 288.467 545.437 288.816 546.907 289.768C548.378 290.721 549.424 292.204 549.829 293.908C550.235 295.613 549.967 297.408 549.083 298.92Z" fill="#096BEF"/>
<path d="M548.593 334.467C545.238 336.156 532.456 334.985 532.456 334.985C532.456 334.985 539.119 324.009 542.468 322.321C544.067 321.598 545.883 321.521 547.537 322.106C549.192 322.69 550.557 323.892 551.347 325.459C552.137 327.026 552.292 328.838 551.779 330.516C551.266 332.195 550.125 333.61 548.593 334.467Z" fill="#096BEF"/>
<path d="M542.161 361.286C539.146 363.52 526.35 364.527 526.35 364.527C526.35 364.527 531.06 352.585 534.082 350.352C534.795 349.763 535.62 349.324 536.508 349.065C537.396 348.805 538.327 348.729 539.245 348.841C540.163 348.954 541.049 349.252 541.848 349.718C542.647 350.184 543.343 350.809 543.892 351.553C544.442 352.297 544.834 353.145 545.046 354.046C545.257 354.947 545.282 355.881 545.12 356.792C544.958 357.703 544.612 358.571 544.103 359.344C543.595 360.117 542.934 360.778 542.161 361.286Z" fill="#096BEF"/>
<path d="M521.143 308.248C523.866 310.862 536.383 313.572 536.383 313.572C536.383 313.572 533.313 301.106 530.618 298.491C529.988 297.819 529.229 297.282 528.386 296.912C527.543 296.542 526.633 296.346 525.712 296.338C524.792 296.33 523.879 296.509 523.029 296.863C522.179 297.218 521.41 297.742 520.769 298.402C520.127 299.063 519.626 299.847 519.297 300.707C518.967 301.567 518.815 302.485 518.85 303.405C518.885 304.326 519.106 305.229 519.5 306.062C519.895 306.894 520.454 307.638 521.143 308.248Z" fill="#096BEF"/>
<path d="M514.024 339.703C517.38 341.392 530.162 340.228 530.162 340.228C530.162 340.228 523.498 329.252 520.143 327.557C518.544 326.834 516.728 326.757 515.073 327.342C513.419 327.927 512.054 329.128 511.264 330.695C510.473 332.262 510.319 334.074 510.832 335.752C511.345 337.431 512.486 338.846 514.017 339.703H514.024Z" fill="#096BEF"/>
<path d="M511.301 371.233C514.317 373.466 527.112 374.474 527.112 374.474C527.112 374.474 522.382 362.525 519.387 360.292C517.933 359.302 516.152 358.915 514.418 359.21C512.685 359.505 511.132 360.46 510.087 361.874C509.041 363.289 508.584 365.054 508.81 366.798C509.037 368.543 509.929 370.132 511.301 371.233Z" fill="#096BEF"/>
<path opacity="0.1" d="M347.583 114.846H342.901C343.344 114.866 343.786 114.796 344.201 114.641C344.616 114.485 344.996 114.247 345.316 113.941C345.637 113.634 345.892 113.266 346.066 112.858C346.241 112.45 346.331 112.011 346.331 111.568C346.331 111.124 346.241 110.685 346.066 110.278C345.892 109.87 345.637 109.501 345.316 109.195C344.996 108.889 344.616 108.65 344.201 108.495C343.786 108.339 343.344 108.269 342.901 108.29H304.969C304.526 108.269 304.084 108.339 303.669 108.495C303.253 108.65 302.874 108.889 302.554 109.195C302.233 109.501 301.978 109.87 301.803 110.278C301.629 110.685 301.539 111.124 301.539 111.568C301.539 112.011 301.629 112.45 301.803 112.858C301.978 113.266 302.233 113.634 302.554 113.941C302.874 114.247 303.253 114.485 303.669 114.641C304.084 114.796 304.526 114.866 304.969 114.846H309.652C308.782 114.846 307.947 115.192 307.332 115.807C306.717 116.423 306.371 117.257 306.371 118.128C306.371 118.998 306.717 119.833 307.332 120.448C307.947 121.064 308.782 121.41 309.652 121.41H303.097C302.655 121.389 302.212 121.459 301.797 121.615C301.382 121.77 301.002 122.009 300.682 122.315C300.361 122.621 300.106 122.99 299.932 123.398C299.757 123.805 299.667 124.244 299.667 124.688C299.667 125.131 299.757 125.57 299.932 125.978C300.106 126.386 300.361 126.754 300.682 127.061C301.002 127.367 301.382 127.605 301.797 127.761C302.212 127.916 302.655 127.986 303.097 127.966H341.029C341.472 127.986 341.914 127.916 342.329 127.761C342.745 127.605 343.124 127.367 343.445 127.061C343.765 126.754 344.02 126.386 344.195 125.978C344.369 125.57 344.459 125.131 344.459 124.688C344.459 124.244 344.369 123.805 344.195 123.398C344.02 122.99 343.765 122.621 343.445 122.315C343.124 122.009 342.745 121.77 342.329 121.615C341.914 121.459 341.472 121.389 341.029 121.41H347.583C348.014 121.41 348.441 121.325 348.839 121.16C349.237 120.995 349.598 120.753 349.903 120.448C350.208 120.144 350.449 119.782 350.614 119.384C350.779 118.986 350.864 118.559 350.864 118.128C350.864 117.697 350.779 117.27 350.614 116.872C350.449 116.474 350.208 116.112 349.903 115.807C349.598 115.503 349.237 115.261 348.839 115.096C348.441 114.931 348.014 114.846 347.583 114.846Z" fill="#252223"/>
<path opacity="0.1" d="M186.234 10.4291H181.552C181.995 10.4493 182.437 10.3795 182.852 10.2239C183.268 10.0682 183.647 9.83 183.967 9.52359C184.288 9.21719 184.543 8.84895 184.718 8.44114C184.892 8.03332 184.982 7.59438 184.982 7.15084C184.982 6.7073 184.892 6.26836 184.718 5.86054C184.543 5.45272 184.288 5.08448 183.967 4.77808C183.647 4.47167 183.268 4.23346 182.852 4.07782C182.437 3.92218 181.995 3.85235 181.552 3.87254H143.62C143.177 3.85235 142.735 3.92218 142.32 4.07782C141.905 4.23346 141.525 4.47167 141.205 4.77808C140.884 5.08448 140.629 5.45272 140.455 5.86054C140.28 6.26836 140.19 6.7073 140.19 7.15084C140.19 7.59438 140.28 8.03332 140.455 8.44114C140.629 8.84895 140.884 9.21719 141.205 9.52359C141.525 9.83 141.905 10.0682 142.32 10.2239C142.735 10.3795 143.177 10.4493 143.62 10.4291H148.303C147.433 10.4291 146.599 10.7749 145.983 11.3903C145.368 12.0058 145.022 12.8405 145.022 13.7108C145.022 14.5812 145.368 15.4159 145.983 16.0313C146.599 16.6468 147.433 16.9925 148.303 16.9925H141.749C141.306 16.9723 140.863 17.0422 140.448 17.1978C140.033 17.3534 139.653 17.5917 139.333 17.8981C139.012 18.2045 138.757 18.5727 138.583 18.9805C138.408 19.3883 138.319 19.8273 138.319 20.2708C138.319 20.7143 138.408 21.1533 138.583 21.5611C138.757 21.9689 139.012 22.3372 139.333 22.6436C139.653 22.95 140.033 23.1882 140.448 23.3438C140.863 23.4995 141.306 23.5693 141.749 23.5491H179.68C180.123 23.5693 180.565 23.4995 180.981 23.3438C181.396 23.1882 181.775 22.95 182.096 22.6436C182.416 22.3372 182.672 21.9689 182.846 21.5611C183.02 21.1533 183.11 20.7143 183.11 20.2708C183.11 19.8273 183.02 19.3883 182.846 18.9805C182.672 18.5727 182.416 18.2045 182.096 17.8981C181.775 17.5917 181.396 17.3534 180.981 17.1978C180.565 17.0422 180.123 16.9723 179.68 16.9925H186.234C187.105 16.9925 187.939 16.6468 188.554 16.0313C189.169 15.4159 189.515 14.5812 189.515 13.7108C189.515 12.8405 189.169 12.0058 188.554 11.3903C187.939 10.7749 187.105 10.4291 186.234 10.4291Z" fill="#252223"/>
<path opacity="0.1" d="M631.175 37.5121H626.492C626.935 37.5323 627.377 37.4625 627.793 37.3069C628.208 37.1512 628.587 36.913 628.908 36.6066C629.228 36.3002 629.483 35.932 629.658 35.5241C629.832 35.1163 629.922 34.6774 629.922 34.2338C629.922 33.7903 629.832 33.3514 629.658 32.9435C629.483 32.5357 629.228 32.1675 628.908 31.8611C628.587 31.5547 628.208 31.3165 627.793 31.1608C627.377 31.0052 626.935 30.9354 626.492 30.9556H588.561C588.118 30.9354 587.675 31.0052 587.26 31.1608C586.845 31.3165 586.465 31.5547 586.145 31.8611C585.824 32.1675 585.569 32.5357 585.395 32.9435C585.22 33.3514 585.131 33.7903 585.131 34.2338C585.131 34.6774 585.22 35.1163 585.395 35.5241C585.569 35.932 585.824 36.3002 586.145 36.6066C586.465 36.913 586.845 37.1512 587.26 37.3069C587.675 37.4625 588.118 37.5323 588.561 37.5121H593.243C592.373 37.5121 591.539 37.8579 590.924 38.4733C590.308 39.0888 589.963 39.9235 589.963 40.7938C589.963 41.6642 590.308 42.4989 590.924 43.1143C591.539 43.7298 592.373 44.0755 593.243 44.0755H586.689C586.246 44.0553 585.803 44.1252 585.388 44.2808C584.973 44.4364 584.594 44.6747 584.273 44.9811C583.952 45.2875 583.697 45.6557 583.523 46.0635C583.349 46.4713 583.259 46.9103 583.259 47.3538C583.259 47.7974 583.349 48.2363 583.523 48.6441C583.697 49.0519 583.952 49.4202 584.273 49.7266C584.594 50.033 584.973 50.2712 585.388 50.4268C585.803 50.5825 586.246 50.6523 586.689 50.6321H624.62C625.063 50.6523 625.506 50.5825 625.921 50.4268C626.336 50.2712 626.715 50.033 627.036 49.7266C627.357 49.4202 627.612 49.0519 627.786 48.6441C627.96 48.2363 628.05 47.7974 628.05 47.3538C628.05 46.9103 627.96 46.4713 627.786 46.0635C627.612 45.6557 627.357 45.2875 627.036 44.9811C626.715 44.6747 626.336 44.4364 625.921 44.2808C625.506 44.1252 625.063 44.0553 624.62 44.0755H631.175C632.045 44.0755 632.879 43.7298 633.494 43.1143C634.11 42.4989 634.455 41.6642 634.455 40.7938C634.455 39.9235 634.11 39.0888 633.494 38.4733C632.879 37.8579 632.045 37.5121 631.175 37.5121Z" fill="#252223"/>
<path d="M33.8542 325.689C33.8542 325.689 79.7082 360.787 78.4286 408.501" stroke="#535461" stroke-miterlimit="10"/>
<path d="M80.9196 410.34C80.9196 410.34 64.1285 353.312 84.071 311.337C92.4359 293.724 95.2128 273.945 91.3469 254.827C89.5005 245.749 86.8234 236.861 83.3495 228.273" stroke="#535461" stroke-width="2" stroke-miterlimit="10"/>
<path opacity="0.25" d="M46.3644 375.044C51.9795 379.197 75.7947 381.077 75.7947 381.077C75.7947 381.077 67.0282 358.847 61.4062 354.694C58.7044 352.776 55.3585 351.995 52.0872 352.518C48.8159 353.041 45.8802 354.827 43.9106 357.492C41.9411 360.156 41.0948 363.487 41.5536 366.769C42.0124 370.051 43.7397 373.022 46.3644 375.044Z" fill="black"/>
</svg>
