<svg width="114" height="108" viewBox="0 0 114 108" fill="none" xmlns="http://www.w3.org/2000/svg">
<path d="M76.9407 105.116H3.8759C3.11344 105.115 2.38247 104.812 1.84332 104.273C1.30423 103.734 1.00095 103.003 1 102.24V34.3374C1.00095 33.5751 1.30423 32.8442 1.84332 32.3051C2.3824 31.766 3.11326 31.4627 3.87563 31.4618H76.9409C77.7033 31.4627 78.4342 31.766 78.9733 32.3051C79.5124 32.8442 79.8157 33.5752 79.8166 34.3377V102.24C79.8157 103.003 79.5124 103.734 78.9733 104.273C78.4341 104.812 77.7031 105.115 76.9407 105.116Z" fill="#3F3D56" fill-opacity="0.3" stroke="#E4E9EC"/>
<path d="M47.6025 30.2874L47.9561 29.9338L47.6025 30.2874C48.1416 30.8265 48.4449 31.5575 48.4458 32.32V104.624C48.4449 105.386 48.1416 106.117 47.6025 106.657C47.0634 107.196 46.3324 107.499 45.5699 107.5H35.2465C34.484 107.499 33.7531 107.196 33.2139 106.657C32.6748 106.117 32.3716 105.387 32.3706 104.624V32.3197C32.3716 31.5574 32.6748 30.8265 33.2139 30.2874C33.753 29.7483 34.4839 29.445 35.2462 29.4441H45.5702C46.3325 29.445 47.0634 29.7483 47.6025 30.2874Z" fill="#3F3D56" stroke="#E4E9EC"/>
<path d="M95.8551 24.2098C95.6542 27.5059 93.3124 30.4223 90.9168 32.5579C89.73 33.6158 88.5543 34.4606 87.6747 35.041C87.2354 35.3309 86.871 35.5541 86.6175 35.7043C86.5757 35.7291 86.5369 35.7518 86.5012 35.7726C86.4684 35.7477 86.4326 35.7203 86.3941 35.6907C86.1607 35.5108 85.8262 35.245 85.4253 34.9039C84.6226 34.221 83.5583 33.2397 82.5087 32.0455C80.3901 29.6348 78.4197 26.4557 78.6206 23.1596C78.8215 19.8635 81.1633 16.9471 83.559 14.8115C84.7457 13.7535 85.9214 12.9088 86.801 12.3284C87.2403 12.0385 87.6047 11.8153 87.8582 11.6651C87.9 11.6403 87.9389 11.6175 87.9745 11.5967C88.0073 11.6217 88.0431 11.649 88.0816 11.6787C88.315 11.8585 88.6495 12.1243 89.0504 12.4654C89.8531 13.1484 90.9174 14.1296 91.967 15.3239C94.0856 17.7346 96.056 20.9137 95.8551 24.2098Z" fill="#3F3D56" stroke="#E4E9EC"/>
<path d="M96.8113 45.5971C93.5145 45.4066 90.5909 43.0738 88.4478 40.6849C87.3861 39.5014 86.5377 38.3284 85.9546 37.4506C85.6633 37.0122 85.439 36.6485 85.288 36.3955C85.2631 36.3537 85.2402 36.315 85.2193 36.2794C85.2441 36.2465 85.2714 36.2106 85.3009 36.172C85.48 35.9381 85.7448 35.6027 86.0846 35.2007C86.765 34.396 87.743 33.3285 88.9339 32.2753C91.338 30.1492 94.511 28.1689 97.8077 28.3594C101.104 28.55 104.028 30.8827 106.171 33.2717C107.233 34.4552 108.081 35.6282 108.664 36.5059C108.956 36.9444 109.18 37.3081 109.331 37.5611C109.356 37.6028 109.379 37.6416 109.4 37.6771C109.375 37.7101 109.348 37.7459 109.318 37.7845C109.139 38.0185 108.874 38.3539 108.534 38.7558C107.854 39.5606 106.876 40.628 105.685 41.6813C103.281 43.8074 100.108 45.7877 96.8113 45.5971Z" fill="#3F3D56" stroke="#E4E9EC"/>
<path opacity="0.1" d="M73.7262 31.6603L79.6178 39.437V63.7036L55.3404 31.6603H73.7262Z" fill="black" stroke="#E4E9EC"/>
<path d="M102.008 83.1427H102.006C101.561 83.1436 101.123 83.0414 100.725 82.844C100.327 82.6467 99.9797 82.3595 99.7113 82.0053L99.7113 82.0052L45.9942 11.107L45.9942 11.107C45.7662 10.8061 45.5996 10.4631 45.5041 10.0978C45.4086 9.73252 45.386 9.35198 45.4376 8.97791C45.4892 8.60385 45.6139 8.24362 45.8047 7.91777C45.9954 7.59193 46.2485 7.30684 46.5495 7.0788C46.5495 7.0788 46.5495 7.0788 46.5495 7.0788L54.4624 1.08356L54.4624 1.08354C54.7633 0.855493 55.1063 0.688968 55.4716 0.593467C55.8369 0.497967 56.2174 0.475369 56.5915 0.526966C56.9655 0.578562 57.3257 0.703339 57.6515 0.894174C57.9774 1.08501 58.2624 1.33816 58.4903 1.63916L58.4904 1.63925L112.208 72.5371C112.436 72.838 112.602 73.181 112.698 73.5463C112.793 73.9116 112.816 74.2921 112.764 74.6662C112.713 75.0402 112.588 75.4005 112.397 75.7263C112.206 76.0522 111.953 76.3373 111.652 76.5653L103.739 82.5605L103.739 82.5609C103.241 82.939 102.633 83.1434 102.008 83.1427Z" fill="#C3C3CA" stroke="#E4E9EC"/>
<path d="M77.3036 51.7736L67.5957 38.9607L80.4086 29.2528L90.1165 42.0657L77.3036 51.7736Z" fill="#3F3D56" stroke="#E4E9EC"/>
</svg>
