<svg width="114" height="120" viewBox="0 0 114 120" fill="none" xmlns="http://www.w3.org/2000/svg">
<path d="M112.385 119.293H22.1734C21.7452 119.292 21.3348 119.122 21.0321 118.819C20.7293 118.517 20.5591 118.106 20.5586 117.678V19.2847C20.5591 18.8566 20.7293 18.4461 21.0321 18.1434C21.3348 17.8407 21.7452 17.6704 22.1734 17.6699H112.385C112.813 17.6704 113.224 17.8407 113.527 18.1434C113.829 18.4461 114 18.8566 114 19.2847V117.678C114 118.106 113.829 118.517 113.527 118.819C113.224 119.122 112.813 119.292 112.385 119.293ZM22.1734 18.3158C21.9165 18.3161 21.6702 18.4183 21.4886 18.5999C21.3069 18.7815 21.2048 19.0278 21.2045 19.2847V117.678C21.2048 117.935 21.3069 118.181 21.4886 118.363C21.6702 118.544 21.9165 118.647 22.1734 118.647H112.385C112.642 118.647 112.888 118.544 113.07 118.363C113.252 118.181 113.354 117.935 113.354 117.678V19.2847C113.354 19.0278 113.252 18.7815 113.07 18.5999C112.888 18.4183 112.642 18.3161 112.385 18.3158H22.1734Z" fill="#3F3D56" fill-opacity="0.5"/>
<path d="M40.7891 54.3454C41.9595 54.3454 42.9084 53.3966 42.9084 52.2262C42.9084 51.0557 41.9595 50.1069 40.7891 50.1069C39.6187 50.1069 38.6699 51.0557 38.6699 52.2262C38.6699 53.3966 39.6187 54.3454 40.7891 54.3454Z" fill="#3F3D56" fill-opacity="0.5"/>
<path d="M49.6197 54.3454C50.7902 54.3454 51.739 53.3966 51.739 52.2262C51.739 51.0557 50.7902 50.1069 49.6197 50.1069C48.4493 50.1069 47.5005 51.0557 47.5005 52.2262C47.5005 53.3966 48.4493 54.3454 49.6197 54.3454Z" fill="#3F3D56" fill-opacity="0.5"/>
<path d="M58.4497 54.3454C59.6201 54.3454 60.5689 53.3966 60.5689 52.2262C60.5689 51.0557 59.6201 50.1069 58.4497 50.1069C57.2793 50.1069 56.3305 51.0557 56.3305 52.2262C56.3305 53.3966 57.2793 54.3454 58.4497 54.3454Z" fill="#FBA600"/>
<path d="M67.279 54.3454C68.4494 54.3454 69.3982 53.3966 69.3982 52.2262C69.3982 51.0557 68.4494 50.1069 67.279 50.1069C66.1086 50.1069 65.1598 51.0557 65.1598 52.2262C65.1598 53.3966 66.1086 54.3454 67.279 54.3454Z" fill="#FBA600"/>
<path d="M76.1096 54.3454C77.28 54.3454 78.2288 53.3966 78.2288 52.2262C78.2288 51.0557 77.28 50.1069 76.1096 50.1069C74.9392 50.1069 73.9904 51.0557 73.9904 52.2262C73.9904 53.3966 74.9392 54.3454 76.1096 54.3454Z" fill="#FBA600"/>
<path d="M84.9402 54.3454C86.1107 54.3454 87.0595 53.3966 87.0595 52.2262C87.0595 51.0557 86.1107 50.1069 84.9402 50.1069C83.7698 50.1069 82.821 51.0557 82.821 52.2262C82.821 53.3966 83.7698 54.3454 84.9402 54.3454Z" fill="#3F3D56" fill-opacity="0.5"/>
<path d="M93.7695 54.3454C94.9399 54.3454 95.8888 53.3966 95.8888 52.2262C95.8888 51.0557 94.9399 50.1069 93.7695 50.1069C92.5991 50.1069 91.6503 51.0557 91.6503 52.2262C91.6503 53.3966 92.5991 54.3454 93.7695 54.3454Z" fill="#3F3D56" fill-opacity="0.5"/>
<path d="M40.7891 61.0563C41.9595 61.0563 42.9084 60.1075 42.9084 58.9371C42.9084 57.7667 41.9595 56.8179 40.7891 56.8179C39.6187 56.8179 38.6699 57.7667 38.6699 58.9371C38.6699 60.1075 39.6187 61.0563 40.7891 61.0563Z" fill="#3F3D56" fill-opacity="0.5"/>
<path d="M49.6197 61.0563C50.7902 61.0563 51.739 60.1075 51.739 58.9371C51.739 57.7667 50.7902 56.8179 49.6197 56.8179C48.4493 56.8179 47.5005 57.7667 47.5005 58.9371C47.5005 60.1075 48.4493 61.0563 49.6197 61.0563Z" fill="#3F3D56" fill-opacity="0.5"/>
<path d="M58.4497 61.0563C59.6201 61.0563 60.5689 60.1075 60.5689 58.9371C60.5689 57.7667 59.6201 56.8179 58.4497 56.8179C57.2793 56.8179 56.3305 57.7667 56.3305 58.9371C56.3305 60.1075 57.2793 61.0563 58.4497 61.0563Z" fill="#3F3D56" fill-opacity="0.5"/>
<path d="M67.279 61.0563C68.4494 61.0563 69.3982 60.1075 69.3982 58.9371C69.3982 57.7667 68.4494 56.8179 67.279 56.8179C66.1086 56.8179 65.1598 57.7667 65.1598 58.9371C65.1598 60.1075 66.1086 61.0563 67.279 61.0563Z" fill="#3F3D56" fill-opacity="0.5"/>
<path d="M76.1096 61.0563C77.28 61.0563 78.2288 60.1075 78.2288 58.9371C78.2288 57.7667 77.28 56.8179 76.1096 56.8179C74.9392 56.8179 73.9904 57.7667 73.9904 58.9371C73.9904 60.1075 74.9392 61.0563 76.1096 61.0563Z" fill="#3F3D56" fill-opacity="0.5"/>
<path d="M84.9402 61.0563C86.1107 61.0563 87.0595 60.1075 87.0595 58.9371C87.0595 57.7667 86.1107 56.8179 84.9402 56.8179C83.7698 56.8179 82.821 57.7667 82.821 58.9371C82.821 60.1075 83.7698 61.0563 84.9402 61.0563Z" fill="#3F3D56" fill-opacity="0.5"/>
<path d="M93.7695 61.0563C94.9399 61.0563 95.8888 60.1075 95.8888 58.9371C95.8888 57.7667 94.9399 56.8179 93.7695 56.8179C92.5991 56.8179 91.6503 57.7667 91.6503 58.9371C91.6503 60.1075 92.5991 61.0563 93.7695 61.0563Z" fill="#3F3D56" fill-opacity="0.5"/>
<path d="M40.7891 67.7673C41.9595 67.7673 42.9084 66.8185 42.9084 65.648C42.9084 64.4776 41.9595 63.5288 40.7891 63.5288C39.6187 63.5288 38.6699 64.4776 38.6699 65.648C38.6699 66.8185 39.6187 67.7673 40.7891 67.7673Z" fill="#FBA600"/>
<path d="M49.6197 67.7673C50.7902 67.7673 51.739 66.8185 51.739 65.648C51.739 64.4776 50.7902 63.5288 49.6197 63.5288C48.4493 63.5288 47.5005 64.4776 47.5005 65.648C47.5005 66.8185 48.4493 67.7673 49.6197 67.7673Z" fill="#FBA600"/>
<path d="M58.4497 67.7673C59.6201 67.7673 60.5689 66.8185 60.5689 65.648C60.5689 64.4776 59.6201 63.5288 58.4497 63.5288C57.2793 63.5288 56.3305 64.4776 56.3305 65.648C56.3305 66.8185 57.2793 67.7673 58.4497 67.7673Z" fill="#FBA600"/>
<path d="M67.279 67.7673C68.4494 67.7673 69.3982 66.8185 69.3982 65.648C69.3982 64.4776 68.4494 63.5288 67.279 63.5288C66.1086 63.5288 65.1598 64.4776 65.1598 65.648C65.1598 66.8185 66.1086 67.7673 67.279 67.7673Z" fill="#3F3D56" fill-opacity="0.5"/>
<path d="M76.1096 67.7673C77.28 67.7673 78.2288 66.8185 78.2288 65.648C78.2288 64.4776 77.28 63.5288 76.1096 63.5288C74.9392 63.5288 73.9904 64.4776 73.9904 65.648C73.9904 66.8185 74.9392 67.7673 76.1096 67.7673Z" fill="#3F3D56" fill-opacity="0.5"/>
<path d="M84.9402 67.7673C86.1107 67.7673 87.0595 66.8185 87.0595 65.648C87.0595 64.4776 86.1107 63.5288 84.9402 63.5288C83.7698 63.5288 82.821 64.4776 82.821 65.648C82.821 66.8185 83.7698 67.7673 84.9402 67.7673Z" fill="#3F3D56" fill-opacity="0.5"/>
<path d="M93.7695 67.7673C94.9399 67.7673 95.8888 66.8185 95.8888 65.648C95.8888 64.4776 94.9399 63.5288 93.7695 63.5288C92.5991 63.5288 91.6503 64.4776 91.6503 65.648C91.6503 66.8185 92.5991 67.7673 93.7695 67.7673Z" fill="#3F3D56" fill-opacity="0.5"/>
<path d="M40.7891 74.4787C41.9595 74.4787 42.9084 73.5299 42.9084 72.3595C42.9084 71.189 41.9595 70.2402 40.7891 70.2402C39.6187 70.2402 38.6699 71.189 38.6699 72.3595C38.6699 73.5299 39.6187 74.4787 40.7891 74.4787Z" fill="#3F3D56" fill-opacity="0.5"/>
<path d="M49.6197 74.4787C50.7902 74.4787 51.739 73.5299 51.739 72.3595C51.739 71.189 50.7902 70.2402 49.6197 70.2402C48.4493 70.2402 47.5005 71.189 47.5005 72.3595C47.5005 73.5299 48.4493 74.4787 49.6197 74.4787Z" fill="#3F3D56" fill-opacity="0.5"/>
<path d="M40.7891 81.1887C41.9595 81.1887 42.9084 80.2398 42.9084 79.0694C42.9084 77.899 41.9595 76.9502 40.7891 76.9502C39.6187 76.9502 38.6699 77.899 38.6699 79.0694C38.6699 80.2398 39.6187 81.1887 40.7891 81.1887Z" fill="#3F3D56" fill-opacity="0.5"/>
<path d="M49.6197 81.1887C50.7902 81.1887 51.739 80.2398 51.739 79.0694C51.739 77.899 50.7902 76.9502 49.6197 76.9502C48.4493 76.9502 47.5005 77.899 47.5005 79.0694C47.5005 80.2398 48.4493 81.1887 49.6197 81.1887Z" fill="#3F3D56" fill-opacity="0.5"/>
<path d="M58.4497 81.1887C59.6201 81.1887 60.5689 80.2398 60.5689 79.0694C60.5689 77.899 59.6201 76.9502 58.4497 76.9502C57.2793 76.9502 56.3305 77.899 56.3305 79.0694C56.3305 80.2398 57.2793 81.1887 58.4497 81.1887Z" fill="#3F3D56" fill-opacity="0.5"/>
<path d="M58.4497 74.4787C59.6201 74.4787 60.5689 73.5299 60.5689 72.3595C60.5689 71.189 59.6201 70.2402 58.4497 70.2402C57.2793 70.2402 56.3305 71.189 56.3305 72.3595C56.3305 73.5299 57.2793 74.4787 58.4497 74.4787Z" fill="#3F3D56" fill-opacity="0.5"/>
<path d="M67.279 74.4787C68.4494 74.4787 69.3982 73.5299 69.3982 72.3595C69.3982 71.189 68.4494 70.2402 67.279 70.2402C66.1086 70.2402 65.1598 71.189 65.1598 72.3595C65.1598 73.5299 66.1086 74.4787 67.279 74.4787Z" fill="#FBA600"/>
<path d="M76.1096 74.4787C77.28 74.4787 78.2288 73.5299 78.2288 72.3595C78.2288 71.189 77.28 70.2402 76.1096 70.2402C74.9392 70.2402 73.9904 71.189 73.9904 72.3595C73.9904 73.5299 74.9392 74.4787 76.1096 74.4787Z" fill="#FBA600"/>
<path d="M84.9402 74.4787C86.1107 74.4787 87.0595 73.5299 87.0595 72.3595C87.0595 71.189 86.1107 70.2402 84.9402 70.2402C83.7698 70.2402 82.821 71.189 82.821 72.3595C82.821 73.5299 83.7698 74.4787 84.9402 74.4787Z" fill="#FBA600"/>
<path d="M93.7695 74.4787C94.9399 74.4787 95.8888 73.5299 95.8888 72.3595C95.8888 71.189 94.9399 70.2402 93.7695 70.2402C92.5991 70.2402 91.6503 71.189 91.6503 72.3595C91.6503 73.5299 92.5991 74.4787 93.7695 74.4787Z" fill="#3F3D56" fill-opacity="0.5"/>
<path d="M51.2365 33.4933C50.9006 33.4989 50.5803 33.6362 50.3448 33.8757C50.1092 34.1151 49.9772 34.4376 49.9772 34.7735C49.9772 35.1095 50.1092 35.4319 50.3448 35.6714C50.5803 35.9109 50.9006 36.0482 51.2365 36.0537H83.335C83.5033 36.0567 83.6704 36.0264 83.827 35.9647C83.9835 35.903 84.1264 35.8111 84.2473 35.6942C84.3683 35.5772 84.4651 35.4376 84.532 35.2832C84.599 35.1289 84.6349 34.9628 84.6377 34.7946C84.6404 34.6263 84.61 34.4592 84.5481 34.3027C84.4863 34.1463 84.3942 34.0035 84.2771 33.8827C84.16 33.7618 84.0203 33.6652 83.8658 33.5984C83.7114 33.5316 83.5453 33.4959 83.3771 33.4933C83.3631 33.4931 83.3491 33.4931 83.335 33.4933H51.2365Z" fill="#3F3D56" fill-opacity="0.5"/>
<path d="M90.6154 33.1377C90.592 33.1611 90.5734 33.1889 90.5607 33.2195C90.5481 33.25 90.5416 33.2828 90.5416 33.3159C90.5416 33.349 90.5481 33.3817 90.5607 33.4123C90.5734 33.4429 90.592 33.4706 90.6154 33.494L91.6968 34.5755H89.0301C88.9633 34.5755 88.8992 34.602 88.852 34.6492C88.8047 34.6965 88.7782 34.7606 88.7782 34.8274C88.7782 34.8942 88.8047 34.9583 88.852 35.0055C88.8992 35.0527 88.9633 35.0793 89.0301 35.0793H91.6968L90.6154 36.1607C90.592 36.1841 90.5734 36.2119 90.5607 36.2425C90.5481 36.273 90.5416 36.3058 90.5416 36.3389C90.5416 36.3719 90.5481 36.4047 90.5607 36.4353C90.5734 36.4658 90.592 36.4936 90.6154 36.517C90.6387 36.5404 90.6665 36.5589 90.6971 36.5716C90.7276 36.5843 90.7604 36.5908 90.7935 36.5908C90.8266 36.5908 90.8593 36.5843 90.8899 36.5716C90.9204 36.5589 90.9482 36.5404 90.9716 36.517L92.4831 35.0055C92.5303 34.9583 92.5569 34.8942 92.5569 34.8274C92.5569 34.7606 92.5303 34.6965 92.4831 34.6492L90.9716 33.1377C90.9482 33.1144 90.9205 33.0958 90.8899 33.0831C90.8593 33.0705 90.8266 33.064 90.7935 33.064C90.7604 33.064 90.7277 33.0705 90.6971 33.0831C90.6665 33.0958 90.6387 33.1144 90.6154 33.1377Z" fill="#3F3D56" fill-opacity="0.5"/>
<path d="M43.9444 33.1378C43.9678 33.1611 43.9864 33.1889 43.999 33.2195C44.0117 33.25 44.0182 33.2828 44.0182 33.3159C44.0182 33.349 44.0117 33.3817 43.999 33.4123C43.9864 33.4429 43.9678 33.4706 43.9444 33.494L42.863 34.5755H45.5297C45.5965 34.5755 45.6606 34.602 45.7078 34.6492C45.755 34.6965 45.7816 34.7606 45.7816 34.8274C45.7816 34.8942 45.755 34.9583 45.7078 35.0055C45.6606 35.0527 45.5965 35.0793 45.5297 35.0793H42.863L43.9444 36.1607C43.9916 36.208 44.0182 36.272 44.0182 36.3389C44.0182 36.4057 43.9916 36.4697 43.9444 36.517C43.8972 36.5642 43.8331 36.5908 43.7663 36.5908C43.6995 36.5908 43.6354 36.5642 43.5881 36.517L42.0767 35.0055C42.0294 34.9583 42.0029 34.8942 42.0029 34.8274C42.0029 34.7606 42.0294 34.6965 42.0767 34.6492L43.5881 33.1378C43.6115 33.1144 43.6393 33.0958 43.6699 33.0831C43.7004 33.0705 43.7332 33.064 43.7663 33.064C43.7994 33.064 43.8321 33.0705 43.8627 33.0831C43.8932 33.0958 43.921 33.1144 43.9444 33.1378Z" fill="#3F3D56" fill-opacity="0.5"/>
<path d="M49.4422 94.7153C48.8389 94.7149 48.2415 94.8334 47.684 95.064C47.1266 95.2945 46.62 95.6327 46.1933 96.0591C45.7666 96.4855 45.4281 96.9918 45.1972 97.5491C44.9662 98.1064 44.8474 98.7037 44.8474 99.307C44.8474 99.9102 44.9662 100.508 45.1972 101.065C45.4281 101.622 45.7666 102.128 46.1933 102.555C46.62 102.981 47.1266 103.319 47.684 103.55C48.2415 103.781 48.8389 103.899 49.4422 103.899H85.1159C85.7191 103.899 86.3165 103.781 86.874 103.55C87.4314 103.319 87.938 102.981 88.3647 102.555C88.7914 102.128 89.1299 101.622 89.3609 101.065C89.5918 100.508 89.7107 99.9102 89.7107 99.307C89.7107 98.7037 89.5918 98.1064 89.3609 97.5491C89.1299 96.9918 88.7914 96.4855 88.3647 96.0591C87.938 95.6327 87.4314 95.2945 86.874 95.064C86.3165 94.8334 85.7191 94.7149 85.1159 94.7153H49.4422Z" fill="#3F3D56" fill-opacity="0.5"/>
<path d="M20.5 41C16.4455 41 12.482 39.7977 9.11081 37.5451C5.7396 35.2926 3.11207 32.0909 1.56048 28.345C0.00888271 24.5991 -0.397086 20.4773 0.393911 16.5007C1.18491 12.524 3.13734 8.8713 6.00432 6.00432C8.87129 3.13734 12.524 1.18491 16.5006 0.393912C20.4773 -0.397085 24.5991 0.00887929 28.345 1.56048C32.0909 3.11207 35.2925 5.73961 37.5451 9.11082C39.7977 12.482 41 16.4455 41 20.5C40.9939 25.9351 38.8321 31.1458 34.9889 34.9889C31.1457 38.8321 25.935 40.9939 20.5 41Z" fill="#FBA600"/>
<path d="M28.9 18.4H22.6001V12.1C22.6001 11.5431 22.3788 11.0089 21.985 10.6151C21.5912 10.2213 21.057 10 20.5 10C19.9431 10 19.4089 10.2213 19.0151 10.6151C18.6213 11.0089 18.4 11.5431 18.4 12.1V18.4H12.1C11.543 18.4 11.0089 18.6213 10.6151 19.0151C10.2213 19.4089 10 19.943 10 20.5C10 21.057 10.2213 21.5911 10.6151 21.9849C11.0089 22.3787 11.543 22.6 12.1 22.6H18.4V28.9C18.4 29.4569 18.6213 29.9911 19.0151 30.3849C19.4089 30.7787 19.9431 31 20.5 31C21.057 31 21.5912 30.7787 21.985 30.3849C22.3788 29.9911 22.6001 29.4569 22.6001 28.9V22.6H28.9C29.457 22.6 29.9911 22.3787 30.3849 21.9849C30.7787 21.5911 31 21.057 31 20.5C31 19.943 30.7787 19.4089 30.3849 19.0151C29.9911 18.6213 29.457 18.4 28.9 18.4Z" fill="white"/>
</svg>
