<svg width="650" height="399" viewBox="0 0 650 399" fill="none" xmlns="http://www.w3.org/2000/svg">
<path opacity="0.1" d="M390.755 279.286C403.312 278.57 418.891 270.051 431.004 266.283C445.341 261.834 459.735 257.555 474.185 253.444C524.491 239.125 575.337 226.925 626.722 216.842C631.518 215.899 636.32 214.978 641.131 214.08C633.638 197.883 622.028 183.936 607.461 173.631C607.834 170.085 608.024 166.522 608.029 162.957C608.029 106.611 563.013 60.9331 507.463 60.9331C490.361 60.9149 473.545 65.3306 458.657 73.7494C419.34 47.8782 368.023 32.2202 311.876 32.2202C232.093 32.2202 162.055 63.8374 122.368 111.448L308.887 142.968L423.283 162.292C292.871 166.185 162.055 170.056 32.0175 160.917C14.8519 177.531 3.98731 199.593 1.28044 223.332C-1.42643 247.071 4.19247 271.014 17.1769 291.068C17.1769 293.109 17.2621 295.132 17.4155 297.138C20.7279 298.087 23.9267 299.008 26.796 299.611C72.8595 309.345 119.219 317.491 165.873 324.05C131.493 345.255 89.6244 348.255 49.966 357.235C69.1702 373.092 95.2493 382.811 123.987 382.811H551.888C598.223 382.811 635.779 350.546 635.779 310.739C642.732 299.27 647.365 286.546 649.415 273.29C563.678 281.571 476.873 274.382 390.755 279.286Z" fill="#FCAF17"/>
<path opacity="0.1" d="M650 256.337C650.046 239.931 646.146 223.755 638.631 209.173C631.116 194.59 620.205 182.03 606.819 172.551C607.189 169.007 607.379 165.447 607.387 161.883C607.387 105.537 562.348 59.8763 506.82 59.8763C489.717 59.858 472.9 64.2715 458.009 72.6868C418.691 46.8043 367.368 31.1406 311.222 31.1406C219.894 31.1406 141.282 72.6016 106.419 132.056C104.481 131.943 102.532 131.88 100.567 131.88C45.0335 131.88 0.000196368 177.558 0.000196368 233.904C-0.0387277 253.807 5.70977 273.291 16.5453 289.983C16.5453 340.68 64.3797 381.777 123.362 381.777H551.274C597.603 381.777 635.159 349.506 635.159 309.699C644.903 293.609 650.037 275.149 650 256.337Z" fill="#FCAF17"/>
<path d="M436.663 126.233L436.23 132.04C436.167 132.829 434.66 151.605 423.545 173.549C414.007 192.37 395.446 216.884 360.404 230.661C357.67 231.742 354.832 232.751 351.89 233.688L348.609 223.384C356.846 220.791 364.781 217.319 372.276 213.029C390.137 202.712 404.024 187.988 413.708 169.039C418.846 158.951 422.508 148.176 424.582 137.046H384.713V126.233H436.663Z" fill="#FCAF17"/>
<path opacity="0.1" d="M356.112 230.668C391.148 216.891 409.715 192.384 419.247 173.563C430.361 151.619 431.875 132.855 431.932 132.054L432.364 126.247H436.815L436.383 132.054C436.326 132.842 434.812 151.619 423.698 173.563C414.16 192.384 395.599 216.891 360.563 230.668C357.829 231.749 354.989 232.76 352.043 233.702L351.61 232.347C353.145 231.8 354.646 231.24 356.112 230.668Z" fill="white"/>
<path d="M285.964 223.384L282.683 233.688C279.737 232.747 276.897 231.735 274.163 230.654C239.127 216.877 220.56 192.37 211.028 173.549C199.914 151.605 198.4 132.842 198.343 132.04L197.911 126.233H249.835V137.046H209.96C212.045 148.178 215.717 158.952 220.865 169.039C230.549 187.988 244.43 202.712 262.291 213.023C269.787 217.318 277.724 220.791 285.964 223.384Z" fill="#FCAF17"/>
<path opacity="0.1" d="M278.449 230.668C243.413 216.891 224.846 192.384 215.314 173.563C204.199 151.619 202.686 132.855 202.629 132.054L202.196 126.247H197.745L198.178 132.054C198.235 132.842 199.748 151.619 210.863 173.563C220.401 192.384 238.962 216.891 273.998 230.668C276.732 231.749 279.572 232.76 282.518 233.702L282.95 232.347C281.42 231.8 279.919 231.24 278.449 230.668Z" fill="white"/>
<path d="M377.267 322.991V381.298H257.3V322.991L261.115 317.903C299.991 304.1 307.87 268.106 309.44 253.865C309.674 251.897 309.808 249.918 309.841 247.937H324.675C324.708 249.918 324.842 251.897 325.076 253.865C326.672 268.106 334.55 304.113 373.401 317.903L377.267 322.991Z" fill="#FCAF17"/>
<path opacity="0.1" d="M377.267 322.991H257.3V330.305H377.267V322.991Z" fill="black"/>
<path opacity="0.1" d="M267.474 317.903C306.35 304.1 314.228 268.106 315.799 253.865C316.032 251.897 316.166 249.918 316.199 247.937H309.841C309.808 249.918 309.674 251.897 309.44 253.865C307.844 268.106 299.966 304.113 261.115 317.903L257.3 322.991V381.298H263.658V322.991L267.474 317.903Z" fill="white"/>
<path d="M240.348 108.322C240.621 188.503 274.958 253.342 317.287 253.342C359.616 253.342 393.946 188.503 394.226 108.322H240.348Z" fill="#FCAF17"/>
<path opacity="0.1" d="M254.019 108.322H240.348C240.621 188.503 274.958 253.342 317.287 253.342C319.577 253.338 321.864 253.145 324.122 252.764C284.992 246.225 254.28 184.14 254.019 108.322Z" fill="white"/>
<path d="M182.069 286.521V311.052L175.581 324.136L175.378 324.553L158.194 323.425L151.593 322.985L136.26 321.97V292.622L151.593 293.051L158.442 293.243L175.784 293.739L182.069 286.521Z" fill="#FF6F61"/>
<path opacity="0.1" d="M182.069 287.965V311.053L180.489 314.256L178.853 317.527L175.581 324.136L175.953 299.605L176.021 294.653L179.135 291.202L180.5 289.702L182.069 287.965Z" fill="black"/>
<path d="M182.949 280.002V288.574L182.069 289.973L180.5 292.477L179.101 294.699L176.021 299.605H175.953L134.917 297.496V289.037L135.019 288.924L139.916 283.634L141.687 281.705L144.903 278.243L182.949 280.002Z" fill="#FF6F61"/>
<path opacity="0.1" d="M176.021 291.157V299.605L134.917 297.496V289.037L135.019 288.924L176.021 291.157Z" fill="black"/>
<path opacity="0.15" d="M182.949 280.001V288.573L176.021 299.604V291.156L182.949 280.001Z" fill="black"/>
<path d="M180.5 283.938V289.701V292.476L180.489 314.256L178.853 317.526L179.101 294.698L179.135 291.201L179.192 286.047L139.916 283.633L141.687 281.705L180.5 283.938Z" fill="#3F3D56"/>
<path d="M161.229 284.231L158.476 290.198L158.442 293.243L158.194 323.426L151.594 322.986V289.803L155.114 284.231H161.229Z" fill="#3F3D56"/>
<path d="M152.158 284.626C150.569 285.159 148.861 285.221 147.238 284.807C146.92 284.744 146.622 284.605 146.369 284.401C146.101 284.101 145.918 283.735 145.839 283.341C145.554 282.527 145.394 281.675 145.365 280.814C145.357 280.382 145.448 279.953 145.632 279.562C145.816 279.171 146.087 278.827 146.426 278.558C146.567 278.469 146.699 278.367 146.821 278.254C146.968 278.067 147.076 277.852 147.137 277.622C147.611 276.19 148.547 274.678 150.036 274.441C151.526 274.205 152.677 275.197 153.737 276.099L156.073 278.084C156.334 277.39 156.799 276.791 157.406 276.364C158.014 275.938 158.736 275.705 159.478 275.695C160.22 275.685 160.948 275.9 161.566 276.31C162.184 276.72 162.665 277.307 162.944 277.994C164.359 276.402 166.14 275.179 168.134 274.43C168.349 274.333 168.582 274.283 168.817 274.283C169.052 274.283 169.285 274.333 169.499 274.43C169.75 274.614 169.939 274.87 170.041 275.163C170.68 276.552 171.026 278.057 171.057 279.585C171.221 279.531 171.398 279.533 171.561 279.59C171.724 279.647 171.864 279.756 171.959 279.9C172.141 280.192 172.242 280.527 172.253 280.87C172.32 281.405 172.354 281.944 172.354 282.483C172.407 283.051 172.255 283.619 171.925 284.085C171.65 284.327 171.327 284.508 170.977 284.617C170.627 284.726 170.258 284.76 169.894 284.717C169.966 284.807 170.018 284.911 170.047 285.023C170.076 285.135 170.081 285.251 170.062 285.365C170.042 285.479 170 285.587 169.936 285.684C169.872 285.78 169.789 285.861 169.691 285.923C169.274 286.148 168.798 286.243 168.326 286.194C166.501 286.334 164.675 285.942 163.068 285.066C162.47 284.671 161.94 284.141 161.365 283.747C159.839 282.915 158.089 282.588 156.366 282.81C154.832 282.867 153.613 284.141 152.158 284.626Z" fill="#3F3D56"/>
<path d="M151.887 284.231C151.887 284.231 136.734 286.341 134.624 295.51L137.795 295.037L140.051 299.029C140.051 299.029 142.409 290.108 149.337 287.999C152.389 286.98 155.502 286.152 158.657 285.517C158.657 285.517 163.474 286.645 167.818 300.665L170.289 297.281L174.633 298.217C174.633 298.217 171.463 287.299 162.888 284.254L151.887 284.231Z" fill="#3F3D56"/>
<path d="M237.016 317.967V354.183L227.437 373.504L227.132 374.113L201.78 372.444L192.031 371.79L169.409 370.301V326.979L192.031 327.622L202.152 327.904L227.742 328.625L237.016 317.967Z" fill="#FCAF17"/>
<path opacity="0.1" d="M237.016 320.109V354.183L234.669 358.909L232.277 363.736V363.748L227.437 373.504L227.978 337.287L228.091 329.978L232.683 324.892L234.692 322.67L237.016 320.109Z" fill="black"/>
<path d="M238.314 308.346V321.001L237.016 323.076L234.692 326.775L232.627 330.046L228.091 337.287H227.979L167.412 334.174V321.689L167.57 321.531L174.802 313.703L177.42 310.872L182.147 305.751L238.314 308.346Z" fill="#FCAF17"/>
<path opacity="0.1" d="M228.091 324.811V337.286L167.412 334.173V321.687L167.57 321.529L228.091 324.811Z" fill="black"/>
<path opacity="0.15" d="M238.314 308.345V321L228.091 337.287V324.812L238.314 308.345Z" fill="black"/>
<path d="M234.692 314.176V322.669V326.774L234.669 358.908L232.277 363.736L232.627 330.045L232.684 324.891L232.774 317.278L174.802 313.702L177.42 310.871L234.692 314.176Z" fill="#3F3D56"/>
<path d="M206.247 314.583L202.186 323.403L202.152 327.903L201.779 372.444L192.031 371.789V322.816L197.232 314.583H206.247Z" fill="#3F3D56"/>
<path d="M192.866 315.18C190.518 315.958 187.997 316.048 185.6 315.439C185.135 315.345 184.699 315.144 184.325 314.853C183.931 314.407 183.659 313.867 183.535 313.285C183.111 312.085 182.879 310.825 182.847 309.552C182.822 308.906 182.95 308.264 183.218 307.677C183.486 307.089 183.889 306.573 184.392 306.168C184.605 306.041 184.806 305.894 184.99 305.728C185.205 305.451 185.359 305.132 185.442 304.792C186.153 302.683 187.529 300.439 189.741 300.1C191.952 299.762 193.633 301.228 195.201 302.548L198.586 305.48C198.967 304.448 199.651 303.556 200.549 302.921C201.447 302.286 202.517 301.938 203.617 301.923C204.717 301.908 205.796 302.228 206.711 302.839C207.625 303.449 208.333 304.323 208.741 305.345C210.827 302.994 213.457 301.189 216.402 300.089C216.712 299.927 217.054 299.836 217.403 299.822C217.752 299.808 218.1 299.873 218.422 300.01C218.788 300.281 219.067 300.653 219.223 301.081C220.16 303.134 220.667 305.356 220.712 307.612C220.954 307.526 221.217 307.526 221.459 307.61C221.701 307.694 221.907 307.858 222.044 308.074C222.309 308.507 222.46 309 222.484 309.507C222.574 310.297 222.619 311.091 222.619 311.887C222.696 312.725 222.477 313.563 221.998 314.255C221.589 314.609 221.112 314.873 220.595 315.033C220.078 315.192 219.534 315.242 218.997 315.18C219.104 315.313 219.182 315.468 219.225 315.633C219.268 315.799 219.275 315.971 219.246 316.14C219.218 316.308 219.153 316.469 219.058 316.61C218.962 316.752 218.838 316.872 218.693 316.962C218.077 317.3 217.371 317.438 216.673 317.357C213.999 317.357 211.144 317.255 208.91 315.767C208.03 315.18 207.297 314.402 206.417 313.815C204.25 312.383 201.531 312.315 199.026 312.428C196.815 312.586 195.021 314.458 192.866 315.18Z" fill="#3F3D56"/>
<path d="M192.381 314.593C192.381 314.593 170.018 317.706 166.893 331.23L171.575 330.53L174.87 336.429C174.87 336.429 178.334 323.256 188.567 320.131C198.801 317.007 202.434 316.499 202.434 316.499C202.434 316.499 209.542 318.225 215.974 338.854L219.618 333.824L226.027 335.211C226.027 335.211 221.344 319.094 208.696 314.593H192.381Z" fill="#3F3D56"/>
<path d="M534.043 254.371V298.215L522.442 321.599L522.081 322.339L491.389 320.318L479.579 319.53L452.2 317.727V265.284L479.579 266.053L491.835 266.395L522.812 267.277L534.043 254.371Z" fill="#FF6F61"/>
<path opacity="0.1" d="M534.043 256.962V298.216L531.205 303.929L528.3 309.784L522.442 321.599L523.097 277.755L523.23 268.91L528.803 262.751L531.233 260.065L534.043 256.962Z" fill="black"/>
<path d="M535.619 242.727V258.044L534.043 260.549L531.233 265.029L528.736 268.995L523.23 277.764L523.097 277.755L449.788 273.987V258.879L449.969 258.68L458.722 249.208L461.893 245.783L467.627 239.585L535.619 242.727Z" fill="#FF6F61"/>
<path opacity="0.1" d="M523.23 262.655V277.763L449.788 273.986V258.878L449.969 258.679L523.23 262.655Z" fill="black"/>
<path opacity="0.15" d="M535.619 242.727V258.044L523.23 277.764V262.656L535.619 242.727Z" fill="black"/>
<path d="M531.233 249.778V260.065V265.029L531.204 303.929L528.299 309.784L528.736 268.996L528.802 262.751L528.897 253.536L458.721 249.209L461.892 245.783L531.233 249.778Z" fill="#3F3D56"/>
<path d="M496.79 250.281L491.873 260.957L491.835 266.395L491.389 320.318L479.579 319.53V260.245L485.882 250.281H496.79Z" fill="#3F3D56"/>
<path d="M480.595 251.002C477.755 251.949 474.703 252.058 471.804 251.315C471.238 251.199 470.708 250.952 470.256 250.594C469.775 250.058 469.447 249.402 469.307 248.696C468.792 247.24 468.507 245.713 468.462 244.169C468.449 243.397 468.614 242.631 468.943 241.932C469.272 241.233 469.757 240.618 470.361 240.136C470.619 239.98 470.86 239.799 471.082 239.595C471.344 239.265 471.531 238.883 471.633 238.475C472.487 235.913 474.158 233.208 476.835 232.781C479.294 232.401 481.582 234.129 483.481 235.742L487.648 239.291C488.114 238.05 488.944 236.978 490.029 236.215C491.114 235.453 492.404 235.035 493.731 235.018C495.057 235.001 496.358 235.384 497.462 236.117C498.567 236.851 499.425 237.901 499.923 239.13C502.452 236.281 505.639 234.095 509.208 232.762C509.581 232.568 509.992 232.459 510.412 232.442C510.833 232.426 511.251 232.503 511.638 232.667C512.078 232.996 512.408 233.449 512.588 233.967C513.719 236.453 514.333 239.142 514.391 241.873C514.683 241.773 515 241.773 515.292 241.873C515.584 241.972 515.835 242.166 516.005 242.423C516.322 242.953 516.504 243.552 516.537 244.169C516.651 245.114 516.705 246.065 516.698 247.016C516.792 248.024 516.526 249.032 515.948 249.863C515.094 250.812 513.622 250.964 512.322 250.993C512.45 251.154 512.543 251.342 512.594 251.542C512.645 251.743 512.653 251.951 512.617 252.155C512.581 252.359 512.502 252.552 512.386 252.723C512.27 252.894 512.118 253.039 511.942 253.147C511.196 253.549 510.345 253.714 509.502 253.621C506.255 253.621 502.809 253.498 500.104 251.723C499.04 251.012 498.148 250.072 497.075 249.36C494.465 247.633 491.17 247.548 488.142 247.69C485.379 247.861 483.205 250.129 480.595 251.002Z" fill="#3F3D56"/>
<path d="M479.978 250.281C479.978 250.281 452.902 254.077 449.124 270.419L454.82 269.584L458.807 276.72C458.807 276.72 463.003 260.777 475.383 257C487.762 253.223 492.177 252.596 492.177 252.596C492.177 252.596 500.778 254.694 508.544 279.653L512.949 273.57L520.714 275.249C520.714 275.249 515.018 255.738 499.734 250.281H479.978Z" fill="#3F3D56"/>
<path d="M504.959 306.2V365.428L489.295 397.012L488.801 398.008L447.333 395.275L431.394 394.222L394.407 391.773V320.938L431.394 321.973L447.941 322.447L489.798 323.624L504.959 306.2Z" fill="#FCAF17"/>
<path opacity="0.1" d="M504.959 309.692V365.428L501.133 373.143L497.212 381.048V381.058L489.295 397.011L490.178 337.783L490.358 325.835L497.886 317.521V317.512L501.162 313.887L504.959 309.692Z" fill="black"/>
<path d="M507.086 290.475V311.154L504.959 314.542L501.162 320.597L497.791 325.949L490.358 337.793L490.178 337.783L391.141 332.696V312.293L391.398 312.017L403.217 299.225L407.499 294.593L415.236 286.223L507.086 290.475Z" fill="#FCAF17"/>
<path opacity="0.1" d="M490.358 317.388V337.792L391.141 332.696V312.292L391.398 312.017L490.358 317.388Z" fill="black"/>
<path opacity="0.15" d="M507.086 290.475V311.154L490.358 337.793V317.389L507.086 290.475Z" fill="black"/>
<path d="M501.171 299.993L501.161 313.887V320.596L501.133 373.143L497.212 381.049L497.791 325.949L497.886 317.522V317.512L498.019 305.07L403.217 299.224L407.499 294.593L501.171 299.993Z" fill="#3F3D56"/>
<path d="M454.643 300.667L447.998 315.092L447.941 322.446L447.333 395.274L431.394 394.221V314.133L439.9 300.667H454.643Z" fill="#3F3D56"/>
<path d="M432.77 301.644C428.93 302.919 424.805 303.064 420.884 302.062C420.124 301.92 419.411 301.594 418.805 301.113C418.153 300.394 417.707 299.512 417.514 298.56C416.822 296.594 416.437 294.532 416.375 292.448C416.353 291.405 416.571 290.37 417.013 289.424C417.454 288.478 418.106 287.646 418.919 286.992C419.261 286.786 419.579 286.544 419.869 286.27C420.218 285.821 420.47 285.304 420.609 284.752C421.777 281.288 424.027 277.634 427.634 277.084C430.967 276.571 434.004 278.897 436.568 281.079L442.197 285.824C442.823 284.144 443.942 282.692 445.408 281.658C446.874 280.625 448.618 280.059 450.412 280.035C452.205 280.01 453.965 280.528 455.458 281.52C456.952 282.513 458.111 283.934 458.783 285.597C462.196 281.752 466.498 278.8 471.314 276.998C472.377 276.6 473.63 276.277 474.608 276.875C475.212 277.315 475.669 277.927 475.918 278.631C477.449 281.987 478.28 285.62 478.358 289.307C478.753 289.177 479.179 289.18 479.572 289.316C479.964 289.451 480.302 289.711 480.532 290.057C480.968 290.768 481.216 291.578 481.254 292.41C481.406 293.699 481.482 294.995 481.481 296.292C481.611 297.665 481.251 299.04 480.466 300.173C479.307 301.512 477.323 301.654 475.558 301.692C476.412 302.451 475.994 303.97 475.054 304.605C474.046 305.147 472.897 305.368 471.76 305.241C467.374 305.241 462.713 305.08 459.067 302.641C457.624 301.692 456.419 300.401 454.976 299.452C451.435 297.108 446.992 296.994 442.9 297.194C439.226 297.393 436.283 300.506 432.77 301.644Z" fill="#3F3D56"/>
<path d="M431.963 300.676C431.963 300.676 395.394 305.773 390.296 327.875L397.948 326.746L403.331 336.378C403.331 336.378 409.027 314.845 425.726 309.739C442.425 304.634 448.406 303.789 448.406 303.789C448.406 303.789 460.026 306.636 470.516 340.345L476.469 332.127L486.912 334.395C486.912 334.395 479.26 308.041 458.564 300.676H431.963Z" fill="#3F3D56"/>
<path d="M567.621 315.279V351.93L557.928 371.48L557.625 372.106L531.964 370.408L522.09 369.753L499.202 368.244V324.399L522.09 325.045L532.334 325.329L558.242 326.06L567.621 315.279Z" fill="#3F3D56"/>
<path opacity="0.1" d="M567.621 317.443V351.93L565.257 356.713L562.827 361.601V361.61L557.928 371.48L558.479 334.829L558.593 327.436L563.245 322.283L565.276 320.034L567.621 317.443Z" fill="black"/>
<path d="M568.941 305.542V318.345L567.621 320.442L565.276 324.191L563.188 327.503L558.593 334.829H558.479L497.179 331.678V319.047L497.331 318.886L504.651 310.961L507.299 308.095L512.094 302.914L568.941 305.542Z" fill="#3F3D56"/>
<path opacity="0.1" d="M558.593 322.207V334.829L497.179 331.678V319.047L497.331 318.885L558.593 322.207Z" fill="black"/>
<path opacity="0.15" d="M568.941 305.542V318.344L558.593 334.829V322.207L568.941 305.542Z" fill="black"/>
<path d="M565.286 311.435L565.276 320.033V324.19L565.257 356.713L562.827 361.6L563.188 327.502L563.244 322.283L563.33 314.577L504.651 310.961L507.299 308.095L565.286 311.435Z" fill="#FCAF17"/>
<path d="M536.482 311.853L532.372 320.783L532.334 325.329L531.964 370.407L522.09 369.752V320.185L527.359 311.853H536.482Z" fill="#FCAF17"/>
<path d="M522.945 312.432C520.568 313.223 518.013 313.312 515.587 312.689C515.116 312.594 514.673 312.389 514.296 312.091C513.895 311.642 513.619 311.095 513.499 310.506C513.071 309.284 512.834 308.004 512.796 306.71C512.782 306.063 512.917 305.423 513.19 304.837C513.463 304.251 513.868 303.736 514.372 303.331C514.585 303.202 514.785 303.053 514.97 302.885C515.19 302.605 515.348 302.281 515.435 301.936C516.147 299.791 517.543 297.533 519.783 297.191C521.843 296.878 523.714 298.32 525.309 299.668L528.793 302.638C529.181 301.599 529.873 300.702 530.78 300.063C531.687 299.424 532.766 299.074 533.875 299.059C534.985 299.043 536.073 299.363 536.997 299.977C537.921 300.59 538.639 301.468 539.055 302.496C541.167 300.116 543.83 298.288 546.811 297.172C547.124 297.008 547.47 296.917 547.823 296.903C548.176 296.89 548.528 296.956 548.853 297.096C549.223 297.373 549.504 297.752 549.659 298.188C550.617 300.274 551.134 302.536 551.178 304.831C551.421 304.746 551.686 304.745 551.929 304.83C552.172 304.914 552.379 305.078 552.517 305.296C552.788 305.733 552.942 306.233 552.963 306.748C553.058 307.545 553.105 308.346 553.106 309.149C553.188 309.998 552.966 310.849 552.479 311.55C551.767 312.385 550.58 312.499 549.441 312.499C549.549 312.634 549.627 312.791 549.669 312.958C549.712 313.126 549.719 313.3 549.689 313.471C549.66 313.641 549.595 313.803 549.498 313.946C549.401 314.09 549.275 314.211 549.128 314.302C548.501 314.632 547.791 314.768 547.087 314.691C544.372 314.691 541.486 314.596 539.226 313.087C538.343 312.489 537.593 311.702 536.701 311.113C534.508 309.661 531.764 309.595 529.229 309.709C526.941 309.832 525.119 311.73 522.945 312.432Z" fill="#FCAF17"/>
<path d="M522.422 311.853C522.422 311.853 499.79 315.013 496.638 328.698L501.385 327.996L504.717 333.956C504.717 333.956 508.23 320.669 518.578 317.471C528.926 314.273 532.609 313.789 532.609 313.789C532.609 313.789 539.805 315.545 546.299 336.414L549.982 331.327L556.476 332.731C556.476 332.731 551.729 316.418 538.932 311.853H522.422Z" fill="#FCAF17"/>
<rect x="292.277" y="66.0518" width="15.4536" height="23.1804" transform="rotate(24.3421 292.277 66.0518)" fill="#FF6F61"/>
<rect x="329.083" y="51.4087" width="15.4536" height="15.9226" transform="rotate(-19.7652 329.083 51.4087)" fill="#3F3D56"/>
<rect x="394.209" y="72.3813" width="15.4536" height="15.9226" transform="rotate(-19.7652 394.209 72.3813)" fill="#FCB72E"/>
<rect x="219.62" y="73.936" width="11.6783" height="15.9226" transform="rotate(32.1465 219.62 73.936)" fill="#3F3D56"/>
<rect x="346.744" y="95.0723" width="15.4536" height="11.0267" transform="rotate(-36.3154 346.744 95.0723)" fill="#FCAF17"/>
<rect x="266.649" y="25.21" width="17.3363" height="17.2437" transform="rotate(24.3421 266.649 25.21)" fill="#FCAF17"/>
<rect x="340.651" y="11.0742" width="13.9589" height="17.8396" transform="rotate(-52.4991 340.651 11.0742)" fill="#FF6F61"/>
</svg>
