<svg width="229" height="240" viewBox="0 0 229 240" fill="none" xmlns="http://www.w3.org/2000/svg">
<g clip-path="url(#clip0)">
<path d="M210.03 205.327L199.541 215.043L207.877 200.97C201.309 188.988 190.568 178.632 190.568 178.632C190.568 178.632 168.283 200.112 168.283 216.997C168.283 233.882 178.26 239.777 190.568 239.777C202.875 239.777 212.852 233.882 212.852 216.997C212.852 213.239 211.747 209.253 210.03 205.327Z" fill="#F2F2F2"/>
<path d="M196.843 215.569V216.401C196.794 226.075 195.172 233.623 191.99 238.938C191.945 239.017 191.896 239.091 191.851 239.169L191.495 238.951L191.155 238.736C194.685 232.997 195.934 224.884 195.979 216.446C195.983 216.174 195.987 215.898 195.983 215.622C195.971 212.05 195.754 208.437 195.406 204.926C195.381 204.654 195.353 204.378 195.324 204.102C194.841 199.471 194.145 195.046 193.432 191.202C193.383 190.93 193.33 190.658 193.276 190.39C192.044 183.889 190.786 179.179 190.5 178.137C190.467 178.009 190.446 177.939 190.442 177.923L190.831 177.811L190.836 177.807L191.229 177.696C191.233 177.713 191.302 177.947 191.417 178.384C191.855 180.016 192.994 184.445 194.112 190.287C194.161 190.551 194.214 190.823 194.263 191.095C194.845 194.214 195.414 197.699 195.865 201.358C195.979 202.277 196.082 203.183 196.172 204.078C196.205 204.354 196.233 204.63 196.258 204.902C196.635 208.696 196.83 212.252 196.843 215.569Z" fill="white"/>
<path d="M194.112 190.288C193.837 190.325 193.559 190.362 193.276 190.391C192.509 190.47 191.738 190.51 190.967 190.51C187.679 190.514 184.432 189.777 181.465 188.351C181.293 188.569 181.121 188.788 180.945 189.01C184.066 190.543 187.494 191.338 190.967 191.334C191.79 191.334 192.613 191.29 193.432 191.202C193.71 191.173 193.989 191.136 194.263 191.095C196.528 190.768 198.731 190.097 200.795 189.105C200.619 188.878 200.447 188.656 200.279 188.438C198.325 189.356 196.247 189.98 194.112 190.288Z" fill="white"/>
<path d="M196.172 204.078C195.889 204.094 195.606 204.102 195.324 204.102C195.238 204.107 195.148 204.107 195.062 204.107C191.499 204.107 187.99 203.24 184.832 201.581C181.675 199.921 178.963 197.518 176.928 194.577C176.764 194.82 176.6 195.063 176.44 195.31C178.562 198.286 181.357 200.712 184.595 202.385C187.834 204.058 191.422 204.931 195.062 204.931C195.177 204.931 195.291 204.931 195.406 204.927C195.693 204.922 195.975 204.914 196.258 204.902C200.63 204.676 204.846 203.189 208.4 200.617C208.269 200.374 208.138 200.131 208.003 199.888C204.549 202.413 200.437 203.869 196.172 204.078Z" fill="white"/>
<path d="M196.843 215.569C196.556 215.594 196.269 215.61 195.983 215.623C195.676 215.635 195.368 215.643 195.061 215.643C190.274 215.638 185.618 214.072 181.789 211.181C177.961 208.291 175.166 204.23 173.823 199.607C173.639 199.941 173.454 200.271 173.278 200.605C174.791 205.216 177.71 209.231 181.621 212.079C185.531 214.927 190.234 216.462 195.061 216.467C195.368 216.467 195.676 216.463 195.979 216.447C196.269 216.438 196.556 216.422 196.843 216.401C202.633 215.945 208.035 213.293 211.955 208.981C211.869 208.676 211.77 208.375 211.672 208.07C207.886 212.415 202.567 215.105 196.843 215.569Z" fill="white"/>
<path d="M172.309 51.8932L58.2185 37.2592C57.9111 37.2196 57.6016 37.1994 57.2917 37.1987C56.9863 37.1982 56.6811 37.2176 56.3782 37.2568C56.0758 37.2959 55.7762 37.3549 55.4815 37.4333C55.1832 37.5134 54.8905 37.6128 54.605 37.7309C54.3253 37.8464 54.0528 37.9789 53.7891 38.1277C53.5218 38.2775 53.2635 38.4431 53.0156 38.6237C52.762 38.8089 52.5191 39.0084 52.288 39.2213C52.0494 39.4404 51.8226 39.6721 51.6087 39.9156C51.3891 40.1664 51.1825 40.4283 50.9895 40.7003C50.7946 40.9757 50.6117 41.2622 50.4408 41.5598C50.2699 41.8583 50.1114 42.1688 49.9651 42.4912C49.8188 42.8136 49.6854 43.1468 49.5648 43.491C49.4399 43.8468 49.3305 44.2105 49.2365 44.5822C49.1425 44.9538 49.064 45.3319 49.0009 45.7165C48.9391 46.1007 48.8917 46.4912 48.8589 46.8879C48.826 47.2847 48.8096 47.6863 48.8096 48.0926C48.8109 48.4986 48.8273 48.9034 48.8589 49.3067C48.8904 49.7101 48.9378 50.1102 49.0009 50.507C49.0646 50.9054 49.1435 51.2999 49.2375 51.6904C49.3314 52.0808 49.4409 52.4669 49.5658 52.8484C49.6864 53.2171 49.8198 53.5773 49.9661 53.9292C50.1123 54.2813 50.2709 54.6238 50.4418 54.9568C50.6127 55.2897 50.7956 55.6131 50.9905 55.9269C51.1851 56.242 51.3914 56.5452 51.6097 56.8365C51.8279 57.1278 52.0543 57.4057 52.289 57.6702C52.5236 57.9331 52.7662 58.1811 53.0166 58.4142C53.267 58.6473 53.5249 58.865 53.7901 59.0673C54.0524 59.2677 54.3247 59.4544 54.606 59.6268C54.8892 59.8006 55.1818 59.9584 55.4825 60.0995C55.7742 60.2362 56.0736 60.3556 56.3792 60.457C56.6785 60.5564 56.9836 60.6374 57.2927 60.6996C57.5987 60.7609 57.9082 60.8032 58.2195 60.8261L172.31 69.2222C172.642 69.2465 172.976 69.2129 173.296 69.123C173.459 69.0774 173.619 69.0183 173.772 68.9464C173.932 68.8714 174.087 68.7844 174.234 68.686C174.383 68.5864 174.526 68.4771 174.661 68.3587C174.803 68.2345 174.937 68.102 175.063 67.9619C175.197 67.8139 175.322 67.659 175.439 67.4977C175.561 67.3317 175.677 67.1549 175.789 66.967C175.901 66.7792 176.006 66.5833 176.106 66.3793C176.205 66.1753 176.299 65.9634 176.385 65.7435C176.472 65.5239 176.553 65.2968 176.627 65.062C176.701 64.8273 176.768 64.5856 176.829 64.3369C176.893 64.0797 176.948 63.8178 176.995 63.5513C177.041 63.2848 177.081 63.0144 177.113 62.7399C177.145 62.4655 177.169 62.1874 177.185 61.9057C177.201 61.624 177.209 61.3392 177.209 61.0512C177.208 60.7635 177.2 60.4772 177.185 60.1922C177.17 59.9071 177.146 59.6243 177.113 59.3436C177.082 59.0628 177.042 58.7844 176.995 58.5084C176.947 58.2323 176.892 57.9592 176.829 57.689C176.768 57.4278 176.701 57.1726 176.627 56.9233C176.554 56.6773 176.473 56.4349 176.385 56.1962C176.298 55.9575 176.204 55.726 176.106 55.5018C176.007 55.278 175.901 55.0607 175.789 54.8501C175.677 54.6395 175.56 54.4391 175.439 54.249C175.318 54.0589 175.193 53.8787 175.063 53.7084C174.933 53.5381 174.799 53.3787 174.661 53.2303C174.526 53.0848 174.383 52.9468 174.234 52.8167C174.087 52.6892 173.933 52.5711 173.772 52.463C173.62 52.361 173.461 52.2698 173.296 52.1902C173.139 52.1142 172.976 52.0505 172.808 51.9998C172.645 51.9506 172.478 51.9149 172.309 51.8932" fill="#096BEF"/>
<path d="M172.309 84.8981L58.2185 82.149C57.5996 82.1336 56.9812 82.1971 56.3782 82.338C56.074 82.4092 55.7745 82.4995 55.4815 82.6082C55.1818 82.7194 54.8891 82.8485 54.605 82.9951C54.3244 83.1397 54.052 83.3 53.7891 83.4752C53.5212 83.6537 53.263 83.8466 53.0156 84.053C52.7618 84.2648 52.5189 84.4896 52.288 84.7265C52.053 84.9672 51.8266 85.2231 51.6087 85.4942C51.3908 85.766 51.1844 86.0492 50.9895 86.3438C50.7946 86.6384 50.6117 86.9439 50.4408 87.2604C50.2699 87.5768 50.1113 87.9038 49.9651 88.2414C49.8188 88.579 49.6854 88.9261 49.5648 89.2829C49.4399 89.6522 49.3305 90.0275 49.2365 90.4087C49.1425 90.79 49.0639 91.1762 49.0008 91.5673C48.9391 91.9585 48.8917 92.3541 48.8589 92.7542C48.826 93.1543 48.8096 93.5575 48.8096 93.9638C48.8109 94.3702 48.8273 94.7733 48.8589 95.173C48.8904 95.5728 48.9377 95.968 49.0008 96.3589C49.0646 96.7477 49.1435 97.1324 49.2375 97.513C49.3314 97.8935 49.4409 98.2682 49.5658 98.6368C49.6864 98.9946 49.8198 99.3418 49.9661 99.6784C50.1123 100.015 50.2709 100.341 50.4418 100.656C50.6127 100.972 50.7956 101.276 50.9905 101.569C51.185 101.862 51.3914 102.143 51.6097 102.413C51.8279 102.682 52.0543 102.937 52.289 103.176C52.5199 103.411 52.7628 103.635 53.0166 103.845C53.264 104.05 53.5222 104.241 53.7901 104.418C54.053 104.591 54.3254 104.75 54.6059 104.892C54.8902 105.037 55.1829 105.165 55.4825 105.274C55.7756 105.381 56.0751 105.469 56.3792 105.538C56.6802 105.607 56.9853 105.657 57.2927 105.687C57.6006 105.717 57.9102 105.727 58.2195 105.717L172.309 102.225C172.477 102.22 172.644 102.201 172.808 102.167C172.975 102.133 173.138 102.086 173.296 102.025C173.46 101.962 173.619 101.886 173.772 101.799C173.933 101.707 174.087 101.603 174.234 101.49C174.383 101.375 174.526 101.25 174.661 101.118C174.803 100.979 174.937 100.833 175.063 100.68C175.193 100.524 175.318 100.356 175.439 100.176C175.561 99.9968 175.677 99.8078 175.789 99.6094C175.901 99.4097 176.006 99.2027 176.106 98.9885C176.205 98.7742 176.299 98.5527 176.385 98.3239C176.472 98.0914 176.553 97.8549 176.627 97.6142C176.701 97.3734 176.768 97.1255 176.829 96.8702C176.893 96.609 176.948 96.3427 176.995 96.0712C177.041 95.7998 177.081 95.5252 177.113 95.2474C177.145 94.9687 177.169 94.6876 177.185 94.4043C177.201 94.1209 177.209 93.8352 177.209 93.5472C177.208 93.2619 177.2 92.9769 177.185 92.6922C177.17 92.4075 177.146 92.1265 177.113 91.8491C177.082 91.5707 177.042 91.2964 176.995 91.0263C176.947 90.7561 176.892 90.4888 176.829 90.2243C176.768 89.969 176.7 89.7204 176.626 89.4784C176.552 89.2363 176.472 89.0012 176.385 88.7731C176.299 88.545 176.206 88.3239 176.106 88.11C176.007 87.8961 175.901 87.6899 175.789 87.4915C175.677 87.2928 175.561 87.1043 175.44 86.9261C175.319 86.7479 175.193 86.5808 175.064 86.4247C174.937 86.2723 174.803 86.1267 174.661 85.9887C174.526 85.8573 174.384 85.7341 174.234 85.6198C174.088 85.5073 173.933 85.4053 173.773 85.3142C173.62 85.228 173.46 85.1538 173.296 85.092C173.138 85.0322 172.974 84.9856 172.808 84.9527C172.644 84.9203 172.477 84.9021 172.309 84.8981Z" fill="#E4E4E4"/>
<path d="M172.309 115.84L58.2185 124.234C57.9072 124.257 57.5977 124.3 57.2917 124.361C56.9826 124.423 56.6775 124.504 56.3782 124.603C56.0726 124.705 55.7732 124.824 55.4815 124.961C55.1808 125.102 54.8882 125.26 54.605 125.434C54.3237 125.606 54.0514 125.793 53.7891 125.993C53.5236 126.197 53.2657 126.415 53.0156 126.646C52.7655 126.879 52.523 127.127 52.288 127.39C52.053 127.654 51.8266 127.932 51.6087 128.224C51.3908 128.517 51.1844 128.821 50.9895 129.135C50.7946 129.448 50.6117 129.772 50.4408 130.105C50.2699 130.438 50.1114 130.78 49.9651 131.132C49.8188 131.484 49.6854 131.844 49.5648 132.213C49.4399 132.594 49.3305 132.98 49.2365 133.371C49.1425 133.762 49.064 134.156 49.0009 134.553C48.9391 134.95 48.8917 135.351 48.8589 135.754C48.826 136.157 48.8096 136.561 48.8096 136.968C48.8109 137.374 48.8273 137.776 48.8589 138.173C48.8904 138.569 48.9378 138.96 49.0009 139.344C49.0646 139.73 49.1435 140.108 49.2375 140.479C49.3314 140.85 49.4409 141.214 49.5658 141.57C49.6864 141.915 49.8198 142.248 49.9661 142.57C50.1123 142.893 50.2709 143.203 50.4418 143.502C50.6127 143.8 50.7956 144.087 50.9905 144.361C51.1834 144.633 51.3901 144.895 51.6097 145.146C51.8236 145.389 52.0504 145.621 52.289 145.84C52.5201 146.053 52.763 146.253 53.0166 146.438C53.2645 146.618 53.5228 146.784 53.7901 146.934C54.0538 147.083 54.3263 147.215 54.606 147.331C54.8915 147.449 55.1842 147.548 55.4825 147.628C55.7772 147.707 56.0768 147.766 56.3792 147.805C56.6821 147.844 56.9872 147.863 57.2927 147.863C57.6026 147.862 57.9121 147.842 58.2195 147.802L172.309 133.172C172.478 133.15 172.645 133.114 172.808 133.065C172.976 133.014 173.139 132.951 173.296 132.875C173.461 132.795 173.62 132.704 173.772 132.602C173.933 132.494 174.087 132.376 174.234 132.248C174.383 132.118 174.526 131.98 174.661 131.835C174.798 131.686 174.932 131.526 175.063 131.356C175.193 131.187 175.318 131.006 175.439 130.816C175.561 130.625 175.677 130.425 175.789 130.215C175.901 130.006 176.006 129.789 176.106 129.563C176.205 129.338 176.299 129.106 176.385 128.869C176.472 128.63 176.553 128.386 176.627 128.137C176.701 127.888 176.768 127.633 176.829 127.371C176.893 127.101 176.948 126.828 176.995 126.552C177.041 126.276 177.081 125.997 177.113 125.716C177.145 125.436 177.169 125.153 177.185 124.868C177.201 124.583 177.209 124.296 177.209 124.008C177.207 123.722 177.199 123.438 177.184 123.156C177.17 122.875 177.146 122.596 177.113 122.322C177.081 122.047 177.042 121.776 176.995 121.509C176.947 121.243 176.892 120.981 176.829 120.724C176.768 120.475 176.701 120.233 176.627 119.998C176.554 119.764 176.474 119.537 176.386 119.317C176.298 119.097 176.205 118.885 176.106 118.681C176.006 118.479 175.9 118.283 175.788 118.095C175.676 117.906 175.559 117.729 175.438 117.564C175.321 117.403 175.196 117.248 175.062 117.1C174.936 116.96 174.802 116.827 174.66 116.703C174.525 116.585 174.382 116.475 174.233 116.376C174.086 116.278 173.931 116.19 173.771 116.115C173.618 116.044 173.458 115.985 173.295 115.939C172.975 115.849 172.641 115.815 172.309 115.84" fill="#E4E4E4"/>
<path d="M110.124 117.378C110.846 118.587 111.985 119.487 113.324 119.907C114.662 120.326 116.108 120.237 117.385 119.656C118.663 119.074 119.684 118.041 120.254 116.752C120.824 115.464 120.904 114.009 120.479 112.665L142.591 66.9617L132.007 60.5063L112.911 109.052C112.838 109.081 112.766 109.111 112.695 109.142C112.624 109.173 112.554 109.206 112.483 109.24C112.413 109.274 112.344 109.31 112.274 109.348C112.205 109.385 112.136 109.425 112.068 109.466C110.768 110.256 109.832 111.533 109.467 113.017C109.103 114.5 109.339 116.069 110.123 117.377L110.124 117.378Z" fill="#9E616A"/>
<path d="M138.371 84.5847L122.662 80.5341C122.662 80.5341 123.175 79.3677 124.009 77.4353C124.842 75.5029 126.007 72.8082 127.317 69.7489C128.627 66.6895 130.081 63.2711 131.5 59.8921C132.92 56.5131 134.301 53.1746 135.464 50.2808C136.627 47.3871 137.948 45.654 139.276 44.6827C140.374 43.8424 141.759 43.4723 143.127 43.6526C144.191 43.812 145.208 44.2013 146.107 44.7939C146.533 45.0606 146.934 45.3664 147.304 45.7075L150.946 52.3711L138.371 84.5847Z" fill="#CCCCCC"/>
<path d="M12.6556 80.9655C12.2752 80.9937 11.8967 81.0434 11.5218 81.1143C11.1445 81.1853 10.7714 81.2774 10.4042 81.39C10.0315 81.5046 9.66513 81.6393 9.30686 81.7937C8.94018 81.9517 8.58197 82.1288 8.23366 82.3244C7.89286 82.5172 7.55977 82.7268 7.2344 82.9533C6.90904 83.1798 6.59304 83.4231 6.28641 83.6834C5.98011 83.9429 5.68285 84.2197 5.39462 84.5136C5.10639 84.8075 4.8287 85.1175 4.56151 85.4435C4.29432 85.7695 4.04108 86.1073 3.80182 86.4568C3.56256 86.8063 3.33809 87.1663 3.12842 87.537C2.92071 87.9083 2.72647 88.2897 2.54572 88.6812C2.36496 89.0726 2.20064 89.4732 2.05275 89.8829C1.89861 90.3078 1.7637 90.7371 1.64802 91.1709C1.53233 91.6047 1.43587 92.0421 1.35864 92.4832C1.28108 92.9243 1.22291 93.3684 1.18413 93.8154C1.14535 94.2624 1.12597 94.7113 1.12598 95.1619C1.12598 95.6126 1.14536 96.0575 1.18413 96.4966C1.2229 96.9357 1.28106 97.368 1.35864 97.7935C1.43587 98.2191 1.53233 98.637 1.64802 99.0473C1.7637 99.4577 1.89812 99.8596 2.05127 100.253C2.20048 100.633 2.3648 101 2.54424 101.356C2.72161 101.707 2.91641 102.049 3.12792 102.381C3.33611 102.707 3.56089 103.021 3.80133 103.324C4.03948 103.624 4.29322 103.912 4.5615 104.185C4.82534 104.454 5.10345 104.708 5.39462 104.947C5.67974 105.18 5.97763 105.398 6.2869 105.598C6.89723 105.993 7.55058 106.317 8.23415 106.562C8.93489 106.814 9.6631 106.981 10.4032 107.058C10.7745 107.097 11.1476 107.113 11.5208 107.108C11.9 107.102 12.2785 107.075 12.6546 107.027C13.0342 106.978 13.4107 106.909 13.7826 106.818C14.1556 106.727 14.5234 106.616 14.8844 106.485C15.2495 106.353 15.6074 106.201 15.9566 106.031C16.3124 105.857 16.6592 105.665 16.9958 105.456C17.3234 105.251 17.6426 105.03 17.9531 104.795C18.2637 104.559 18.5646 104.308 18.8558 104.042C19.1469 103.775 19.4281 103.494 19.6992 103.199C19.9704 102.903 20.231 102.593 20.4811 102.268C20.7328 101.944 20.9698 101.61 21.192 101.266C21.4141 100.922 21.6222 100.569 21.8161 100.207C22.01 99.8449 22.1894 99.4744 22.3544 99.0955C22.5194 98.7166 22.6698 98.3297 22.8055 97.9349C22.9461 97.5262 23.0692 97.1141 23.1747 96.6985C23.2802 96.2828 23.3683 95.8642 23.439 95.4427C23.5093 95.0208 23.5622 94.5967 23.5977 94.1705C23.6332 93.7443 23.6509 93.3163 23.6509 92.8865C23.6506 92.4566 23.6329 92.0321 23.5977 91.6128C23.5625 91.1936 23.5096 90.7803 23.439 90.3729C23.3686 89.9662 23.2806 89.5655 23.1747 89.1707C23.0689 88.7759 22.9458 88.3886 22.8055 88.0087C22.6691 87.641 22.5187 87.2844 22.3544 86.9389C22.1878 86.5943 22.0075 86.2601 21.8136 85.936C21.4298 85.2956 20.9834 84.6954 20.4811 84.1441C20.2346 83.873 19.9743 83.6149 19.7012 83.3709C19.4323 83.1315 19.1507 82.9068 18.8578 82.6979C18.5676 82.491 18.2662 82.3004 17.9551 82.127C17.6442 81.9537 17.3239 81.7981 16.9958 81.6608C16.3182 81.3769 15.6097 81.1746 14.8849 81.0582C14.5201 80.9997 14.1522 80.9628 13.7831 80.9476C13.4071 80.9323 13.0305 80.9386 12.6552 80.9665" fill="#E4E4E4"/>
<path d="M12.6556 127.586C12.2752 127.614 11.8967 127.664 11.5218 127.735C11.1445 127.806 10.7714 127.898 10.4042 128.011C10.0315 128.125 9.66513 128.26 9.30686 128.414C8.94018 128.572 8.58197 128.749 8.23366 128.945C7.89286 129.138 7.55977 129.347 7.2344 129.574C6.90904 129.8 6.59304 130.044 6.28641 130.304C5.98011 130.564 5.68285 130.84 5.39462 131.134C5.10639 131.428 4.8287 131.738 4.56151 132.064C4.29432 132.39 4.04108 132.728 3.80182 133.077C3.56256 133.427 3.33809 133.787 3.12842 134.158C2.92071 134.529 2.72647 134.91 2.54572 135.302C2.36496 135.693 2.20064 136.094 2.05275 136.503C1.89861 136.928 1.7637 137.358 1.64802 137.792C1.53233 138.225 1.43587 138.663 1.35864 139.104C1.28108 139.545 1.22291 139.989 1.18413 140.436C1.14535 140.883 1.12597 141.332 1.12598 141.783C1.12598 142.233 1.14536 142.678 1.18413 143.117C1.2229 143.556 1.28106 143.989 1.35864 144.414C1.43587 144.84 1.53233 145.258 1.64802 145.668C1.7637 146.078 1.89812 146.48 2.05127 146.874C2.20048 147.254 2.3648 147.621 2.54424 147.976C2.72161 148.328 2.91641 148.67 3.12792 149.002C3.33611 149.327 3.56089 149.642 3.80133 149.944C4.03948 150.245 4.29322 150.532 4.5615 150.806C4.82534 151.075 5.10345 151.329 5.39462 151.567C5.67975 151.801 5.97763 152.018 6.2869 152.219C6.89723 152.614 7.55058 152.937 8.23415 153.183C8.93489 153.435 9.6631 153.601 10.4032 153.679C10.7745 153.717 11.1476 153.734 11.5208 153.728C11.9 153.723 12.2785 153.696 12.6546 153.648C13.0342 153.599 13.4107 153.529 13.7826 153.439C14.1556 153.348 14.5234 153.237 14.8844 153.106C15.2495 152.973 15.6074 152.822 15.9566 152.651C16.3124 152.477 16.6592 152.286 16.9958 152.077C17.3234 151.871 17.6426 151.651 17.9531 151.415C18.2637 151.18 18.5646 150.929 18.8558 150.662C19.1469 150.396 19.4281 150.115 19.6992 149.819C19.9704 149.524 20.231 149.213 20.4811 148.889C20.7328 148.564 20.9698 148.23 21.192 147.886C21.4141 147.543 21.6222 147.19 21.8161 146.828C22.01 146.465 22.1894 146.095 22.3544 145.716C22.5194 145.337 22.6698 144.95 22.8055 144.555C22.9461 144.147 23.0692 143.735 23.1747 143.319C23.2802 142.903 23.3683 142.485 23.439 142.063C23.5093 141.641 23.5622 141.217 23.5977 140.791C23.6332 140.365 23.6509 139.937 23.6509 139.507C23.6506 139.077 23.6329 138.653 23.5977 138.233C23.5625 137.814 23.5096 137.401 23.439 136.994C23.3686 136.587 23.2806 136.186 23.1747 135.791C23.0689 135.397 22.9458 135.009 22.8055 134.629C22.6691 134.262 22.5187 133.905 22.3544 133.559C22.1878 133.215 22.0075 132.881 21.8136 132.557C21.4298 131.916 20.9834 131.316 20.4811 130.765C20.2346 130.494 19.9743 130.235 19.7012 129.991C19.4323 129.752 19.1507 129.527 18.8578 129.318C18.5676 129.112 18.2662 128.921 17.9551 128.748C17.6442 128.574 17.3239 128.419 16.9958 128.281C16.3182 127.997 15.6097 127.795 14.8849 127.679C14.5201 127.62 14.1522 127.583 13.7831 127.568C13.4071 127.553 13.0305 127.559 12.6552 127.587" fill="#E4E4E4"/>
<path d="M12.6573 30.4605C12.279 30.4513 11.9005 30.4637 11.5235 30.4977C11.1481 30.5317 10.775 30.5873 10.4059 30.6644C10.0348 30.7424 9.66842 30.8417 9.30858 30.9619C8.9432 31.0836 8.58491 31.2259 8.23538 31.388C7.89326 31.5465 7.5597 31.7232 7.23612 31.9172C6.90935 32.1131 6.59292 32.326 6.28813 32.555C5.97842 32.7876 5.68061 33.0359 5.39585 33.2989C5.10631 33.5664 4.82811 33.8499 4.56125 34.1495C4.29406 34.4494 4.04083 34.7625 3.80156 35.0889C3.5623 35.4152 3.33784 35.7534 3.12816 36.1036C2.91947 36.4584 2.72474 36.8219 2.54398 37.1942C2.36323 37.5665 2.19891 37.951 2.05102 38.3478C1.89787 38.7568 1.76345 39.1726 1.64776 39.5952C1.53207 40.0177 1.43561 40.4458 1.35838 40.8792C1.28082 41.314 1.22265 41.7525 1.18387 42.1945C1.14509 42.6366 1.12571 43.083 1.12572 43.5336C1.12572 43.9836 1.1451 44.43 1.18387 44.8727C1.22264 45.3155 1.28081 45.7534 1.35838 46.1866C1.43561 46.6197 1.53207 47.0471 1.64776 47.4686C1.76344 47.8902 1.89787 48.3051 2.05102 48.7135C2.20022 49.1079 2.36454 49.4915 2.54398 49.8641C2.72474 50.2354 2.91995 50.5957 3.12961 50.9448C3.33927 51.294 3.56375 51.6308 3.80303 51.9551C4.04196 52.2805 4.29518 52.5919 4.5627 52.8895C4.83023 53.1871 5.10794 53.4681 5.39583 53.7327C5.6791 53.9946 5.97542 54.2419 6.28367 54.4736C6.5885 54.7006 6.90493 54.9113 7.23166 55.105C7.5553 55.2969 7.88886 55.4714 8.23092 55.6277C8.58054 55.7876 8.93885 55.9275 9.30413 56.0468C10.0229 56.2808 10.7661 56.4306 11.5191 56.4932C12.273 56.5561 13.0316 56.533 13.7803 56.4242C14.1515 56.3703 14.5194 56.2951 14.8821 56.1991C15.2458 56.1027 15.6037 55.9858 15.9543 55.8489C16.309 55.7106 16.656 55.5528 16.9935 55.3763C17.3227 55.2043 17.6429 55.0154 17.9529 54.8104C18.2646 54.604 18.5659 54.3821 18.8555 54.1453C19.1467 53.9072 19.4278 53.6536 19.699 53.3845C19.9701 53.1154 20.2307 52.8307 20.4808 52.5304C20.7326 52.2302 20.9695 51.9191 21.1917 51.597C21.4139 51.275 21.6219 50.9424 21.8158 50.5991C22.0104 50.2559 22.1898 49.903 22.3541 49.5403C22.5185 49.1775 22.6688 48.8061 22.8052 48.4258C22.9459 48.031 23.069 47.631 23.1745 47.2256C23.28 46.8202 23.368 46.4102 23.4387 45.9956C23.509 45.5793 23.5619 45.1597 23.5974 44.7369C23.6329 44.314 23.6507 43.8876 23.6507 43.4577C23.6503 43.0282 23.6326 42.602 23.5974 42.1792C23.5623 41.7563 23.5094 41.3378 23.4387 40.9239C23.3684 40.5096 23.2803 40.0999 23.1745 39.6949C23.0686 39.2898 22.9456 38.8904 22.8052 38.4966C22.6688 38.116 22.5185 37.7449 22.3541 37.3832C22.1898 37.0214 22.0096 36.6691 21.8134 36.3263C21.6195 35.9864 21.4114 35.6557 21.1892 35.3343C20.967 35.013 20.7309 34.7035 20.4808 34.4059C20.2324 34.1086 19.9724 33.8261 19.7009 33.5583C19.4295 33.2905 19.1483 33.0387 18.8575 32.8029C18.568 32.5676 18.2669 32.3471 17.9553 32.1423C17.6453 31.9392 17.3251 31.7523 16.996 31.5824C16.6584 31.4079 16.3114 31.2523 15.9568 31.1162C15.6061 30.9816 15.2481 30.867 14.8846 30.773C14.5218 30.6792 14.1539 30.6063 13.7828 30.5547C13.4088 30.5029 13.0323 30.4724 12.6549 30.4635L12.6573 30.4605ZM12.6549 29.2226C14.3109 29.2682 15.9351 29.6911 17.4052 30.4595C18.8661 31.228 20.1609 32.2804 21.2149 33.5558C22.3165 34.8849 23.1745 36.4006 23.7488 38.0319C24.9785 41.5432 24.9785 45.3719 23.7488 48.8831C23.1739 50.5192 22.3161 52.0401 21.2149 53.3756C20.1608 54.657 18.8661 55.7169 17.4047 56.4947C15.9365 57.2723 14.3126 57.7058 12.6544 57.7629C10.9859 57.8179 9.32736 57.4853 7.80745 56.7908C6.27306 56.0837 4.90038 55.0654 3.77542 53.7996C2.58082 52.4593 1.64586 50.906 1.01871 49.2199C-0.339571 45.5493 -0.339571 41.5096 1.01871 37.839C1.64647 36.1478 2.58125 34.5888 3.77542 33.2414C4.90003 31.9686 6.27236 30.9416 7.80745 30.2239C9.32618 29.5196 10.9856 29.1763 12.6573 29.2206L12.6549 29.2226Z" fill="#096BEF"/>
<path d="M12.6566 47.0003L8.77344 38.8615L9.6953 38.2574L12.8937 44.9435L26.3233 29.0627L27.1362 29.9342L12.6566 47.0003Z" fill="#096BEF"/>
<path d="M153.98 207.682L144.367 207.644L147.467 232.915L153.98 232.948V207.682Z" fill="#9E616A"/>
<path d="M155.641 239.306L134.651 239.195V238.928C134.651 238.386 134.703 237.845 134.808 237.314C135.015 236.265 135.426 235.268 136.018 234.38C136.62 233.481 137.391 232.708 138.289 232.108C139.174 231.515 140.167 231.106 141.21 230.903C141.739 230.801 142.277 230.751 142.816 230.754L155.641 230.818V239.306Z" fill="#2F2E41"/>
<path d="M123.2 207.562L113.614 207.524L116.704 232.761L123.2 232.794V207.562Z" fill="#9E616A"/>
<path d="M124.857 239.142L103.922 239.032V238.765C103.922 238.224 103.974 237.684 104.079 237.153C104.284 236.106 104.695 235.11 105.285 234.223C105.885 233.325 106.655 232.553 107.55 231.953C108.433 231.362 109.424 230.953 110.465 230.751C110.992 230.649 111.529 230.599 112.066 230.602L124.857 230.665V239.142Z" fill="#2F2E41"/>
<path d="M122.794 104.273L106.675 164.792L112.575 222.803L125.639 223.166L122.794 170.784L139.091 144.644L142.626 223.522L154.476 222.679L161.068 154.86C163.307 149.564 164.949 144.033 165.963 138.37C166.76 133.924 167.148 129.414 167.121 124.897C167.108 121.856 166.876 118.819 166.426 115.812C166.266 114.691 166.048 113.58 165.775 112.481L160.969 107.58L122.794 104.273Z" fill="#2F2E41"/>
<path d="M144.149 114.395C141.439 114.395 138.895 114.307 136.589 114.134C134.233 113.972 131.889 113.661 129.572 113.205C127.598 112.834 125.677 112.226 123.848 111.392C122.377 110.753 121.097 109.737 120.136 108.445L120.026 108.284L124.432 79.4375L129.183 47.0028C129.496 44.8564 130.582 42.9007 132.235 41.5078C133.888 40.115 135.993 39.3823 138.148 39.4493L153.028 39.908C154.143 39.9424 155.241 40.2019 156.255 40.671C157.269 41.1401 158.18 41.8093 158.932 42.6389C159.685 43.4686 160.264 44.4417 160.636 45.5008C161.007 46.5598 161.164 47.6831 161.096 48.8042L159.143 81.0608L166.348 112.878L165.837 112.95C165.632 112.977 164.841 113.082 163.603 113.223C161.984 113.406 160.331 113.571 158.689 113.713C156.367 113.915 154.095 114.073 151.936 114.184C149.198 114.324 146.573 114.392 144.149 114.395Z" fill="#CCCCCC"/>
<path d="M135.892 33.7175C135.888 33.7175 135.884 33.7175 135.88 33.7175C135.568 33.7173 135.259 33.6552 134.971 33.5348C134.683 33.4145 134.421 33.2381 134.2 33.0159C133.979 32.7937 133.805 32.53 133.685 32.2397C133.566 31.9495 133.505 31.6385 133.505 31.3244V17.978C133.503 15.5869 133.978 13.2197 134.903 11.0171C136.715 6.71902 140.106 3.29012 144.369 1.44502C147.065 0.281643 150.005 -0.190894 152.927 0.0697197C155.849 0.330333 158.662 1.31596 161.112 2.93834C163.563 4.56073 165.575 6.76922 166.969 9.36605C168.363 11.9629 169.095 14.867 169.1 17.8183V31.1851C169.1 31.5067 169.036 31.8252 168.911 32.1214C168.667 32.6993 168.21 33.1599 167.636 33.407C167.342 33.5334 167.025 33.599 166.705 33.5999L135.89 33.7175H135.892Z" fill="#2F2E41"/>
<path d="M159.339 13.4005C160.58 15.6814 161.121 18.2811 160.895 20.8714C160.668 23.4618 159.684 25.9265 158.066 27.9542C156.448 29.982 154.269 31.4819 151.804 32.2646C149.339 33.0472 146.699 33.0774 144.217 32.3514C142.574 31.8763 141.041 31.0778 139.706 30.0022C138.372 28.9266 137.263 27.5953 136.443 26.0854C135.205 23.8055 134.665 21.2079 134.892 18.6199C135.12 16.032 136.103 13.5696 137.719 11.5433C139.335 9.51697 141.512 8.01741 143.974 7.2337C146.436 6.44999 149.073 6.41722 151.554 7.1395C153.199 7.61287 154.734 8.41011 156.07 9.48497C157.407 10.5598 158.517 11.8909 159.339 13.4011V13.4005Z" fill="#9E616A"/>
<path d="M129.298 19.0639C129.296 17.1728 129.672 15.3007 130.404 13.5587C131.837 10.16 134.518 7.44873 137.889 5.99029C139.618 5.24475 141.479 4.85682 143.361 4.84956L146.016 4.83617C146.046 4.836 146.076 4.83592 146.106 4.83594C147.944 4.83708 149.764 5.20253 151.463 5.91144C153.161 6.62035 154.704 7.65884 156.003 8.96759C157.302 10.2763 158.332 11.8298 159.035 13.5391C159.737 15.2485 160.098 17.0803 160.097 18.93V19.1973L154.48 19.2202L152.565 13.8369L152.182 19.2306L149.281 19.2434L148.315 16.5275L148.122 19.2469L129.3 19.3317L129.298 19.0639Z" fill="#2F2E41"/>
<path d="M106.685 47.1409C105.821 47.3537 105.012 47.7522 104.316 48.3091C103.771 48.7424 103.306 49.2676 102.94 49.8611C102.218 51.0357 101.9 52.4163 102.035 53.7905C102.103 54.4847 102.29 55.1618 102.588 55.7916C102.956 56.5766 103.484 57.2742 104.139 57.8384C104.795 58.4026 105.561 58.8206 106.389 59.0648C107.216 59.309 108.086 59.3738 108.94 59.2549C109.794 59.1361 110.614 58.8363 111.345 58.3753C111.398 58.3403 111.452 58.3048 111.504 58.2688C111.557 58.2328 111.609 58.1961 111.66 58.1586C111.711 58.121 111.762 58.0829 111.811 58.0442C111.861 58.0054 111.91 57.9662 111.958 57.9263L142.953 69.0244C143.907 69.3656 144.945 69.386 145.911 69.0824C146.877 68.7788 147.719 68.1677 148.31 67.341L155.658 57.1053L146.774 51.0866L142.112 56.4149L113.747 50.7381C113.716 50.6642 113.684 50.5906 113.651 50.5174C113.618 50.4442 113.583 50.3713 113.547 50.2987C113.51 50.2264 113.473 50.1544 113.434 50.0828C113.395 50.0112 113.354 49.9401 113.31 49.8696C112.634 48.7696 111.628 47.9131 110.438 47.423C109.248 46.9328 107.934 46.8341 106.685 47.1409Z" fill="#9E616A"/>
<path d="M142.612 53.0545C143.539 51.8903 144.836 50.3789 146.153 48.8798C147.47 47.3806 148.806 45.8948 149.815 44.7833C150.823 43.6718 151.501 42.9351 151.501 42.9351C152.432 41.5195 153.821 40.4716 155.432 39.9694C157.044 39.4672 158.778 39.5417 160.341 40.1803C161.904 40.8189 163.199 41.9821 164.007 43.4724C164.814 44.9627 165.083 46.6882 164.769 48.3558C164.59 49.3158 164.22 50.2294 163.68 51.0415C163.68 51.0415 162.669 52.3728 161.143 54.3598C159.616 56.3468 157.574 58.9919 155.514 61.6216C153.454 64.2512 151.374 66.8673 149.77 68.7984C148.167 70.7294 147.038 71.9769 146.879 71.8701L141.285 55.14C141.126 55.0332 141.685 54.2186 142.612 53.0545Z" fill="#CCCCCC"/>
<path d="M145.932 33.2966C145.845 33.7281 145.879 34.1757 146.031 34.5886C146.108 34.7999 146.213 34.9994 146.345 35.1813C146.457 35.3362 146.588 35.4772 146.733 35.6014C147.164 35.9678 147.711 36.1678 148.275 36.1653C148.31 36.165 148.345 36.164 148.381 36.1623C148.416 36.1607 148.451 36.1582 148.486 36.1549C148.522 36.1519 148.557 36.1479 148.592 36.143C148.627 36.138 148.663 36.1324 148.698 36.1261L150.692 35.7616L153.438 29.8596V35.2656L162.501 33.624V10.6831L147.306 10.7565L147.682 11.1954C148.929 12.6682 149.748 14.4585 150.048 16.3693C150.343 18.3047 150.306 20.2766 149.939 22.1994C149.582 24.145 149.04 26.0517 148.321 27.8931C147.692 29.5244 146.971 31.1179 146.16 32.6657C146.055 32.8643 145.979 33.0767 145.932 33.2966Z" fill="#2F2E41"/>
<path d="M40.6844 240H228.507C228.638 240 228.764 239.948 228.856 239.855C228.949 239.762 229 239.636 229 239.504C229 239.372 228.949 239.246 228.856 239.153C228.764 239.06 228.638 239.008 228.507 239.008H40.6844C40.5536 239.008 40.4282 239.06 40.3358 239.153C40.2433 239.246 40.1914 239.372 40.1914 239.504C40.1914 239.636 40.2433 239.762 40.3358 239.855C40.4282 239.948 40.5536 240 40.6844 240Z" fill="#CACACA"/>
</g>
<defs>
<clipPath id="clip0">
<rect width="229" height="240" fill="white"/>
</clipPath>
</defs>
</svg>
