<svg width="24" height="24" viewBox="0 0 24 24" fill="none" xmlns="http://www.w3.org/2000/svg">
<mask id="mask0" mask-type="alpha" maskUnits="userSpaceOnUse" x="4" y="2" width="16" height="20">
<path fill-rule="evenodd" clip-rule="evenodd" d="M8.63377 17.1378L9.66246 17.8725L12 19.5422L14.3375 17.8725L15.3662 17.1378L16.4713 17.7517L18 18.601V4.5C18 4.22386 17.7761 4 17.5 4H6.49998C6.22384 4 5.99998 4.22386 5.99998 4.5V18.601L7.5287 17.7517L8.63377 17.1378ZM5.03993 21.4223L8.49998 19.5L11.5931 21.7094C11.8365 21.8832 12.1635 21.8832 12.4069 21.7094L15.5 19.5L18.96 21.4222C19.4266 21.6815 20 21.3441 20 20.8103V4.5C20 3.11929 18.8807 2 17.5 2H6.49998C5.11927 2 3.99998 3.11929 3.99998 4.5V20.8103C3.99998 21.3441 4.57336 21.6815 5.03993 21.4223ZM7.99998 12C7.99998 11.4477 8.4477 11 8.99998 11H15C15.5523 11 16 11.4477 16 12C16 12.5523 15.5523 13 15 13H8.99998C8.4477 13 7.99998 12.5523 7.99998 12ZM8.99998 7C8.4477 7 7.99998 7.44772 7.99998 8C7.99998 8.55228 8.4477 9 8.99998 9H15C15.5523 9 16 8.55228 16 8C16 7.44772 15.5523 7 15 7H8.99998Z" fill="white"/>
</mask>
<g mask="url(#mask0)">
<rect width="24" height="24" fill="currentColor" />
</g>
</svg>
