<svg width="20" height="20" viewBox="0 0 20 20" fill="none" xmlns="http://www.w3.org/2000/svg">
<path fill-rule="evenodd" clip-rule="evenodd" d="M9.16675 15.8333C8.70675 15.8333 8.33341 15.46 8.33341 15C8.33341 14.54 8.70675 14.1667 9.16675 14.1667C9.62675 14.1667 10.0001 14.54 10.0001 15C10.0001 15.46 9.62675 15.8333 9.16675 15.8333ZM17.5001 14.1667H11.5126C11.1676 13.1992 10.2517 12.5 9.16675 12.5C8.08175 12.5 7.16592 13.1992 6.82091 14.1667H2.50008C2.03925 14.1667 1.66675 14.5392 1.66675 15C1.66675 15.4608 2.03925 15.8333 2.50008 15.8333H6.82091C7.16592 16.8008 8.08175 17.5 9.16675 17.5C10.2517 17.5 11.1676 16.8008 11.5126 15.8333H17.5001C17.9609 15.8333 18.3334 15.4608 18.3334 15C18.3334 14.5392 17.9609 14.1667 17.5001 14.1667ZM15.8334 10.8333C15.3734 10.8333 15.0001 10.46 15.0001 10C15.0001 9.54 15.3734 9.16667 15.8334 9.16667C16.2934 9.16667 16.6667 9.54 16.6667 10C16.6667 10.46 16.2934 10.8333 15.8334 10.8333ZM15.8334 7.5C14.7484 7.5 13.8326 8.19917 13.4876 9.16667H2.50008C2.03925 9.16667 1.66675 9.53917 1.66675 10C1.66675 10.4608 2.03925 10.8333 2.50008 10.8333H13.4876C13.8326 11.8008 14.7484 12.5 15.8334 12.5C17.2117 12.5 18.3334 11.3783 18.3334 10C18.3334 8.62167 17.2117 7.5 15.8334 7.5ZM5.83342 4.16667C6.29342 4.16667 6.66675 4.54 6.66675 5C6.66675 5.46 6.29342 5.83333 5.83342 5.83333C5.37341 5.83333 5.00008 5.46 5.00008 5C5.00008 4.54 5.37341 4.16667 5.83342 4.16667ZM2.50008 5.83333H3.48758C3.83258 6.80083 4.74841 7.5 5.83342 7.5C6.91842 7.5 7.83425 6.80083 8.17925 5.83333H17.5001C17.9609 5.83333 18.3334 5.46083 18.3334 5C18.3334 4.53917 17.9609 4.16667 17.5001 4.16667H8.17925C7.83425 3.19917 6.91842 2.5 5.83342 2.5C4.74841 2.5 3.83258 3.19917 3.48758 4.16667H2.50008C2.03925 4.16667 1.66675 4.53917 1.66675 5C1.66675 5.46083 2.03925 5.83333 2.50008 5.83333Z" fill="#8B959E"/>
<mask id="mask0" mask-type="alpha" maskUnits="userSpaceOnUse" x="1" y="2" width="18" height="16">
<path fill-rule="evenodd" clip-rule="evenodd" d="M9.16675 15.8333C8.70675 15.8333 8.33341 15.46 8.33341 15C8.33341 14.54 8.70675 14.1667 9.16675 14.1667C9.62675 14.1667 10.0001 14.54 10.0001 15C10.0001 15.46 9.62675 15.8333 9.16675 15.8333ZM17.5001 14.1667H11.5126C11.1676 13.1992 10.2517 12.5 9.16675 12.5C8.08175 12.5 7.16592 13.1992 6.82091 14.1667H2.50008C2.03925 14.1667 1.66675 14.5392 1.66675 15C1.66675 15.4608 2.03925 15.8333 2.50008 15.8333H6.82091C7.16592 16.8008 8.08175 17.5 9.16675 17.5C10.2517 17.5 11.1676 16.8008 11.5126 15.8333H17.5001C17.9609 15.8333 18.3334 15.4608 18.3334 15C18.3334 14.5392 17.9609 14.1667 17.5001 14.1667ZM15.8334 10.8333C15.3734 10.8333 15.0001 10.46 15.0001 10C15.0001 9.54 15.3734 9.16667 15.8334 9.16667C16.2934 9.16667 16.6667 9.54 16.6667 10C16.6667 10.46 16.2934 10.8333 15.8334 10.8333ZM15.8334 7.5C14.7484 7.5 13.8326 8.19917 13.4876 9.16667H2.50008C2.03925 9.16667 1.66675 9.53917 1.66675 10C1.66675 10.4608 2.03925 10.8333 2.50008 10.8333H13.4876C13.8326 11.8008 14.7484 12.5 15.8334 12.5C17.2117 12.5 18.3334 11.3783 18.3334 10C18.3334 8.62167 17.2117 7.5 15.8334 7.5ZM5.83342 4.16667C6.29342 4.16667 6.66675 4.54 6.66675 5C6.66675 5.46 6.29342 5.83333 5.83342 5.83333C5.37341 5.83333 5.00008 5.46 5.00008 5C5.00008 4.54 5.37341 4.16667 5.83342 4.16667ZM2.50008 5.83333H3.48758C3.83258 6.80083 4.74841 7.5 5.83342 7.5C6.91842 7.5 7.83425 6.80083 8.17925 5.83333H17.5001C17.9609 5.83333 18.3334 5.46083 18.3334 5C18.3334 4.53917 17.9609 4.16667 17.5001 4.16667H8.17925C7.83425 3.19917 6.91842 2.5 5.83342 2.5C4.74841 2.5 3.83258 3.19917 3.48758 4.16667H2.50008C2.03925 4.16667 1.66675 4.53917 1.66675 5C1.66675 5.46083 2.03925 5.83333 2.50008 5.83333Z" fill="white"/>
</mask>
<g mask="url(#mask0)">
<rect width="20" height="20" fill="#8B959E"/>
</g>
</svg>
