<svg width="77" height="79" viewBox="0 0 77 79" fill="none" xmlns="http://www.w3.org/2000/svg">
<path d="M54.5413 25.3376H51.333V19.3516C51.333 15.9916 49.9809 12.7693 47.5742 10.3934C45.1675 8.01755 41.9033 6.6828 38.4997 6.6828C35.0961 6.6828 31.8319 8.01755 29.4251 10.3934C27.0184 12.7693 25.6663 15.9916 25.6663 19.3516V25.3376H22.458C19.9053 25.3376 17.4571 26.3387 15.6521 28.1206C13.8471 29.9025 12.833 32.3192 12.833 34.8392V60.1768C12.833 62.6968 13.8471 65.1136 15.6521 66.8955C17.4571 68.6774 19.9053 69.6784 22.458 69.6784H54.5413C57.094 69.6784 59.5422 68.6774 61.3472 66.8955C63.1523 65.1136 64.1663 62.6968 64.1663 60.1768V34.8392C64.1663 32.3192 63.1523 29.9025 61.3472 28.1206C59.5422 26.3387 57.094 25.3376 54.5413 25.3376ZM32.083 19.3516C32.0399 17.6264 32.6908 15.9546 33.8934 14.7021C35.096 13.4497 36.7523 12.7185 38.4997 12.6688C40.2471 12.7185 41.9033 13.4497 43.1059 14.7021C44.3085 15.9546 44.9595 17.6264 44.9163 19.3516V25.3376H32.083V19.3516ZM57.7497 60.1768C57.7497 61.0168 57.4117 61.8224 56.81 62.4164C56.2083 63.0103 55.3922 63.344 54.5413 63.344H22.458C21.6071 63.344 20.7911 63.0103 20.1894 62.4164C19.5877 61.8224 19.2497 61.0168 19.2497 60.1768V34.8392C19.2497 33.9992 19.5877 33.1936 20.1894 32.5997C20.7911 32.0057 21.6071 31.672 22.458 31.672H54.5413C55.3922 31.672 56.2083 32.0057 56.81 32.5997C57.4117 33.1936 57.7497 33.9992 57.7497 34.8392V60.1768Z" fill="currentColor"/>
<path d="M38.5 38.0064C36.5964 38.0064 34.7355 38.5637 33.1526 39.6077C31.5698 40.6518 30.3362 42.1357 29.6077 43.8719C28.8792 45.6081 28.6886 47.5185 29.0599 49.3617C29.4313 51.2048 30.348 52.8978 31.6941 54.2267C33.0402 55.5555 34.7552 56.4604 36.6223 56.827C38.4893 57.1937 40.4246 57.0055 42.1833 56.2863C43.9421 55.5672 45.4453 54.3493 46.5029 52.7868C47.5605 51.2243 48.125 49.3872 48.125 47.508C48.125 44.988 47.1109 42.5713 45.3059 40.7894C43.5009 39.0075 41.0527 38.0064 38.5 38.0064ZM38.5 50.6752C37.8655 50.6752 37.2452 50.4895 36.7176 50.1414C36.1899 49.7934 35.7787 49.2988 35.5359 48.72C35.2931 48.1413 35.2295 47.5045 35.3533 46.8901C35.4771 46.2757 35.7827 45.7114 36.2314 45.2685C36.6801 44.8255 37.2517 44.5239 37.8741 44.4017C38.4964 44.2795 39.1415 44.3422 39.7278 44.5819C40.314 44.8216 40.8151 45.2276 41.1676 45.7484C41.5202 46.2692 41.7083 46.8816 41.7083 47.508C41.7083 48.348 41.3703 49.1536 40.7686 49.7476C40.167 50.3415 39.3509 50.6752 38.5 50.6752Z" fill="currentColor"/>
<path d="M59.2308 49.944C56.6275 49.944 54.0827 50.6945 51.9181 52.1006C49.7536 53.5067 48.0665 55.5053 47.0703 57.8436C46.0741 60.1819 45.8134 62.7549 46.3213 65.2373C46.8292 67.7196 48.0827 69.9998 49.9235 71.7894C51.7643 73.5791 54.1096 74.7979 56.6629 75.2916C59.2162 75.7854 61.8627 75.532 64.2678 74.5634C66.6729 73.5949 68.7286 71.9547 70.1749 69.8502C71.6212 67.7458 72.3931 65.2717 72.3931 62.7407C72.3931 61.0602 72.0527 59.3962 71.3912 57.8436C70.7298 56.2911 69.7602 54.8803 68.538 53.6921C67.3157 52.5038 65.8647 51.5612 64.2678 50.9181C62.6709 50.275 60.9593 49.944 59.2308 49.944Z" fill="currentColor"/>
<path d="M62.7841 58.1212L57.8087 64.5196L55.6633 61.8194C55.4486 61.5513 55.1331 61.3771 54.7863 61.3351C54.4395 61.2931 54.0897 61.3868 53.814 61.5955C53.5382 61.8042 53.359 62.1109 53.3158 62.4481C53.2726 62.7853 53.3689 63.1253 53.5836 63.3934L56.7821 67.3732C56.906 67.5258 57.0641 67.6488 57.2443 67.7331C57.4244 67.8173 57.622 67.8606 57.8219 67.8595C58.0229 67.859 58.2211 67.8138 58.4014 67.7273C58.5816 67.6408 58.7391 67.5153 58.8617 67.3604L64.8769 59.6824C65.0899 59.4109 65.1832 59.0682 65.1363 58.7299C65.0894 58.3915 64.9061 58.0851 64.6269 57.878C64.3476 57.671 63.9952 57.5803 63.6471 57.6259C63.2991 57.6715 62.9839 57.8497 62.771 58.1212H62.7841Z" fill="white"/>
</svg>
