<svg width="199" height="64" viewBox="0 0 199 64" fill="none" xmlns="http://www.w3.org/2000/svg">
<g clip-path="url(#clip0)">
<path d="M87.4462 20.2735L83.1666 25.4857C80.3444 23.8431 77.3547 23.7219 74.3473 24.498C69.9155 25.6357 66.6568 29.9483 66.4319 34.6909C66.2687 38.1195 67.133 41.182 69.4481 43.7837C71.1701 45.7173 73.4367 46.5067 75.8951 47.0028C79.1891 47.6642 81.9407 46.3854 84.613 44.7605C85.3031 44.3415 86.2203 43.9469 86.4959 43.3119C86.7363 42.7562 86.2159 41.8743 86.0329 41.1379C84.3198 34.1971 85.4023 27.9089 90.4316 22.5709C93.8976 18.8911 98.261 17.1492 103.286 16.9971C106.516 16.8979 109.629 17.4248 112.559 18.8492C112.679 18.8925 112.8 18.9293 112.923 18.9594V15.2266C114.184 15.2266 115.368 15.2663 116.548 15.2046C116.984 15.1718 117.401 15.0098 117.745 14.7394C118.627 14.0184 119.438 13.2202 120.27 12.4463C120.772 11.9767 120.858 10.6163 120.404 10.1092C119.58 9.18757 118.757 8.25933 117.886 7.3818C117.622 7.16571 117.291 7.04736 116.949 7.04667C115.688 7.00698 114.427 7.03123 113.119 7.03123V0H120.204C120.204 1.21046 120.168 2.42532 120.226 3.61594C120.257 4.02435 120.411 4.41385 120.667 4.73379C121.357 5.56943 122.095 6.37199 122.871 7.13486C123.138 7.37908 123.481 7.52459 123.842 7.54717C125.123 7.59567 126.408 7.56701 127.731 7.56701V14.6886C126.628 14.6886 125.559 14.7239 124.483 14.6754C124.161 14.6428 123.836 14.6855 123.533 14.8003C123.23 14.9151 122.959 15.0988 122.739 15.3369C122.02 16.0799 121.196 16.7193 120.468 17.4557C120.222 17.7194 120.073 18.0594 120.047 18.4192C119.998 19.676 120.027 20.935 120.027 22.2711H117.306C121.462 26.5463 123.059 31.5314 122.66 37.1846C122.256 42.9238 119.626 47.4459 115.051 50.8899C108.939 55.4914 97.357 55.9544 90.522 48.8218C85.5192 53.2711 79.7183 55.0747 73.0861 53.9061C68.4559 53.0881 64.8554 50.5768 62.0619 46.8506C56.9423 40.0267 56.9202 27.9838 65.2369 20.968C71.5118 15.6676 83.171 15.9278 87.4462 20.2735ZM93.278 35.6082C93.2273 37.9517 93.8826 40.2564 95.1588 42.2227C99.1495 48.4491 106.917 48.297 110.884 44.5708C112.784 42.7695 114.066 40.4124 114.544 37.8377C115.022 35.263 114.672 32.603 113.545 30.2394C110.93 24.8441 104.878 22.5026 99.6368 25.0646C95.3197 27.1724 93.3993 30.8964 93.278 35.6082Z" fill="white"/>
<path d="M159.443 53.6282H152.729V31.3219L143.092 47.7171L133.468 31.2712V53.5996H126.717V17.5527C128.593 17.5527 130.434 17.5328 132.273 17.5769C132.493 17.5769 132.749 17.8966 132.892 18.1281C136.151 23.4197 139.402 28.7114 142.647 34.003L143.087 34.7328C143.279 34.4307 143.438 34.1838 143.592 33.9324C146.795 28.7011 149.991 23.4668 153.179 18.2296C153.294 17.9984 153.478 17.8085 153.706 17.6858C153.933 17.5631 154.193 17.5135 154.449 17.5439C156.092 17.5835 157.734 17.5571 159.443 17.5571V53.6282Z" fill="white"/>
<path d="M166.276 17.5504C168.134 17.5504 169.953 17.5284 171.772 17.5769C172.011 17.5769 172.313 17.8922 172.463 18.1369C175.713 23.4021 178.951 28.6739 182.179 33.9522C182.325 34.186 182.475 34.4175 182.664 34.7173C182.828 34.4726 182.964 34.2763 183.086 34.0823C186.312 28.8054 189.532 23.5211 192.745 18.2295C193.058 17.7158 193.393 17.513 193.999 17.5306C195.64 17.5747 197.282 17.5438 198.982 17.5438V53.6062H192.255V31.3814L182.664 47.7193C179.432 42.2072 176.27 36.7965 173.042 31.2778V53.5974H166.276V17.5504Z" fill="white"/>
<path d="M6.81295 46.9786H25.2322V53.5931H0V17.6057H24.5972V24.207H6.81075V31.5271H23.7153V38.1835H6.81295V46.9786Z" fill="white"/>
<path d="M54.7527 17.5901V24.2399H36.9266V31.5291H53.8289V38.1899H36.9266V46.9431H55.3833V53.615H30.1357V17.5901H54.7527Z" fill="white"/>
<path d="M48.9254 56.0845C49.3727 56.0535 49.8218 56.0594 50.2681 56.1021C50.5953 56.151 50.8974 56.3059 51.128 56.5431C52.2811 57.9763 53.3902 59.4447 54.6094 61.0255V56.1264H56.4527V63.592C55.337 63.7706 54.3956 63.775 53.668 62.6174C52.85 61.31 51.8049 60.1458 50.7466 58.7766V63.5986H48.9254V56.0845Z" fill="white"/>
<path d="M158.349 61.0653V56.1309H160.162V63.5876C159.099 63.753 158.164 63.8257 157.439 62.688C156.592 61.3651 155.536 60.1701 154.447 58.7568V63.6185H152.619V56.1529C153.708 55.9964 154.628 55.9611 155.344 57.101C156.184 58.4349 157.249 59.6343 158.349 61.0653Z" fill="white"/>
<path d="M180.87 56.0845C181.384 56.0555 181.9 56.0628 182.413 56.1066C182.691 56.1766 182.936 56.3401 183.108 56.5696C184.245 58.0072 185.356 59.4624 186.569 61.0344V56.1375H188.39V63.6604C187.854 63.686 187.316 63.6794 186.781 63.6405C186.525 63.5767 186.3 63.4254 186.144 63.2128C185.017 61.7929 183.914 60.3465 182.697 58.7811V63.6141H180.861L180.87 56.0845Z" fill="white"/>
<path d="M23.8872 60.4479V62.2603H28.9252V63.6251H22.0417V56.1287H28.7532V57.4516H23.9026V59.0192H28.4578V60.4435L23.8872 60.4479Z" fill="white"/>
<path d="M142.653 56.2234H149.371V57.5463H144.521V59.136H149.085V60.5361H144.527V62.3705H149.543V63.7066H142.653V56.2234Z" fill="white"/>
<path d="M192.112 56.1218H198.828V57.4447H193.977V59.0344H198.537V60.4345H193.984V62.2689H199V63.605H192.112V56.1218Z" fill="white"/>
<path d="M171.023 56.8848L170.057 57.7932C169.314 57.6763 168.628 57.4779 167.943 57.4823C167.407 57.4848 166.886 57.663 166.461 57.9896C166.037 58.3162 165.73 58.7731 165.59 59.2903C165.46 59.7694 165.489 60.2776 165.671 60.7392C165.853 61.2008 166.18 61.5912 166.602 61.8523C167.519 62.4653 168.983 62.4917 169.729 61.7906C169.998 61.537 170.02 61.0167 170.194 60.4963L168.728 60.4126V59.0897H171.841C171.841 60.1237 171.865 61.1203 171.819 62.1169C171.819 62.3153 171.55 62.5292 171.367 62.6924C169.603 64.2688 166.185 64.1035 164.567 62.3705C163.118 60.8271 163.244 58.5561 164.873 57.1163C166.45 55.7118 169.164 55.5817 171.023 56.8848Z" fill="white"/>
<path d="M10.9625 56.1218H12.744V58.9881H16.4614V56.1329H18.2694V63.6293H16.4812V60.5161H12.7815V63.6029H10.9625V56.1218Z" fill="white"/>
<path d="M45.9841 63.6602C45.6338 63.6419 45.2827 63.6419 44.9324 63.6602C44.3371 63.7308 43.905 63.5787 43.7286 62.9503C43.6183 62.5622 43.3736 62.4167 42.9437 62.43C41.8412 62.4652 40.7168 62.4299 39.6055 62.4564C39.385 62.4564 39.0058 62.6284 38.9639 62.7893C38.7324 63.6713 38.1261 63.744 37.3941 63.658C37.1736 63.6316 36.9531 63.6338 36.64 63.6184C36.9377 63.0098 37.1978 62.4718 37.4646 61.9383C38.3642 60.1332 39.2652 58.3275 40.1678 56.521C40.4544 55.9521 42.0771 55.8353 42.355 56.3843C43.5588 58.7677 44.7318 61.1622 45.9841 63.6602ZM41.3077 57.8924C40.7895 59.0102 40.3155 60.0377 39.8216 61.1004H42.7915C42.2822 60.0179 41.8192 59.0191 41.2988 57.8924H41.3077Z" fill="white"/>
<path d="M68.5594 63.6604C68.1114 63.6931 67.6613 63.6865 67.2145 63.6406C66.9477 63.5921 66.5773 63.4047 66.4935 63.1864C66.251 62.558 65.8607 62.397 65.2213 62.4345C64.2137 62.4896 63.1995 62.4345 62.1874 62.4632C61.9802 62.4632 61.634 62.6153 61.5965 62.7586C61.3562 63.7155 60.6661 63.7376 59.901 63.6648C59.7268 63.6472 59.5505 63.6648 59.2969 63.6648C59.3851 63.4267 59.4336 63.2393 59.5174 63.0673C60.5823 60.922 61.6892 58.7943 62.7056 56.6248C63.0275 55.9391 63.5258 56.1155 64.0285 56.0912C64.4827 56.0692 64.8575 56.0537 65.1309 56.6138C66.1958 58.8715 67.3357 61.094 68.4382 63.3297C68.4734 63.3914 68.4889 63.4642 68.5594 63.6604ZM65.4263 61.1359L63.9226 57.8948L62.4234 61.1359H65.4263Z" fill="white"/>
<path d="M124.296 63.6604C123.815 63.6604 123.414 63.6318 123.019 63.6604C122.578 63.7023 122.287 63.5546 122.168 63.1224C122.005 62.5293 121.612 62.397 121.03 62.4257C119.996 62.4742 118.958 62.4257 117.922 62.4544C117.712 62.4544 117.364 62.6043 117.328 62.7476C117.088 63.7023 116.402 63.731 115.633 63.656C115.459 63.6384 115.282 63.656 115.027 63.656C115.089 63.4544 115.163 63.2564 115.247 63.0629C116.319 60.922 117.421 58.7988 118.435 56.6248C118.735 55.981 119.189 56.0868 119.672 56.0868C120.155 56.0868 120.554 55.9942 120.847 56.6049C121.875 58.7965 122.986 60.9507 124.062 63.1202C124.137 63.2702 124.196 63.4289 124.296 63.6604ZM118.153 61.1182H121.138C120.638 60.029 120.164 59.0038 119.655 57.897C119.136 59.006 118.665 60.0224 118.153 61.1182Z" fill="white"/>
<path d="M112.464 62.8753C110.632 64.2644 107.625 64.0637 106.006 62.4343C104.161 60.5646 104.825 57.5528 107.329 56.4217C108.129 56.0772 109.001 55.9314 109.869 55.9966C110.738 56.0619 111.577 56.3364 112.317 56.7966C112.159 56.9551 112.012 57.1238 111.876 57.3015C111.569 57.7424 111.261 57.8571 110.69 57.6587C110.111 57.4869 109.5 57.4567 108.908 57.5705C108.326 57.6544 107.796 57.9529 107.423 58.4073C107.05 58.8618 106.86 59.4394 106.891 60.0267C106.933 60.6404 107.207 61.2151 107.658 61.6343C108.108 62.0535 108.701 62.2859 109.316 62.2844C110.024 62.2844 110.734 62.0639 111.58 61.914L112.464 62.8753Z" fill="white"/>
<path d="M78.7833 56.1529C80.3267 55.8332 81.3563 56.2653 82.0244 57.5662C82.2927 58.0061 82.5934 58.4255 82.924 58.8207C83.4289 58.135 83.9294 57.5309 84.3417 56.8694C84.7165 56.2675 85.1663 55.9721 85.8851 56.0845C86.2807 56.1119 86.6778 56.1119 87.0735 56.0845C86.1034 57.328 85.2457 58.4702 84.3373 59.5726C84.1535 59.7766 84.0122 60.0153 83.9217 60.2747C83.8312 60.534 83.7934 60.8087 83.8103 61.0829C83.8522 61.9097 83.8213 62.7409 83.8213 63.614H81.9671C81.9671 62.8401 81.9274 62.0861 81.9671 61.3386C82.0022 60.98 81.9614 60.618 81.8475 60.2761C81.7335 59.9342 81.5489 59.6201 81.3056 59.3543C80.4391 58.3577 79.6586 57.2553 78.7833 56.1529Z" fill="white"/>
<path d="M7.91979 56.1309V57.4317H5.03807V63.6229H3.15293V57.5001H0.273407V56.1309H7.91979Z" fill="white"/>
<path d="M89.2365 57.5111V56.1353H96.8983V57.4251H94.032V63.6185H92.1425V57.5111H89.2365Z" fill="white"/>
<path d="M71.3794 63.6141V56.1396H73.1764V62.2426H78.1152V63.6141H71.3794Z" fill="white"/>
<path d="M127.107 63.6185V56.1353H128.913V62.2493H133.847V63.6185H127.107Z" fill="white"/>
<path d="M101.685 63.6228H99.9321V56.1528H101.685V63.6228Z" fill="white"/>
<path d="M175.408 56.1199H177.172V63.5987H175.408V56.1199Z" fill="white"/>
</g>
<defs>
<clipPath id="clip0">
<rect width="199" height="63.7992" fill="white"/>
</clipPath>
</defs>
</svg>
