<svg width="26" height="20" viewBox="0 0 26 20" fill="none" xmlns="http://www.w3.org/2000/svg">
<path fill-rule="evenodd" clip-rule="evenodd" d="M10.0002 5.83333C10.9202 5.83333 11.6668 5.08667 11.6668 4.16667C11.6668 3.24667 10.9202 2.5 10.0002 2.5C9.08016 2.5 8.3335 3.24667 8.3335 4.16667C8.3335 5.08667 9.08016 5.83333 10.0002 5.83333ZM10.0002 8.33336C9.08016 8.33336 8.3335 9.08003 8.3335 10C8.3335 10.92 9.08016 11.6667 10.0002 11.6667C10.9202 11.6667 11.6668 10.92 11.6668 10C11.6668 9.08003 10.9202 8.33336 10.0002 8.33336ZM8.3335 15.8333C8.3335 14.9133 9.08016 14.1666 10.0002 14.1666C10.9202 14.1666 11.6668 14.9133 11.6668 15.8333C11.6668 16.7533 10.9202 17.5 10.0002 17.5C9.08016 17.5 8.3335 16.7533 8.3335 15.8333Z" fill="#A6AFB8"/>
<mask id="mask0" mask-type="alpha" maskUnits="userSpaceOnUse" x="8" y="2" width="4" height="16">
<path fill-rule="evenodd" clip-rule="evenodd" d="M10.0002 5.83333C10.9202 5.83333 11.6668 5.08667 11.6668 4.16667C11.6668 3.24667 10.9202 2.5 10.0002 2.5C9.08016 2.5 8.3335 3.24667 8.3335 4.16667C8.3335 5.08667 9.08016 5.83333 10.0002 5.83333ZM10.0002 8.33336C9.08016 8.33336 8.3335 9.08003 8.3335 10C8.3335 10.92 9.08016 11.6667 10.0002 11.6667C10.9202 11.6667 11.6668 10.92 11.6668 10C11.6668 9.08003 10.9202 8.33336 10.0002 8.33336ZM8.3335 15.8333C8.3335 14.9133 9.08016 14.1666 10.0002 14.1666C10.9202 14.1666 11.6668 14.9133 11.6668 15.8333C11.6668 16.7533 10.9202 17.5 10.0002 17.5C9.08016 17.5 8.3335 16.7533 8.3335 15.8333Z" fill="white"/>
</mask>
<g mask="url(#mask0)">
<rect width="20" height="20" fill="#A6AFB8"/>
</g>
<path fill-rule="evenodd" clip-rule="evenodd" d="M15.5558 5.83333C16.4758 5.83333 17.2225 5.08667 17.2225 4.16667C17.2225 3.24667 16.4758 2.5 15.5558 2.5C14.6358 2.5 13.8892 3.24667 13.8892 4.16667C13.8892 5.08667 14.6358 5.83333 15.5558 5.83333ZM15.5558 8.33336C14.6358 8.33336 13.8892 9.08003 13.8892 10C13.8892 10.92 14.6358 11.6667 15.5558 11.6667C16.4758 11.6667 17.2225 10.92 17.2225 10C17.2225 9.08003 16.4758 8.33336 15.5558 8.33336ZM13.8892 15.8333C13.8892 14.9133 14.6358 14.1666 15.5558 14.1666C16.4758 14.1666 17.2225 14.9133 17.2225 15.8333C17.2225 16.7533 16.4758 17.5 15.5558 17.5C14.6358 17.5 13.8892 16.7533 13.8892 15.8333Z" fill="#A6AFB8"/>
<mask id="mask1" mask-type="alpha" maskUnits="userSpaceOnUse" x="13" y="2" width="5" height="16">
<path fill-rule="evenodd" clip-rule="evenodd" d="M15.5558 5.83333C16.4758 5.83333 17.2225 5.08667 17.2225 4.16667C17.2225 3.24667 16.4758 2.5 15.5558 2.5C14.6358 2.5 13.8892 3.24667 13.8892 4.16667C13.8892 5.08667 14.6358 5.83333 15.5558 5.83333ZM15.5558 8.33336C14.6358 8.33336 13.8892 9.08003 13.8892 10C13.8892 10.92 14.6358 11.6667 15.5558 11.6667C16.4758 11.6667 17.2225 10.92 17.2225 10C17.2225 9.08003 16.4758 8.33336 15.5558 8.33336ZM13.8892 15.8333C13.8892 14.9133 14.6358 14.1666 15.5558 14.1666C16.4758 14.1666 17.2225 14.9133 17.2225 15.8333C17.2225 16.7533 16.4758 17.5 15.5558 17.5C14.6358 17.5 13.8892 16.7533 13.8892 15.8333Z" fill="white"/>
</mask>
<g mask="url(#mask1)">
<rect x="5.55566" width="20" height="20" fill="#A6AFB8"/>
</g>
</svg>
