<svg width="23" height="23" viewBox="0 0 23 23" fill="none" xmlns="http://www.w3.org/2000/svg">
<path d="M20.5086 8.69944L19.5486 4.70401C19.3475 3.88116 18.6343 3.3143 17.8023 3.3143H5.10288C4.28002 3.3143 3.55774 3.8903 3.36574 4.70401L2.40574 8.69944C2.18631 9.63202 2.38745 10.5829 2.97259 11.3326C3.04574 11.4332 3.14631 11.5063 3.22859 11.5977V17.9429C3.22859 18.9486 4.05145 19.7714 5.05717 19.7714H17.8572C18.8629 19.7714 19.6857 18.9486 19.6857 17.9429V11.5977C19.768 11.5154 19.8686 11.4332 19.9417 11.3417C20.5269 10.592 20.7372 9.63202 20.5086 8.69944ZM17.7749 5.13373L18.7349 9.12916C18.8263 9.51316 18.744 9.89716 18.5063 10.1989C18.3783 10.3634 18.104 10.6286 17.6469 10.6286C17.0892 10.6286 16.6046 10.1806 16.5406 9.5863L16.0103 5.14287L17.7749 5.13373ZM12.3715 5.14287H14.1635L14.6572 9.27544C14.7029 9.63202 14.5932 9.98859 14.3555 10.2537C14.1543 10.4914 13.8617 10.6286 13.4869 10.6286C12.8743 10.6286 12.3715 10.0892 12.3715 9.43087V5.14287ZM8.24802 9.27544L8.75088 5.14287H10.5429V9.43087C10.5429 10.0892 10.04 10.6286 9.36345 10.6286C9.0526 10.6286 8.76917 10.4914 8.54974 10.2537C8.32117 9.98859 8.21145 9.63202 8.24802 9.27544ZM4.17945 9.12916L5.10288 5.14287H6.90402L6.37374 9.5863C6.3006 10.1806 5.82517 10.6286 5.26745 10.6286C4.81945 10.6286 4.53602 10.3634 4.41717 10.1989C4.17031 9.9063 4.08802 9.51316 4.17945 9.12916ZM5.05717 17.9429V12.4297C5.13031 12.4389 5.19431 12.4572 5.26745 12.4572C6.06288 12.4572 6.78517 12.128 7.31545 11.5886C7.86402 12.1372 8.59545 12.4572 9.42745 12.4572C10.2229 12.4572 10.936 12.128 11.4663 11.6069C12.0057 12.128 12.7372 12.4572 13.56 12.4572C14.328 12.4572 15.0595 12.1372 15.608 11.5886C16.1383 12.128 16.8606 12.4572 17.656 12.4572C17.7292 12.4572 17.7932 12.4389 17.8663 12.4297V17.9429H5.05717Z" fill="currentColor"/>
</svg>
