<svg width="240" height="31" viewBox="0 0 240 31" fill="none" xmlns="http://www.w3.org/2000/svg">
<path d="M22.9267 25.8606C23.4855 26.3915 23.7649 26.9923 23.7649 27.6629C23.7649 28.3055 23.5134 28.8784 23.0105 29.3813C22.5355 29.8563 21.9626 30.0939 21.292 30.0939C20.5935 30.0939 19.9508 29.8005 19.364 29.2137L5.40684 16.1367V27.4533C5.40684 28.2636 5.15535 28.9203 4.65239 29.4232C4.17737 29.9262 3.52073 30.1777 2.68246 30.1777C1.87213 30.1777 1.21549 29.9262 0.712529 29.4232C0.23751 28.9203 0 28.2636 0 27.4533V2.85012C0 2.03979 0.23751 1.39712 0.712529 0.922097C1.21549 0.419136 1.87213 0.167655 2.68246 0.167655C3.52073 0.167655 4.17737 0.419136 4.65239 0.922097C5.15535 1.39712 5.40684 2.03979 5.40684 2.85012V13.6219L18.903 0.96401C19.4059 0.461048 19.9787 0.209567 20.6214 0.209567C21.2641 0.209567 21.8229 0.461048 22.298 0.96401C22.8009 1.43903 23.0524 1.99788 23.0524 2.64055C23.0524 3.28322 22.773 3.87001 22.2141 4.40091L10.9394 14.7116L22.9267 25.8606Z" fill="#44474A"/>
<path d="M39.6842 30.3034C36.8061 30.3034 34.3053 29.6887 32.1817 28.4592C30.086 27.2298 28.4653 25.4694 27.3197 23.1781C26.1741 20.8869 25.6013 18.2044 25.6013 15.1308C25.6013 12.0571 26.1601 9.38861 27.2778 7.12529C28.4234 4.83402 30.0581 3.07365 32.1817 1.84419C34.3053 0.614731 36.8061 0 39.6842 0C42.5622 0 45.0491 0.614731 47.1448 1.84419C49.2684 3.07365 50.889 4.83402 52.0067 7.12529C53.1524 9.38861 53.7252 12.0571 53.7252 15.1308C53.7252 18.2044 53.1524 20.8869 52.0067 23.1781C50.8611 25.4694 49.2265 27.2298 47.1029 28.4592C45.0072 29.6887 42.5343 30.3034 39.6842 30.3034ZM39.6842 25.9863C42.3946 25.9863 44.5042 25.0503 46.0131 23.1781C47.5499 21.306 48.3183 18.6235 48.3183 15.1308C48.3183 11.638 47.5499 8.96948 46.0131 7.12529C44.5042 5.25315 42.3946 4.31709 39.6842 4.31709C36.9458 4.31709 34.8082 5.25315 33.2714 7.12529C31.7625 8.96948 31.0081 11.638 31.0081 15.1308C31.0081 18.6235 31.7625 21.306 33.2714 23.1781C34.8082 25.0503 36.9458 25.9863 39.6842 25.9863Z" fill="#44474A"/>
<path d="M61.785 29.9262C60.9747 29.9262 60.332 29.7027 59.857 29.2556C59.4099 28.8085 59.1864 28.1798 59.1864 27.3695V2.93394C59.1864 2.12362 59.4099 1.49491 59.857 1.04784C60.332 0.60076 60.9747 0.377222 61.785 0.377222H70.0839C74.9179 0.377222 78.6622 1.67654 81.3167 4.27517C83.9991 6.84586 85.3404 10.4644 85.3404 15.1308C85.3404 19.8251 83.9991 23.4715 81.3167 26.0702C78.6622 28.6409 74.9179 29.9262 70.0839 29.9262H61.785ZM69.7486 25.5253C76.5385 25.5253 79.9335 22.0604 79.9335 15.1308C79.9335 8.22901 76.5385 4.77813 69.7486 4.77813H64.5932V25.5253H69.7486Z" fill="#44474A"/>
<path d="M93.3838 29.9262C92.5735 29.9262 91.9308 29.7027 91.4558 29.2556C91.0087 28.8085 90.7852 28.1798 90.7852 27.3695V2.93394C90.7852 2.12362 91.0087 1.49491 91.4558 1.04784C91.9308 0.60076 92.5735 0.377222 93.3838 0.377222H108.515C109.325 0.377222 109.954 0.558847 110.401 0.922097C110.848 1.28535 111.071 1.80228 111.071 2.47289C111.071 3.17145 110.848 3.71633 110.401 4.10752C109.954 4.47077 109.325 4.65239 108.515 4.65239H96.0663V12.7836H107.676C108.487 12.7836 109.115 12.9652 109.562 13.3285C110.009 13.6917 110.233 14.2226 110.233 14.9212C110.233 15.5918 110.009 16.1087 109.562 16.472C109.115 16.8352 108.487 17.0169 107.676 17.0169H96.0663V25.651H108.515C109.325 25.651 109.954 25.8466 110.401 26.2378C110.848 26.6011 111.071 27.132 111.071 27.8305C111.071 28.5011 110.848 29.0181 110.401 29.3813C109.954 29.7446 109.325 29.9262 108.515 29.9262H93.3838Z" fill="#44474A"/>
<path d="M128.588 30.3034C125.737 30.3034 123.237 29.6887 121.085 28.4592C118.961 27.2298 117.327 25.4694 116.181 23.1781C115.036 20.8869 114.463 18.2044 114.463 15.1308C114.463 12.0571 115.036 9.38861 116.181 7.12529C117.327 4.83402 118.961 3.07365 121.085 1.84419C123.237 0.614731 125.737 0 128.588 0C130.432 0 132.164 0.279423 133.785 0.83827C135.405 1.36917 136.844 2.15156 138.102 3.18542C138.465 3.46485 138.717 3.75824 138.856 4.0656C138.996 4.37297 139.066 4.75019 139.066 5.19727C139.066 5.812 138.898 6.32893 138.563 6.74807C138.228 7.1672 137.822 7.37677 137.347 7.37677C136.789 7.37677 136.216 7.18117 135.629 6.78998C134.427 5.89582 133.31 5.28109 132.276 4.94579C131.242 4.58254 130.096 4.40091 128.839 4.40091C125.933 4.40091 123.726 5.30904 122.217 7.12529C120.736 8.94154 119.995 11.61 119.995 15.1308C119.995 18.6794 120.736 21.3619 122.217 23.1781C123.726 24.9944 125.933 25.9025 128.839 25.9025C130.041 25.9025 131.144 25.7209 132.15 25.3576C133.184 24.9944 134.344 24.3797 135.629 23.5134C135.908 23.3458 136.188 23.2061 136.467 23.0943C136.747 22.9825 137.04 22.9267 137.347 22.9267C137.822 22.9267 138.228 23.1362 138.563 23.5554C138.898 23.9745 139.066 24.4914 139.066 25.1062C139.066 25.5253 138.996 25.9025 138.856 26.2378C138.717 26.5452 138.465 26.8386 138.102 27.118C136.844 28.1519 135.405 28.9482 133.785 29.5071C132.164 30.038 130.432 30.3034 128.588 30.3034Z" fill="#44474A"/>
<path d="M156.42 30.3034C153.542 30.3034 151.041 29.6887 148.917 28.4592C146.822 27.2298 145.201 25.4694 144.055 23.1781C142.91 20.8869 142.337 18.2044 142.337 15.1308C142.337 12.0571 142.896 9.38861 144.013 7.12529C145.159 4.83402 146.794 3.07365 148.917 1.84419C151.041 0.614731 153.542 0 156.42 0C159.298 0 161.785 0.614731 163.88 1.84419C166.004 3.07365 167.625 4.83402 168.742 7.12529C169.888 9.38861 170.461 12.0571 170.461 15.1308C170.461 18.2044 169.888 20.8869 168.742 23.1781C167.597 25.4694 165.962 27.2298 163.838 28.4592C161.743 29.6887 159.27 30.3034 156.42 30.3034ZM156.42 25.9863C159.13 25.9863 161.24 25.0503 162.749 23.1781C164.285 21.306 165.054 18.6235 165.054 15.1308C165.054 11.638 164.285 8.96948 162.749 7.12529C161.24 5.25315 159.13 4.31709 156.42 4.31709C153.681 4.31709 151.544 5.25315 150.007 7.12529C148.498 8.96948 147.744 11.638 147.744 15.1308C147.744 18.6235 148.498 21.306 150.007 23.1781C151.544 25.0503 153.681 25.9863 156.42 25.9863Z" fill="#44474A"/>
<path d="M202.16 0.167655C202.942 0.167655 203.571 0.419136 204.046 0.922097C204.521 1.39712 204.758 2.03979 204.758 2.85012V27.6629C204.758 28.4453 204.535 29.06 204.088 29.5071C203.641 29.9541 203.054 30.1777 202.327 30.1777C201.601 30.1777 201.028 29.9541 200.609 29.5071C200.19 29.06 199.98 28.4453 199.98 27.6629V10.3945L192.855 23.8907C192.52 24.5054 192.156 24.9664 191.765 25.2738C191.374 25.5532 190.913 25.6929 190.382 25.6929C189.851 25.6929 189.39 25.5532 188.999 25.2738C188.608 24.9944 188.244 24.5333 187.909 23.8907L180.742 10.6041V27.6629C180.742 28.4173 180.518 29.032 180.071 29.5071C179.652 29.9541 179.079 30.1777 178.353 30.1777C177.626 30.1777 177.054 29.9541 176.634 29.5071C176.215 29.06 176.006 28.4453 176.006 27.6629V2.85012C176.006 2.03979 176.229 1.39712 176.676 0.922097C177.151 0.419136 177.78 0.167655 178.562 0.167655C179.652 0.167655 180.504 0.768414 181.119 1.96993L190.424 19.6993L199.687 1.96993C200.302 0.768414 201.126 0.167655 202.16 0.167655Z" fill="#44474A"/>
<path d="M237.401 0.167655C238.184 0.167655 238.812 0.419136 239.287 0.922097C239.762 1.39712 240 2.03979 240 2.85012V27.6629C240 28.4453 239.776 29.06 239.329 29.5071C238.882 29.9541 238.296 30.1777 237.569 30.1777C236.843 30.1777 236.27 29.9541 235.851 29.5071C235.431 29.06 235.222 28.4453 235.222 27.6629V10.3945L228.097 23.8907C227.761 24.5054 227.398 24.9664 227.007 25.2738C226.616 25.5532 226.155 25.6929 225.624 25.6929C225.093 25.6929 224.632 25.5532 224.241 25.2738C223.849 24.9944 223.486 24.5333 223.151 23.8907L215.984 10.6041V27.6629C215.984 28.4173 215.76 29.032 215.313 29.5071C214.894 29.9541 214.321 30.1777 213.595 30.1777C212.868 30.1777 212.295 29.9541 211.876 29.5071C211.457 29.06 211.247 28.4453 211.247 27.6629V2.85012C211.247 2.03979 211.471 1.39712 211.918 0.922097C212.393 0.419136 213.022 0.167655 213.804 0.167655C214.894 0.167655 215.746 0.768414 216.361 1.96993L225.666 19.6993L234.928 1.96993C235.543 0.768414 236.368 0.167655 237.401 0.167655Z" fill="#44474A"/>
</svg>
