<svg width="161" height="52" viewBox="0 0 161 52" fill="none" xmlns="http://www.w3.org/2000/svg">
<path d="M71.8155 17.4313L68.7319 21.2728C66.6984 20.0621 64.5442 19.9728 62.3773 20.5448C59.1841 21.3833 56.8361 24.5617 56.6741 28.0571C56.5565 30.584 57.1793 32.8411 58.8473 34.7586C60.0881 36.1837 61.7212 36.7655 63.4925 37.1311C65.866 37.6186 67.8486 36.6761 69.7741 35.4785C70.2713 35.1698 70.9322 34.8789 71.1308 34.4109C71.3039 34.0014 70.929 33.3514 70.7972 32.8086C69.5628 27.6931 70.3428 23.0586 73.9665 19.1245C76.4639 16.4124 79.6078 15.1286 83.2283 15.0165C85.5557 14.9434 87.7989 15.3318 89.9102 16.3815C89.996 16.4135 90.0835 16.4406 90.1723 16.4628V13.7116C91.081 13.7116 91.9341 13.7409 92.784 13.6954C93.0985 13.6712 93.3988 13.5518 93.6467 13.3525C94.2821 12.8211 94.8668 12.2329 95.4657 11.6625C95.8279 11.3164 95.8899 10.3138 95.5626 9.94C94.9684 9.26075 94.3759 8.57663 93.7483 7.92988C93.5577 7.77062 93.3193 7.68339 93.0732 7.68288C92.1645 7.65363 91.2558 7.6715 90.3137 7.6715V2.48938H95.418C95.418 3.3815 95.3926 4.27688 95.4339 5.15438C95.4566 5.45539 95.5673 5.74245 95.7516 5.97825C96.2489 6.59413 96.7811 7.18563 97.3403 7.74788C97.5325 7.92787 97.7792 8.03511 98.0393 8.05175C98.9623 8.0875 99.8885 8.06638 100.842 8.06638V13.3151C100.047 13.3151 99.2769 13.3411 98.5016 13.3054C98.2695 13.2813 98.0351 13.3128 97.817 13.3974C97.5989 13.4821 97.4031 13.6174 97.245 13.7929C96.7271 14.3405 96.1329 14.8118 95.6087 15.3545C95.4313 15.5489 95.3242 15.7994 95.3052 16.0646C95.2703 16.9909 95.2909 17.9188 95.2909 18.9035H93.3305C96.3251 22.0544 97.4753 25.7285 97.1878 29.895C96.8971 34.1249 95.0018 37.4577 91.7053 39.996C87.3016 43.3874 78.9564 43.7286 74.0316 38.4717C70.427 41.751 66.2473 43.0802 61.4686 42.219C58.1325 41.6161 55.5382 39.7652 53.5254 37.019C49.8365 31.9896 49.8206 23.1139 55.813 17.9431C60.3343 14.0366 68.7351 14.2284 71.8155 17.4313ZM76.0175 28.7331C75.9809 30.4604 76.4531 32.1589 77.3726 33.6081C80.248 38.1971 85.8448 38.085 88.7028 35.3387C90.0724 34.0112 90.9957 32.2739 91.3402 30.3763C91.6847 28.4787 91.4326 26.5183 90.6203 24.7762C88.7362 20.7999 84.3753 19.0741 80.5991 20.9624C77.4885 22.5159 76.1048 25.2605 76.0175 28.7331Z" fill="#0C89D0"/>
<path d="M123.691 42.0144H118.853V25.5742L111.909 37.6578L104.975 25.5369V41.9933H100.11V15.4261C101.462 15.4261 102.789 15.4115 104.114 15.444C104.273 15.444 104.457 15.6796 104.56 15.8502C106.908 19.7502 109.251 23.6502 111.588 27.5502L111.906 28.0881C112.044 27.8655 112.159 27.6835 112.27 27.4982C114.578 23.6427 116.88 19.7849 119.177 15.925C119.26 15.7546 119.393 15.6147 119.557 15.5242C119.72 15.4338 119.908 15.3972 120.092 15.4196C121.276 15.4489 122.459 15.4294 123.691 15.4294V42.0144Z" fill="#0C89D0"/>
<path d="M128.614 15.4246C129.953 15.4246 131.264 15.4083 132.574 15.4441C132.746 15.4441 132.964 15.6765 133.072 15.8568C135.413 19.7373 137.747 23.6227 140.073 27.5129C140.178 27.6852 140.286 27.8558 140.422 28.0768C140.54 27.8965 140.638 27.7518 140.726 27.6088C143.05 23.7197 145.37 19.8251 147.686 15.9251C147.911 15.5465 148.153 15.397 148.59 15.41C149.772 15.4425 150.955 15.4197 152.18 15.4197V41.9982H147.333V25.6182L140.422 37.6594C138.093 33.5969 135.815 29.6092 133.489 25.5418V41.9917H128.614V15.4246Z" fill="#0C89D0"/>
<path d="M13.7169 37.1135H26.9885V41.9885H8.80798V15.4652H26.5309V20.3305H13.7153V25.7255H25.8955V30.6313H13.7169V37.1135Z" fill="#0C89D0"/>
<path d="M48.2591 15.4537V20.3547H35.4149V25.727H47.5935V30.6361H35.4149V37.0874H48.7135V42.0046H30.5219V15.4537H48.2591Z" fill="#0C89D0"/>
</svg>
