<svg width="176" height="24" viewBox="0 0 176 24" fill="none" xmlns="http://www.w3.org/2000/svg">
<path d="M9.336 23.352C7.56533 23.352 5.89067 23.128 4.312 22.68C2.75467 22.232 1.45333 21.624 0.408 20.856L1.848 16.952C2.85067 17.656 3.992 18.2107 5.272 18.616C6.57333 19.0213 7.928 19.224 9.336 19.224C10.872 19.224 11.9707 18.9893 12.632 18.52C13.3147 18.0293 13.656 17.4213 13.656 16.696C13.656 16.0773 13.4213 15.5867 12.952 15.224C12.4827 14.8613 11.6613 14.552 10.488 14.296L6.872 13.528C2.84 12.6747 0.824 10.584 0.824 7.256C0.824 5.82667 1.208 4.57867 1.976 3.512C2.744 2.424 3.81067 1.58133 5.176 0.983999C6.56267 0.386666 8.16267 0.0879993 9.976 0.0879993C11.5333 0.0879993 12.9947 0.311999 14.36 0.759998C15.7253 1.208 16.856 1.83733 17.752 2.648L16.312 6.296C14.5627 4.90933 12.44 4.216 9.944 4.216C8.6 4.216 7.55467 4.48267 6.808 5.016C6.08267 5.528 5.72 6.2 5.72 7.032C5.72 7.65067 5.944 8.152 6.392 8.536C6.84 8.92 7.61867 9.22933 8.728 9.464L12.344 10.232C16.4827 11.128 18.552 13.1547 18.552 16.312C18.552 17.72 18.168 18.9573 17.4 20.024C16.6533 21.0693 15.5867 21.8907 14.2 22.488C12.8347 23.064 11.2133 23.352 9.336 23.352ZM21.42 23V7.288H26.156V9.56C26.6253 8.74933 27.2653 8.12 28.076 7.672C28.908 7.20267 29.868 6.968 30.956 6.968C32.0653 6.968 33.004 7.21333 33.772 7.704C34.5613 8.19467 35.1587 8.94133 35.564 9.944C36.0547 9.00533 36.7587 8.28 37.676 7.768C38.6147 7.23467 39.6493 6.968 40.78 6.968C42.572 6.968 43.9053 7.512 44.78 8.6C45.6547 9.66667 46.092 11.32 46.092 13.56V23H41.26V13.72C41.26 12.6747 41.0893 11.9173 40.748 11.448C40.428 10.9573 39.8733 10.712 39.084 10.712C38.1667 10.712 37.452 11.032 36.94 11.672C36.428 12.312 36.172 13.2187 36.172 14.392V23H31.34V13.72C31.34 12.6747 31.1693 11.9173 30.828 11.448C30.4867 10.9573 29.932 10.712 29.164 10.712C28.2467 10.712 27.532 11.032 27.02 11.672C26.508 12.312 26.252 13.2187 26.252 14.392V23H21.42ZM55.1055 23.352C53.9322 23.352 52.8975 23.128 52.0015 22.68C51.1055 22.232 50.3908 21.624 49.8575 20.856C49.3455 20.088 49.0895 19.224 49.0895 18.264C49.0895 17.1333 49.3882 16.2267 49.9855 15.544C50.5828 14.8613 51.5535 14.3813 52.8975 14.104C54.2415 13.8053 56.0228 13.656 58.2415 13.656H59.3935V13.112C59.3935 12.1733 59.1802 11.512 58.7535 11.128C58.3268 10.7227 57.6015 10.52 56.5775 10.52C55.7242 10.52 54.8175 10.6587 53.8575 10.936C52.9188 11.192 51.9802 11.5867 51.0415 12.12L49.7295 8.888C50.2842 8.52533 50.9562 8.19467 51.7455 7.896C52.5562 7.59733 53.3988 7.37333 54.2735 7.224C55.1482 7.05333 55.9802 6.968 56.7695 6.968C59.2015 6.968 61.0148 7.52267 62.2095 8.632C63.4042 9.72 64.0015 11.416 64.0015 13.72V23H59.4895V20.632C59.1695 21.464 58.6255 22.1253 57.8575 22.616C57.1108 23.1067 56.1935 23.352 55.1055 23.352ZM56.1935 20.12C57.0895 20.12 57.8468 19.8107 58.4655 19.192C59.0842 18.5733 59.3935 17.7733 59.3935 16.792V16.152H58.2735C56.6308 16.152 55.4682 16.3013 54.7855 16.6C54.1028 16.8773 53.7615 17.368 53.7615 18.072C53.7615 18.6693 53.9642 19.16 54.3695 19.544C54.7962 19.928 55.4042 20.12 56.1935 20.12ZM67.606 23V7.288H72.342V10.008C73.0887 8.17333 74.6887 7.16 77.142 6.968L78.55 6.872L78.838 10.936L76.118 11.224C73.7287 11.4587 72.534 12.6747 72.534 14.872V23H67.606ZM89.443 23.352C85.027 23.352 82.819 21.208 82.819 16.92V10.904H79.843V7.288H82.819V2.68H87.651V7.288H92.291V10.904H87.651V16.728C87.651 17.624 87.8537 18.296 88.259 18.744C88.6857 19.192 89.3577 19.416 90.275 19.416C90.5523 19.416 90.8403 19.384 91.139 19.32C91.459 19.256 91.8003 19.1707 92.163 19.064L92.867 22.584C92.419 22.8187 91.8857 23 91.267 23.128C90.6483 23.2773 90.0403 23.352 89.443 23.352ZM95.0845 23V0.439999H103.917C107.757 0.439999 110.733 1.42133 112.845 3.384C114.957 5.32533 116.013 8.09867 116.013 11.704C116.013 15.3093 114.957 18.0933 112.845 20.056C110.733 22.0187 107.757 23 103.917 23H95.0845ZM100.045 18.936H103.629C108.429 18.936 110.829 16.5253 110.829 11.704C110.829 6.904 108.429 4.504 103.629 4.504H100.045V18.936ZM119.45 23V7.288H124.186V10.008C124.932 8.17333 126.532 7.16 128.986 6.968L130.394 6.872L130.682 10.936L127.962 11.224C125.572 11.4587 124.378 12.6747 124.378 14.872V23H119.45ZM137.793 23.352C136.62 23.352 135.585 23.128 134.689 22.68C133.793 22.232 133.078 21.624 132.545 20.856C132.033 20.088 131.777 19.224 131.777 18.264C131.777 17.1333 132.076 16.2267 132.673 15.544C133.27 14.8613 134.241 14.3813 135.585 14.104C136.929 13.8053 138.71 13.656 140.929 13.656H142.081V13.112C142.081 12.1733 141.868 11.512 141.441 11.128C141.014 10.7227 140.289 10.52 139.265 10.52C138.412 10.52 137.505 10.6587 136.545 10.936C135.606 11.192 134.668 11.5867 133.729 12.12L132.417 8.888C132.972 8.52533 133.644 8.19467 134.433 7.896C135.244 7.59733 136.086 7.37333 136.961 7.224C137.836 7.05333 138.668 6.968 139.457 6.968C141.889 6.968 143.702 7.52267 144.897 8.632C146.092 9.72 146.689 11.416 146.689 13.72V23H142.177V20.632C141.857 21.464 141.313 22.1253 140.545 22.616C139.798 23.1067 138.881 23.352 137.793 23.352ZM138.881 20.12C139.777 20.12 140.534 19.8107 141.153 19.192C141.772 18.5733 142.081 17.7733 142.081 16.792V16.152H140.961C139.318 16.152 138.156 16.3013 137.473 16.6C136.79 16.8773 136.449 17.368 136.449 18.072C136.449 18.6693 136.652 19.16 137.057 19.544C137.484 19.928 138.092 20.12 138.881 20.12ZM154.585 23L148.185 7.288H153.081L156.825 17.368L160.569 7.288H163.769L167.513 17.496L171.257 7.288H175.897L169.561 23H165.465L162.009 14.072L158.649 23H154.585Z" fill="#FBA600"/>
</svg>
