<svg width="192" height="14" viewBox="0 0 192 14" fill="none" xmlns="http://www.w3.org/2000/svg">
<path d="M0.373901 11.9581L0.567577 8.31146C1.49169 9.11937 2.57074 9.7502 3.82133 10.2095C5.06639 10.6522 6.77627 10.8735 8.93991 10.8735C11.5075 10.8735 12.2877 10.2261 12.2877 9.54545C12.2877 8.3834 8.41975 9.1581 5.09959 8.71542C2.63161 8.42213 0.401569 7.37075 0.429237 4.42134C0.429237 1.45534 3.00789 0 7.67825 0C9.28853 0 10.6498 0.0719368 11.7842 0.237945C12.9186 0.387352 14.2356 0.680632 15.7628 1.13992V4.89723H14.6395C14.0253 4.32727 13.0126 3.88458 11.6126 3.5913C10.2237 3.27589 9.03398 3.13202 8.05453 3.13202C6.05137 3.13202 4.95572 3.35336 4.57943 3.70198C4.39683 3.86798 4.31382 4.07273 4.32489 4.32727C4.32489 5.76601 8.27588 4.93597 11.6846 5.37866C14.2079 5.6 16.4767 6.59605 16.4656 9.53992C16.4656 12.7273 13.8316 14 8.54702 14C4.96125 14 2.23872 13.3194 0.373901 11.9526L0.373901 11.9581Z" fill="#5E5E5E"/>
<path d="M19.0555 0.553467H23.7812L29.9346 10.5029H30.3275L36.4642 0.553467H41.201V13.4523H37.416V6.0594L32.8452 13.4467H27.4057L22.835 6.0594V13.4467H19.05V0.553467H19.0555Z" fill="#5E5E5E"/>
<path d="M56.3628 10.8681H49.7169L48.5549 13.4467H43.5082L50.7296 0.553467H55.3557L62.5715 13.4523H57.5248L56.3628 10.8736V10.8681ZM54.8742 7.55347L53.2197 3.86809H52.8545L51.1999 7.55347H54.8742Z" fill="#5E5E5E"/>
<path d="M75.5921 13.4523L72.4933 9.04754L68.6696 9.03094V13.4523H64.8846V0.553467H75.0443C76.4333 0.553467 77.551 0.924218 78.3922 1.63805C79.2333 2.35742 79.6538 3.48074 79.6538 4.97481C79.6538 7.53687 78.4088 8.69892 76.2617 8.97007L79.936 13.4467H75.5921V13.4523ZM68.6696 6.08153H74.7676C75.3985 6.08153 75.819 5.69418 75.819 4.97481C75.819 4.36612 75.4815 3.86809 74.7676 3.86809H68.6696V6.08153Z" fill="#5E5E5E"/>
<path d="M97.7375 3.86809H91.219V13.4523H87.434V3.86809H80.9154V0.553467H97.7375V3.86809Z" fill="#5E5E5E"/>
<path d="M108.622 10.8681H101.976L100.814 13.4467H95.7675L102.989 0.553467H107.615L114.831 13.4523H109.784L108.622 10.8736V10.8681ZM107.139 7.55347L105.485 3.86809H105.119L103.465 7.55347H107.139Z" fill="#5E5E5E"/>
<path d="M128.792 13.4523L124.896 8.93687L121.001 13.4523H115.251L121.178 6.87284L115.672 0.553467H121.139L125.024 4.95821L128.654 0.553467H134.121L128.526 7.09418L134.542 13.4523H128.792Z" fill="#5E5E5E"/>
<path d="M143.949 12.6719V10.702H144.314C144.917 11.6759 146.92 12.1573 150.34 12.1573C151.74 12.1573 152.974 11.9913 154.108 11.6206C155.27 11.2332 155.984 10.4585 155.984 9.44586C155.984 7.43716 153.754 6.42451 149.311 6.42451L149.073 5.13519H149.089L154.712 1.65455H144.591V0.182617H156.969V2.02531L151.253 5.21266C155.597 5.52807 157.772 6.94467 157.772 9.45139C157.772 10.8348 157.213 12.0688 155.503 12.8214C154.396 13.3194 152.631 13.6348 150.346 13.6348C147.85 13.6348 145.719 13.3194 143.954 12.6775L143.949 12.6719Z" fill="#5E5E5E"/>
<path d="M161.916 12.0466C160.865 11.0893 160.428 10.0545 160.428 8.89802C160.428 5.54466 161.983 3.36996 164.379 1.96996C166.83 0.531225 170.067 0.0166008 173.631 0L173.885 1.47194C171.534 1.47194 169.497 1.70988 167.383 2.35731C165.297 3.00474 163.626 4.27194 162.857 6.02609C164.639 5.23478 166.321 4.84743 167.904 4.84743C170.593 4.84743 172.629 5.40079 173.708 6.30277C174.815 7.18814 175.291 8.21739 175.291 9.45138C175.291 10.8348 174.732 12.0688 173.022 12.8213C171.915 13.3194 170.15 13.6348 167.865 13.6348C165.059 13.6348 162.99 13.0095 161.922 12.0522L161.916 12.0466ZM171.628 11.6206C172.79 11.2332 173.504 10.4585 173.504 9.44585C173.504 7.60316 171.639 6.2419 167.926 6.2419C165.978 6.2419 164.395 6.61265 163.51 7.12727C162.658 7.6419 162.204 8.19526 162.204 8.70988C162.204 11.0119 164.08 12.1573 167.854 12.1573C169.254 12.1573 170.488 11.9913 171.622 11.6206H171.628Z" fill="#5E5E5E"/>
<path d="M177.809 12.6719V10.702H178.174C178.777 11.6759 180.78 12.1573 184.2 12.1573C185.6 12.1573 186.834 11.9913 187.968 11.6206C189.13 11.2332 189.844 10.4585 189.844 9.44586C189.844 8.54388 189.468 7.78578 188.71 7.19922C187.952 6.60712 186.745 6.31384 185.08 6.31384C184.283 6.31384 183.315 6.40791 182.208 6.59052C181.101 6.75653 180.244 6.93914 179.613 7.12728L178.478 5.96523L179.037 0.182617H190.824V1.65455H180.327L179.878 5.68855C182.147 5.19052 183.885 4.93044 185.108 4.93044C187.31 4.93044 188.937 5.35653 190.016 6.18104C191.095 7.01108 191.626 8.09566 191.626 9.44032C191.626 10.785 191.067 12.0577 189.357 12.8103C188.251 13.3083 186.485 13.6237 184.2 13.6237C181.704 13.6237 179.574 13.3083 177.809 12.6664V12.6719Z" fill="#5E5E5E"/>
</svg>
