<svg width="199" height="64" viewBox="0 0 199 64" fill="none" xmlns="http://www.w3.org/2000/svg">
<path d="M20.598 40.978C21.0513 41.4087 21.278 41.896 21.278 42.44C21.278 42.9613 21.074 43.426 20.666 43.834C20.2807 44.2193 19.816 44.412 19.272 44.412C18.7053 44.412 18.184 44.174 17.708 43.698L6.386 33.09V42.27C6.386 42.9273 6.182 43.46 5.774 43.868C5.38867 44.276 4.856 44.48 4.176 44.48C3.51867 44.48 2.986 44.276 2.578 43.868C2.19267 43.46 2 42.9273 2 42.27V22.312C2 21.6547 2.19267 21.1333 2.578 20.748C2.986 20.34 3.51867 20.136 4.176 20.136C4.856 20.136 5.38867 20.34 5.774 20.748C6.182 21.1333 6.386 21.6547 6.386 22.312V31.05L17.334 20.782C17.742 20.374 18.2067 20.17 18.728 20.17C19.2493 20.17 19.7027 20.374 20.088 20.782C20.496 21.1673 20.7 21.6207 20.7 22.142C20.7 22.6633 20.4733 23.1393 20.02 23.57L10.874 31.934L20.598 40.978Z" fill="white"/>
<path d="M34.1916 44.582C31.857 44.582 29.8283 44.0833 28.1056 43.086C26.4056 42.0887 25.091 40.6607 24.1616 38.802C23.2323 36.9433 22.7676 34.7673 22.7676 32.274C22.7676 29.7807 23.221 27.616 24.1276 25.78C25.057 23.9213 26.383 22.4933 28.1056 21.496C29.8283 20.4987 31.857 20 34.1916 20C36.5263 20 38.5436 20.4987 40.2436 21.496C41.9663 22.4933 43.281 23.9213 44.1876 25.78C45.117 27.616 45.5816 29.7807 45.5816 32.274C45.5816 34.7673 45.117 36.9433 44.1876 38.802C43.2583 40.6607 41.9323 42.0887 40.2096 43.086C38.5096 44.0833 36.5036 44.582 34.1916 44.582ZM34.1916 41.08C36.3903 41.08 38.1016 40.3207 39.3256 38.802C40.5723 37.2833 41.1956 35.1073 41.1956 32.274C41.1956 29.4407 40.5723 27.276 39.3256 25.78C38.1016 24.2613 36.3903 23.502 34.1916 23.502C31.9703 23.502 30.2363 24.2613 28.9896 25.78C27.7656 27.276 27.1536 29.4407 27.1536 32.274C27.1536 35.1073 27.7656 37.2833 28.9896 38.802C30.2363 40.3207 31.9703 41.08 34.1916 41.08Z" fill="white"/>
<path d="M52.1197 44.276C51.4624 44.276 50.9411 44.0947 50.5557 43.732C50.1931 43.3693 50.0117 42.8593 50.0117 42.202V22.38C50.0117 21.7227 50.1931 21.2127 50.5557 20.85C50.9411 20.4873 51.4624 20.306 52.1197 20.306H58.8517C62.7731 20.306 65.8104 21.36 67.9637 23.468C70.1397 25.5533 71.2277 28.4887 71.2277 32.274C71.2277 36.082 70.1397 39.04 67.9637 41.148C65.8104 43.2333 62.7731 44.276 58.8517 44.276H52.1197ZM58.5797 40.706C64.0877 40.706 66.8417 37.8953 66.8417 32.274C66.8417 26.6753 64.0877 23.876 58.5797 23.876H54.3977V40.706H58.5797Z" fill="white"/>
<path d="M77.7525 44.276C77.0952 44.276 76.5739 44.0947 76.1885 43.732C75.8259 43.3693 75.6445 42.8593 75.6445 42.202V22.38C75.6445 21.7227 75.8259 21.2127 76.1885 20.85C76.5739 20.4873 77.0952 20.306 77.7525 20.306H90.0265C90.6839 20.306 91.1939 20.4533 91.5565 20.748C91.9192 21.0427 92.1005 21.462 92.1005 22.006C92.1005 22.5727 91.9192 23.0147 91.5565 23.332C91.1939 23.6267 90.6839 23.774 90.0265 23.774H79.9285V30.37H89.3465C90.0039 30.37 90.5139 30.5173 90.8765 30.812C91.2392 31.1067 91.4205 31.5373 91.4205 32.104C91.4205 32.648 91.2392 33.0673 90.8765 33.362C90.5139 33.6567 90.0039 33.804 89.3465 33.804H79.9285V40.808H90.0265C90.6839 40.808 91.1939 40.9667 91.5565 41.284C91.9192 41.5787 92.1005 42.0093 92.1005 42.576C92.1005 43.12 91.9192 43.5393 91.5565 43.834C91.1939 44.1287 90.6839 44.276 90.0265 44.276H77.7525Z" fill="white"/>
<path d="M106.31 44.582C103.998 44.582 101.969 44.0833 100.224 43.086C98.5009 42.0887 97.1749 40.6607 96.2456 38.802C95.3163 36.9433 94.8516 34.7673 94.8516 32.274C94.8516 29.7807 95.3163 27.616 96.2456 25.78C97.1749 23.9213 98.5009 22.4933 100.224 21.496C101.969 20.4987 103.998 20 106.31 20C107.806 20 109.211 20.2267 110.526 20.68C111.84 21.1107 113.008 21.7453 114.028 22.584C114.322 22.8107 114.526 23.0487 114.64 23.298C114.753 23.5473 114.81 23.8533 114.81 24.216C114.81 24.7147 114.674 25.134 114.402 25.474C114.13 25.814 113.801 25.984 113.416 25.984C112.962 25.984 112.498 25.8253 112.022 25.508C111.047 24.7827 110.14 24.284 109.302 24.012C108.463 23.7173 107.534 23.57 106.514 23.57C104.156 23.57 102.366 24.3067 101.142 25.78C99.9403 27.2533 99.3396 29.418 99.3396 32.274C99.3396 35.1527 99.9403 37.3287 101.142 38.802C102.366 40.2753 104.156 41.012 106.514 41.012C107.488 41.012 108.384 40.8647 109.2 40.57C110.038 40.2753 110.979 39.7767 112.022 39.074C112.248 38.938 112.475 38.8247 112.702 38.734C112.928 38.6433 113.166 38.598 113.416 38.598C113.801 38.598 114.13 38.768 114.402 39.108C114.674 39.448 114.81 39.8673 114.81 40.366C114.81 40.706 114.753 41.012 114.64 41.284C114.526 41.5333 114.322 41.7713 114.028 41.998C113.008 42.8367 111.84 43.4827 110.526 43.936C109.211 44.3667 107.806 44.582 106.31 44.582Z" fill="white"/>
<path d="M128.887 44.582C126.552 44.582 124.524 44.0833 122.801 43.086C121.101 42.0887 119.786 40.6607 118.857 38.802C117.928 36.9433 117.463 34.7673 117.463 32.274C117.463 29.7807 117.916 27.616 118.823 25.78C119.752 23.9213 121.078 22.4933 122.801 21.496C124.524 20.4987 126.552 20 128.887 20C131.222 20 133.239 20.4987 134.939 21.496C136.662 22.4933 137.976 23.9213 138.883 25.78C139.812 27.616 140.277 29.7807 140.277 32.274C140.277 34.7673 139.812 36.9433 138.883 38.802C137.954 40.6607 136.628 42.0887 134.905 43.086C133.205 44.0833 131.199 44.582 128.887 44.582ZM128.887 41.08C131.086 41.08 132.797 40.3207 134.021 38.802C135.268 37.2833 135.891 35.1073 135.891 32.274C135.891 29.4407 135.268 27.276 134.021 25.78C132.797 24.2613 131.086 23.502 128.887 23.502C126.666 23.502 124.932 24.2613 123.685 25.78C122.461 27.276 121.849 29.4407 121.849 32.274C121.849 35.1073 122.461 37.2833 123.685 38.802C124.932 40.3207 126.666 41.08 128.887 41.08Z" fill="white"/>
<path d="M165.991 20.136C166.626 20.136 167.136 20.34 167.521 20.748C167.906 21.1333 168.099 21.6547 168.099 22.312V42.44C168.099 43.0747 167.918 43.5733 167.555 43.936C167.192 44.2987 166.716 44.48 166.127 44.48C165.538 44.48 165.073 44.2987 164.733 43.936C164.393 43.5733 164.223 43.0747 164.223 42.44V28.432L158.443 39.38C158.171 39.8787 157.876 40.2527 157.559 40.502C157.242 40.7287 156.868 40.842 156.437 40.842C156.006 40.842 155.632 40.7287 155.315 40.502C154.998 40.2753 154.703 39.9013 154.431 39.38L148.617 28.602V42.44C148.617 43.052 148.436 43.5507 148.073 43.936C147.733 44.2987 147.268 44.48 146.679 44.48C146.09 44.48 145.625 44.2987 145.285 43.936C144.945 43.5733 144.775 43.0747 144.775 42.44V22.312C144.775 21.6547 144.956 21.1333 145.319 20.748C145.704 20.34 146.214 20.136 146.849 20.136C147.733 20.136 148.424 20.6233 148.923 21.598L156.471 35.98L163.985 21.598C164.484 20.6233 165.152 20.136 165.991 20.136Z" fill="white"/>
<path d="M194.579 20.136C195.214 20.136 195.724 20.34 196.109 20.748C196.494 21.1333 196.687 21.6547 196.687 22.312V42.44C196.687 43.0747 196.506 43.5733 196.143 43.936C195.78 44.2987 195.304 44.48 194.715 44.48C194.126 44.48 193.661 44.2987 193.321 43.936C192.981 43.5733 192.811 43.0747 192.811 42.44V28.432L187.031 39.38C186.759 39.8787 186.464 40.2527 186.147 40.502C185.83 40.7287 185.456 40.842 185.025 40.842C184.594 40.842 184.22 40.7287 183.903 40.502C183.586 40.2753 183.291 39.9013 183.019 39.38L177.205 28.602V42.44C177.205 43.052 177.024 43.5507 176.661 43.936C176.321 44.2987 175.856 44.48 175.267 44.48C174.678 44.48 174.213 44.2987 173.873 43.936C173.533 43.5733 173.363 43.0747 173.363 42.44V22.312C173.363 21.6547 173.544 21.1333 173.907 20.748C174.292 20.34 174.802 20.136 175.437 20.136C176.321 20.136 177.012 20.6233 177.511 21.598L185.059 35.98L192.573 21.598C193.072 20.6233 193.74 20.136 194.579 20.136Z" fill="white"/>
</svg>
