<svg width="28" height="28" viewBox="0 0 28 28" fill="none" xmlns="http://www.w3.org/2000/svg">
<path d="M25.5498 10.3717L24.3248 5.27333C24.0681 4.22333 23.1581 3.5 22.0964 3.5H5.89143C4.84143 3.5 3.91976 4.235 3.67476 5.27333L2.44976 10.3717C2.16976 11.5617 2.42643 12.775 3.1731 13.7317C3.26643 13.86 3.39476 13.9533 3.49976 14.07V22.1667C3.49976 23.45 4.54976 24.5 5.8331 24.5H22.1664C23.4498 24.5 24.4998 23.45 24.4998 22.1667V14.07C24.6048 13.965 24.7331 13.86 24.8264 13.7433C25.5731 12.7867 25.8414 11.5617 25.5498 10.3717ZM22.0614 5.82167L23.2864 10.92C23.4031 11.41 23.2981 11.9 22.9948 12.285C22.8314 12.495 22.4814 12.8333 21.8981 12.8333C21.1864 12.8333 20.5681 12.2617 20.4864 11.5033L19.8098 5.83333L22.0614 5.82167ZM15.1664 5.83333H17.4531L18.0831 11.1067C18.1414 11.5617 18.0014 12.0167 17.6981 12.355C17.4414 12.6583 17.0681 12.8333 16.5898 12.8333C15.8081 12.8333 15.1664 12.145 15.1664 11.305V5.83333ZM9.90476 11.1067L10.5464 5.83333H12.8331V11.305C12.8331 12.145 12.1914 12.8333 11.3281 12.8333C10.9314 12.8333 10.5698 12.6583 10.2898 12.355C9.9981 12.0167 9.8581 11.5617 9.90476 11.1067ZM4.7131 10.92L5.89143 5.83333H8.18976L7.5131 11.5033C7.41976 12.2617 6.8131 12.8333 6.10143 12.8333C5.52976 12.8333 5.1681 12.495 5.01643 12.285C4.70143 11.9117 4.59643 11.41 4.7131 10.92ZM5.8331 22.1667V15.1317C5.92643 15.1433 6.0081 15.1667 6.10143 15.1667C7.11643 15.1667 8.0381 14.7467 8.71476 14.0583C9.41476 14.7583 10.3481 15.1667 11.4098 15.1667C12.4248 15.1667 13.3348 14.7467 14.0114 14.0817C14.6998 14.7467 15.6331 15.1667 16.6831 15.1667C17.6631 15.1667 18.5964 14.7583 19.2964 14.0583C19.9731 14.7467 20.8948 15.1667 21.9098 15.1667C22.0031 15.1667 22.0848 15.1433 22.1781 15.1317V22.1667H5.8331Z" fill="#282A38"/>
</svg>
