<svg width="100" height="34" viewBox="0 0 100 34" fill="none" xmlns="http://www.w3.org/2000/svg">
<g clip-path="url(#clip0)">
<path d="M80.6901 6.66623C80.3054 6.42241 79.8431 6.33199 79.3949 6.41286C78.9467 6.49374 78.5453 6.74001 78.2701 7.10289L73.9 12.8779C73.8985 12.8788 73.8968 12.8792 73.895 12.8792C73.8933 12.8792 73.8916 12.8788 73.89 12.8779L69.7051 7.16623C69.5227 6.90854 69.2776 6.70166 68.9929 6.56517C68.7083 6.42867 68.3935 6.36708 68.0784 6.38623C67.6235 6.42018 67.1982 6.62431 66.8871 6.95792C66.576 7.29152 66.4021 7.7301 66.4 8.18623V20.0862C66.394 20.5699 66.577 21.0369 66.9101 21.3877C67.2432 21.7385 67.7 21.9455 68.1834 21.9646C68.4232 21.9672 68.6611 21.9223 68.8835 21.8323C69.1058 21.7424 69.308 21.6092 69.4785 21.4406C69.6491 21.2719 69.7844 21.0711 69.8768 20.8498C69.9692 20.6285 70.0167 20.391 70.0167 20.1512V13.7496H70.0267L72.3934 16.9846C72.5627 17.2143 72.7829 17.4018 73.0368 17.5322C73.2907 17.6626 73.5713 17.7324 73.8567 17.7362C74.1394 17.7364 74.4183 17.6707 74.6712 17.5443C74.924 17.4178 75.1439 17.2342 75.3134 17.0079L77.885 13.6096H77.8951V20.0929C77.889 20.5766 78.072 21.0436 78.4051 21.3944C78.7382 21.7452 79.195 21.9522 79.6784 21.9712C79.9189 21.9761 80.1579 21.9331 80.3817 21.8446C80.6054 21.7562 80.8092 21.6242 80.9814 21.4562C81.1536 21.2882 81.2906 21.0876 81.3845 20.8662C81.4784 20.6447 81.5273 20.4068 81.5284 20.1662V8.24623C81.5327 7.93363 81.4581 7.625 81.3116 7.34884C81.1651 7.07269 80.9513 6.83792 80.6901 6.66623Z" fill="#01405F"/>
<path d="M97.755 6.66693C97.3707 6.42189 96.9082 6.33042 96.4595 6.41071C96.0109 6.49099 95.6088 6.73715 95.3333 7.10026L90.965 12.8786L86.7717 7.16693C86.5891 6.90947 86.3439 6.70277 86.0593 6.5663C85.7747 6.42983 85.4601 6.3681 85.145 6.38693C84.6885 6.42097 84.2618 6.62622 83.9503 6.96155C83.6387 7.29689 83.4654 7.73755 83.465 8.19526V20.0953C83.459 20.579 83.642 21.0459 83.975 21.3967C84.3081 21.7476 84.7649 21.9545 85.2483 21.9736C85.4881 21.9762 85.7261 21.9313 85.9484 21.8413C86.1707 21.7514 86.373 21.6183 86.5435 21.4496C86.714 21.281 86.8494 21.0802 86.9417 20.8588C87.0341 20.6375 87.0817 20.4001 87.0817 20.1603V13.7503H87.0917L89.46 16.9853C89.629 17.215 89.8489 17.4024 90.1025 17.5329C90.3561 17.6633 90.6365 17.7331 90.9217 17.7369C91.2046 17.7371 91.4837 17.6714 91.7368 17.545C91.99 17.4186 92.2102 17.2349 92.38 17.0086L94.9517 13.6103V20.0936C94.9456 20.5773 95.1286 21.0443 95.4617 21.3951C95.7948 21.7459 96.2516 21.9529 96.735 21.9719C96.9748 21.9746 97.2128 21.9296 97.4351 21.8397C97.6574 21.7497 97.8597 21.6166 98.0302 21.4479C98.2007 21.2793 98.336 21.0785 98.4284 20.8572C98.5208 20.6359 98.5683 20.3984 98.5683 20.1586V8.24693C98.5753 7.93662 98.5046 7.62948 98.3625 7.35351C98.2205 7.07754 98.0116 6.84151 97.755 6.66693Z" fill="#01405F"/>
<path d="M23.1567 10.1564C23.1567 8.88472 22.6567 7.28472 20.3234 7.28472C18.1417 7.28472 17.5467 9.28472 17.5467 10.2081C17.5467 10.4864 17.5467 10.7081 17.5467 10.9097C17.5464 11.9483 17.2382 12.9634 16.661 13.8268C16.0838 14.6901 15.2636 15.363 14.304 15.7603C13.3445 16.1576 12.2887 16.2614 11.2701 16.0587C10.2515 15.856 9.31593 15.3559 8.58158 14.6215C7.84722 13.8872 7.34708 12.9516 7.14439 11.933C6.9417 10.9144 7.04556 9.85865 7.44284 8.8991C7.84012 7.93955 8.51298 7.11933 9.37636 6.54215C10.2397 5.96496 11.2549 5.65672 12.2934 5.65639H25.9417V19.8714C25.9596 20.6037 26.263 21.3 26.7873 21.8116C27.3115 22.3233 28.015 22.6097 28.7476 22.6097C29.4801 22.6097 30.1836 22.3233 30.7078 21.8116C31.2321 21.3 31.5355 20.6037 31.5534 19.8714V5.65639H35.7667C36.1351 5.65639 36.4998 5.58383 36.8402 5.44287C37.1805 5.30191 37.4897 5.09529 37.7502 4.83482C38.0106 4.57435 38.2172 4.26513 38.3582 3.92481C38.4992 3.5845 38.5717 3.21975 38.5717 2.85139C38.5717 2.48303 38.4992 2.11828 38.3582 1.77796C38.2172 1.43764 38.0106 1.12842 37.7502 0.867953C37.4897 0.607485 37.1805 0.40087 36.8402 0.259906C36.4998 0.118941 36.1351 0.046388 35.7667 0.046388H12.2934C10.6353 0.0455852 8.99911 0.424327 7.51006 1.1536C6.021 1.88287 4.71863 2.94331 3.70273 4.25368C2.68683 5.56406 1.98436 7.08959 1.64914 8.7134C1.31392 10.3372 1.35485 12.0162 1.76878 13.6218C2.18271 15.2273 2.95867 16.7168 4.0372 17.9761C5.11573 19.2354 6.46822 20.2312 7.99104 20.887C9.51386 21.5429 11.1666 21.8415 12.8226 21.7599C14.4787 21.6783 16.0941 21.2187 17.5451 20.4164V30.5731C17.5451 31.3174 17.8408 32.0313 18.3671 32.5577C18.8935 33.084 19.6074 33.3797 20.3517 33.3797C20.8079 33.3805 21.2573 33.2689 21.6601 33.0547L21.8051 32.973L21.8267 32.9597L29.1967 28.7047C29.8412 28.3328 30.3115 27.72 30.5042 27.0013C30.6969 26.2825 30.5962 25.5167 30.2242 24.8722C29.8523 24.2277 29.2395 23.7574 28.5208 23.5647C27.802 23.372 27.0362 23.4728 26.3917 23.8447L23.1567 25.7131V10.1564Z" fill="#FCAF17"/>
<path d="M35.765 2.37012H12.265C10.0173 2.37012 7.86168 3.26302 6.27231 4.85239C4.68294 6.44176 3.79004 8.59741 3.79004 10.8451C3.79004 13.0928 4.68294 15.2485 6.27231 16.8378C7.86168 18.4272 10.0173 19.3201 12.265 19.3201C14.79 19.3201 16.9567 18.3368 18.53 16.4868C19.094 15.8167 19.5577 15.0684 19.9067 14.2651V30.4001C19.9071 30.5105 19.9512 30.6162 20.0292 30.6943C20.1073 30.7723 20.213 30.8163 20.3234 30.8168C20.3933 30.8163 20.462 30.7985 20.5234 30.7651L28.0234 26.6568C28.0723 26.631 28.1156 26.5956 28.1507 26.5529C28.1859 26.5102 28.2121 26.4609 28.228 26.4079C28.2439 26.3549 28.249 26.2992 28.2432 26.2442C28.2373 26.1892 28.2206 26.1359 28.1939 26.0874C28.1672 26.039 28.1312 25.9963 28.0879 25.9619C28.0445 25.9275 27.9948 25.9021 27.9415 25.8871C27.8882 25.8722 27.8325 25.868 27.7776 25.8748C27.7227 25.8816 27.6697 25.8993 27.6217 25.9268L20.7484 29.6951V10.1951C20.7484 10.0846 20.7045 9.97863 20.6263 9.90049C20.5482 9.82235 20.4422 9.77845 20.3317 9.77845C20.2212 9.77845 20.1152 9.82235 20.0371 9.90049C19.9589 9.97863 19.915 10.0846 19.915 10.1951C19.915 12.3451 19.1817 14.4451 17.9017 15.9568C16.4917 17.6235 14.545 18.5035 12.2734 18.5035C10.2467 18.5035 8.30299 17.6983 6.8699 16.2653C5.43681 14.8322 4.63171 12.8885 4.63171 10.8618C4.63171 8.83509 5.43681 6.8914 6.8699 5.45831C8.30299 4.02522 10.2467 3.22012 12.2734 3.22012H28.39C28.39 3.22012 28.39 3.23345 28.39 3.24012V19.9585C28.39 20.069 28.4339 20.1749 28.5121 20.2531C28.5902 20.3312 28.6962 20.3751 28.8067 20.3751C28.9172 20.3751 29.0232 20.3312 29.1013 20.2531C29.1795 20.1749 29.2234 20.069 29.2234 19.9585V3.22345C29.2234 3.22345 29.2234 3.21012 29.2234 3.20345H35.7767C35.8872 3.20345 35.9932 3.15955 36.0713 3.08141C36.1495 3.00327 36.1934 2.89729 36.1934 2.78678C36.1934 2.67628 36.1495 2.5703 36.0713 2.49216C35.9932 2.41402 35.8872 2.37012 35.7767 2.37012H35.765Z" fill="white"/>
<path d="M42.1466 9.83331C43.2362 9.82979 44.2849 10.2478 45.0732 11C45.3596 11.2716 45.7239 11.4465 46.1149 11.5C46.4277 11.5412 46.7458 11.5004 47.038 11.3814C47.3302 11.2625 47.5865 11.0696 47.7816 10.8216C48.3549 10.105 48.2349 8.96498 47.5682 8.33498C46.4514 7.27813 45.0501 6.57063 43.5366 6.29946C42.0231 6.02828 40.4634 6.20525 39.0491 6.8086C37.6348 7.41195 36.4277 8.41539 35.576 9.69558C34.7243 10.9758 34.2653 12.4769 34.2553 14.0145C34.2453 15.552 34.6848 17.059 35.5197 18.3502C36.3547 19.6413 37.5487 20.6604 38.955 21.2821C40.3613 21.9038 41.9186 22.101 43.4355 21.8495C44.9524 21.5981 46.3628 20.9089 47.4932 19.8666C47.7428 19.6431 47.9274 19.3563 48.0274 19.0365C48.1274 18.7167 48.1392 18.3759 48.0616 18.05C47.9843 17.7413 47.8275 17.4583 47.6067 17.2292C47.386 17 47.109 16.8328 46.8034 16.7441C46.4978 16.6554 46.1744 16.6483 45.8652 16.7236C45.5561 16.7989 45.2721 16.954 45.0416 17.1733C44.4377 17.7356 43.6831 18.1099 42.87 18.2504C42.0569 18.3909 41.2205 18.2916 40.4629 17.9646C39.7053 17.6376 39.0593 17.0971 38.6039 16.409C38.1484 15.7209 37.9032 14.9151 37.8982 14.09V14.07C37.9026 12.9457 38.352 11.8689 39.1481 11.0749C39.9442 10.281 41.0223 9.83462 42.1466 9.83331Z" fill="#01405F"/>
<path d="M56.6934 6H56.6784C54.5357 6.00199 52.4814 6.85484 50.9673 8.37104C49.4532 9.88724 48.6033 11.9427 48.6042 14.0854C48.6052 16.2282 49.4571 18.2828 50.9726 19.7976C52.4881 21.3124 54.5432 22.1633 56.6859 22.1633C58.8287 22.1633 60.8837 21.3124 62.3992 19.7976C63.9147 18.2828 64.7666 16.2282 64.7676 14.0854C64.7686 11.9427 63.9186 9.88724 62.4045 8.37104C60.8904 6.85484 58.8362 6.00199 56.6934 6ZM61.1251 14.0883C61.122 15.2659 60.6523 16.3943 59.8188 17.2262C58.9853 18.0582 57.856 18.5258 56.6784 18.5267C56.0945 18.5274 55.5161 18.4132 54.9763 18.1904C54.4365 17.9677 53.9459 17.6408 53.5324 17.2284C52.6974 16.3956 52.2275 15.2652 52.2259 14.0858C52.2252 13.5019 52.3394 12.9235 52.5622 12.3837C52.7849 11.8439 53.1118 11.3533 53.5242 10.9399C53.9366 10.5264 54.4263 10.1982 54.9655 9.97405C55.5047 9.74987 56.0828 9.6341 56.6667 9.63333H56.6851C57.864 9.63642 58.9936 10.107 59.8259 10.9419C60.6583 11.7768 61.1255 12.9077 61.1251 14.0867V14.0883Z" fill="#01405F"/>
</g>
<defs>
<clipPath id="clip0">
<rect width="100" height="33.3333" fill="white"/>
</clipPath>
</defs>
</svg>
