<svg width="248" height="34" viewBox="0 0 248 34" fill="none" xmlns="http://www.w3.org/2000/svg">
<path d="M13.535 33.495C11.045 33.495 8.69 33.18 6.47 32.55C4.28 31.92 2.45 31.065 0.98 29.985L3.005 24.495C4.415 25.485 6.02 26.265 7.82 26.835C9.65 27.405 11.555 27.69 13.535 27.69C15.695 27.69 17.24 27.36 18.17 26.7C19.13 26.01 19.61 25.155 19.61 24.135C19.61 23.265 19.28 22.575 18.62 22.065C17.96 21.555 16.805 21.12 15.155 20.76L10.07 19.68C4.4 18.48 1.565 15.54 1.565 10.86C1.565 8.85 2.105 7.095 3.185 5.595C4.265 4.065 5.765 2.88 7.685 2.04C9.635 1.2 11.885 0.779999 14.435 0.779999C16.625 0.779999 18.68 1.095 20.6 1.725C22.52 2.355 24.11 3.24 25.37 4.38L23.345 9.51C20.885 7.56 17.9 6.585 14.39 6.585C12.5 6.585 11.03 6.96 9.98 7.71C8.96 8.43 8.45 9.375 8.45 10.545C8.45 11.415 8.765 12.12 9.395 12.66C10.025 13.2 11.12 13.635 12.68 13.965L17.765 15.045C23.585 16.305 26.495 19.155 26.495 23.595C26.495 25.575 25.955 27.315 24.875 28.815C23.825 30.285 22.325 31.44 20.375 32.28C18.455 33.09 16.175 33.495 13.535 33.495ZM30.5281 33V10.905H37.1881V14.1C37.8481 12.96 38.7481 12.075 39.8881 11.445C41.0581 10.785 42.4081 10.455 43.9381 10.455C45.4981 10.455 46.8181 10.8 47.8981 11.49C49.0081 12.18 49.8481 13.23 50.4181 14.64C51.1081 13.32 52.0981 12.3 53.3881 11.58C54.7081 10.83 56.1631 10.455 57.7531 10.455C60.2731 10.455 62.1481 11.22 63.3781 12.75C64.6081 14.25 65.2231 16.575 65.2231 19.725V33H58.4281V19.95C58.4281 18.48 58.1881 17.415 57.7081 16.755C57.2581 16.065 56.4781 15.72 55.3681 15.72C54.0781 15.72 53.0731 16.17 52.3531 17.07C51.6331 17.97 51.2731 19.245 51.2731 20.895V33H44.4781V19.95C44.4781 18.48 44.2381 17.415 43.7581 16.755C43.2781 16.065 42.4981 15.72 41.4181 15.72C40.1281 15.72 39.1231 16.17 38.4031 17.07C37.6831 17.97 37.3231 19.245 37.3231 20.895V33H30.5281ZM77.8984 33.495C76.2484 33.495 74.7934 33.18 73.5334 32.55C72.2734 31.92 71.2684 31.065 70.5184 29.985C69.7984 28.905 69.4384 27.69 69.4384 26.34C69.4384 24.75 69.8584 23.475 70.6984 22.515C71.5384 21.555 72.9034 20.88 74.7934 20.49C76.6834 20.07 79.1884 19.86 82.3084 19.86H83.9284V19.095C83.9284 17.775 83.6284 16.845 83.0284 16.305C82.4284 15.735 81.4084 15.45 79.9684 15.45C78.7684 15.45 77.4934 15.645 76.1434 16.035C74.8234 16.395 73.5034 16.95 72.1834 17.7L70.3384 13.155C71.1184 12.645 72.0634 12.18 73.1734 11.76C74.3134 11.34 75.4984 11.025 76.7284 10.815C77.9584 10.575 79.1284 10.455 80.2384 10.455C83.6584 10.455 86.2084 11.235 87.8884 12.795C89.5684 14.325 90.4084 16.71 90.4084 19.95V33H84.0634V29.67C83.6134 30.84 82.8484 31.77 81.7684 32.46C80.7184 33.15 79.4284 33.495 77.8984 33.495ZM79.4284 28.95C80.6884 28.95 81.7534 28.515 82.6234 27.645C83.4934 26.775 83.9284 25.65 83.9284 24.27V23.37H82.3534C80.0434 23.37 78.4084 23.58 77.4484 24C76.4884 24.39 76.0084 25.08 76.0084 26.07C76.0084 26.91 76.2934 27.6 76.8634 28.14C77.4634 28.68 78.3184 28.95 79.4284 28.95ZM95.4772 33V10.905H102.137V14.73C103.187 12.15 105.437 10.725 108.887 10.455L110.867 10.32L111.272 16.035L107.447 16.44C104.087 16.77 102.407 18.48 102.407 21.57V33H95.4772ZM126.185 33.495C119.975 33.495 116.87 30.48 116.87 24.45V15.99H112.685V10.905H116.87V4.425H123.665V10.905H130.19V15.99H123.665V24.18C123.665 25.44 123.95 26.385 124.52 27.015C125.12 27.645 126.065 27.96 127.355 27.96C127.745 27.96 128.15 27.915 128.57 27.825C129.02 27.735 129.5 27.615 130.01 27.465L131 32.415C130.37 32.745 129.62 33 128.75 33.18C127.88 33.39 127.025 33.495 126.185 33.495ZM134.119 33V1.275H146.539C151.939 1.275 156.124 2.655 159.094 5.415C162.064 8.145 163.549 12.045 163.549 17.115C163.549 22.185 162.064 26.1 159.094 28.86C156.124 31.62 151.939 33 146.539 33H134.119ZM141.094 27.285H146.134C152.884 27.285 156.259 23.895 156.259 17.115C156.259 10.365 152.884 6.99 146.134 6.99H141.094V27.285ZM168.382 33V10.905H175.042V14.73C176.092 12.15 178.342 10.725 181.792 10.455L183.772 10.32L184.177 16.035L180.352 16.44C176.992 16.77 175.312 18.48 175.312 21.57V33H168.382ZM194.178 33.495C192.528 33.495 191.073 33.18 189.813 32.55C188.553 31.92 187.548 31.065 186.798 29.985C186.078 28.905 185.718 27.69 185.718 26.34C185.718 24.75 186.138 23.475 186.978 22.515C187.818 21.555 189.183 20.88 191.073 20.49C192.963 20.07 195.468 19.86 198.588 19.86H200.208V19.095C200.208 17.775 199.908 16.845 199.308 16.305C198.708 15.735 197.688 15.45 196.248 15.45C195.048 15.45 193.773 15.645 192.423 16.035C191.103 16.395 189.783 16.95 188.463 17.7L186.618 13.155C187.398 12.645 188.343 12.18 189.453 11.76C190.593 11.34 191.778 11.025 193.008 10.815C194.238 10.575 195.408 10.455 196.518 10.455C199.938 10.455 202.488 11.235 204.168 12.795C205.848 14.325 206.688 16.71 206.688 19.95V33H200.343V29.67C199.893 30.84 199.128 31.77 198.048 32.46C196.998 33.15 195.708 33.495 194.178 33.495ZM195.708 28.95C196.968 28.95 198.033 28.515 198.903 27.645C199.773 26.775 200.208 25.65 200.208 24.27V23.37H198.633C196.323 23.37 194.688 23.58 193.728 24C192.768 24.39 192.288 25.08 192.288 26.07C192.288 26.91 192.573 27.6 193.143 28.14C193.743 28.68 194.598 28.95 195.708 28.95ZM217.792 33L208.792 10.905H215.677L220.942 25.08L226.207 10.905H230.707L235.972 25.26L241.237 10.905H247.762L238.852 33H233.092L228.232 20.445L223.507 33H217.792Z" fill="#FCAF17"/>
</svg>
