<svg width="400" height="62" viewBox="0 0 400 62" fill="none" xmlns="http://www.w3.org/2000/svg">
<path d="M0 41.0101L0.405069 33.3833C2.33783 35.073 4.59464 36.3923 7.21023 37.3529C9.81425 38.2788 13.3904 38.7417 17.9156 38.7417C23.2857 38.7417 24.9175 37.3877 24.9175 35.9641C24.9175 33.5337 16.8277 35.154 9.88369 34.2281C4.72195 33.6147 0.057867 31.4158 0.115734 25.2471C0.115734 19.0438 5.50894 16 15.2769 16C18.6448 16 21.4918 16.1505 23.8644 16.4977C26.2369 16.8101 28.9914 17.4235 32.1856 18.3841V26.2425H29.8362C28.5516 25.0504 26.4337 24.1245 23.5056 23.5111C20.6007 22.8515 18.1124 22.5505 16.0639 22.5505C11.8743 22.5505 9.58278 23.0135 8.79579 23.7426C8.41386 24.0898 8.24026 24.518 8.26341 25.0504C8.26341 28.0595 16.5268 26.3235 23.656 27.2493C28.9335 27.7123 33.6786 29.7955 33.6555 35.9525C33.6555 42.6188 28.1465 45.2807 17.0939 45.2807C9.59435 45.2807 3.90024 43.8572 0 40.9986L0 41.0101Z" fill="#444444"/>
<path d="M39.0718 17.1573H48.9555L61.8251 37.9663H62.6468L75.4817 17.1573H85.3886V44.135H77.4724V28.6729L67.9127 44.1234H56.5361L46.9765 28.6729V44.1234H39.0602V17.1573H39.0718Z" fill="#444444"/>
<path d="M117.1 38.7302H103.2L100.77 44.1234H90.2147L105.318 17.1573H114.993L130.085 44.135H119.53L117.1 38.7417V38.7302ZM113.986 31.7977L110.526 24.0898H109.762L106.302 31.7977H113.986Z" fill="#444444"/>
<path d="M157.317 44.135L150.836 34.9225L142.839 34.8878V44.135H134.923V17.1573H156.172C159.076 17.1573 161.414 17.9328 163.173 19.4257C164.933 20.9303 165.812 23.2797 165.812 26.4045C165.812 31.763 163.208 34.1934 158.718 34.7605L166.402 44.1234H157.317V44.135ZM142.839 28.7192H155.593C156.912 28.7192 157.792 27.909 157.792 26.4045C157.792 25.1314 157.086 24.0898 155.593 24.0898H142.839V28.7192Z" fill="#444444"/>
<path d="M203.634 24.0898H190.001V44.135H182.084V24.0898H168.451V17.1573H203.634V24.0898Z" fill="#444444"/>
<path d="M226.399 38.7302H212.499L210.069 44.1234H199.514L214.617 17.1573H224.293L239.384 44.135H228.829L226.399 38.7417V38.7302ZM223.297 31.7977L219.837 24.0898H219.073L215.613 31.7977H223.297Z" fill="#444444"/>
<path d="M268.584 44.135L260.436 34.6911L252.289 44.135H240.264L252.659 30.3742L241.143 17.1573H252.578L260.702 26.3698L268.295 17.1573H279.729L268.028 30.8371L280.609 44.135H268.584Z" fill="#444444"/>
<path d="M300.284 42.5031V38.3829H301.047C302.309 40.4199 306.499 41.4267 313.651 41.4267C316.579 41.4267 319.16 41.0795 321.532 40.3041C323.963 39.494 325.456 37.8737 325.456 35.7558C325.456 31.5546 320.792 29.4367 311.498 29.4367L311.001 26.7401H311.035L322.794 19.4604H301.626V16.3819H327.516V20.2358L315.56 26.9021C324.646 27.5618 329.194 30.5246 329.194 35.7673C329.194 38.6607 328.025 41.2416 324.449 42.8156C322.134 43.8572 318.442 44.5168 313.662 44.5168C308.443 44.5168 303.987 43.8572 300.295 42.5146L300.284 42.5031Z" fill="#444444"/>
<path d="M337.862 41.1953C335.663 39.1931 334.749 37.0289 334.749 34.61C334.749 27.5965 338.001 23.0482 343.013 20.1201C348.14 17.111 354.91 16.0347 362.363 16L362.896 19.0785C357.977 19.0785 353.718 19.5762 349.297 20.9303C344.934 22.2844 341.439 24.9347 339.83 28.6034C343.557 26.9484 347.075 26.1383 350.385 26.1383C356.01 26.1383 360.269 27.2956 362.525 29.1821C364.84 31.0339 365.835 33.1865 365.835 35.7674C365.835 38.6607 364.666 41.2416 361.09 42.8156C358.776 43.8572 355.084 44.5169 350.304 44.5169C344.436 44.5169 340.108 43.2091 337.874 41.2069L337.862 41.1953ZM358.174 40.3041C360.604 39.494 362.097 37.8737 362.097 35.7558C362.097 31.9019 358.197 29.0548 350.431 29.0548C346.357 29.0548 343.047 29.8302 341.196 30.9065C339.413 31.9829 338.464 33.1402 338.464 34.2165C338.464 39.0311 342.388 41.4268 350.281 41.4268C353.209 41.4268 355.79 41.0796 358.162 40.3041H358.174Z" fill="#444444"/>
<path d="M371.101 42.5031V38.3829H371.865C373.127 40.4199 377.316 41.4267 384.469 41.4267C387.397 41.4267 389.977 41.0795 392.35 40.3041C394.78 39.494 396.273 37.8737 396.273 35.7558C396.273 33.8693 395.486 32.2838 393.901 31.057C392.315 29.8186 389.792 29.2052 386.309 29.2052C384.642 29.2052 382.617 29.402 380.302 29.7839C377.987 30.1311 376.194 30.513 374.874 30.9065L372.502 28.4761L373.671 16.3819H398.322V19.4604H376.367L375.43 27.8974C380.175 26.8558 383.809 26.3119 386.367 26.3119C390.973 26.3119 394.375 27.203 396.632 28.9275C398.889 30.6635 400 32.9319 400 35.7442C400 38.5565 398.831 41.2184 395.255 42.7924C392.94 43.834 389.248 44.4937 384.469 44.4937C379.249 44.4937 374.793 43.834 371.101 42.4915V42.5031Z" fill="#444444"/>
</svg>
